<svg width="239" height="76" viewBox="0 0 239 76" fill="none" xmlns="http://www.w3.org/2000/svg">
<path d="M15.8239 19.1149C14.5039 9.97961 16.781 6.22332 23.426 1.83569C23.7946 10.5426 23.4105 14.912 16.515 19.1149M13.7498 31.5559L26.8818 17.0414M26.8818 17.0414C24.5874 25.6681 21.6353 30.0161 13.7498 32.2471M26.8818 17.0414C19.2377 19.5432 14.9467 23.2062 14.4409 31.2831M21.3525 52.9822C20.1778 44.3545 20.2769 39.5141 23.426 30.8648M23.426 30.8648C24.5173 37.2197 25.4559 43.0398 20.8893 49.0538M23.426 30.8648C17.2494 35.6752 17.1655 41.7559 20.9676 49.8373" stroke="white" stroke-linecap="round"/>
<path d="M49.0005 70.2614C-6.29245 50.9087 18.5894 13.5856 23.4275 1.83569" stroke="white" stroke-linecap="round"/>
<path d="M8.91374 57.8198L32.4132 62.658M8.91374 57.8198C16.5165 52.9817 30.1912 61.6555 29.5 61.5M8.91374 57.8198C15.7612 63.9331 19.2812 64.7315 28.9574 61.9669M2.69329 41.2318C5.45793 48.8347 10.2947 51.5994 20.6621 52.2905C17.2882 50.1312 12.3696 47.4523 11.3328 46.7612C10.2961 46.07 2.69329 41.2318 2.69329 41.2318ZM2.69329 41.2318C8.91374 41.923 11.6784 42.6141 18.59 50.217M14.4419 41.2318L0.999786 26.0261M0.999786 26.0261C2.38211 32.9378 5.83791 37.776 13.0607 39.9916M0.999786 26.0261C6.91661 28.7273 12.2668 33.3699 13.7519 39.9916M13.7519 29.482L4.76677 10.8204M4.76677 10.8204C4.71993 19.5472 7.3244 24.8075 13.7519 30.1732M4.76677 10.8204C9.63761 15.8638 13.866 19.3899 13.5 27.5M36.5589 64.7316C31.3571 56.2307 29.9528 51.8324 28.2649 41.923M22.7356 70.9521C26.4564 67.8467 32.4481 65.6482 45.5442 69.3004H45.9326C34.3348 74.6224 29.0144 76.1599 22.7356 70.9521ZM22.7356 70.9521L44.8528 69.5698M34.0653 59.8934C34.6797 52.8916 33.0926 47.0953 28.2649 41.2318C25.1344 51.886 26.2306 55.9594 34.0653 59.8934Z" stroke="white" stroke-linecap="round"/>
<path d="M107.62 5.56V4.6H112.96V5.56H110.8V13H109.78V5.56H107.62ZM116.043 8.92V7.96H121.803V8.92H116.043ZM121.119 4.6H122.139V13H121.119V4.6ZM115.479 4.6H116.499V13H115.479V4.6ZM126.061 13V12.04H130.297V13H126.061ZM126.061 5.56V4.6H130.297V5.56H126.061ZM126.061 8.92V7.96H130.057V8.92H126.061ZM125.497 4.6H126.517V13H125.497V4.6Z" fill="white"/>
<path d="M74.2645 25.56V24.996H75.6205C75.9005 24.996 76.1525 24.948 76.3765 24.852C76.6005 24.756 76.7765 24.616 76.9045 24.432C77.0325 24.248 77.0965 24.024 77.0965 23.76C77.0965 23.36 76.9565 23.052 76.6765 22.836C76.3965 22.612 76.0445 22.5 75.6205 22.5H74.4805V29.1H75.7405C76.1005 29.1 76.4165 29.036 76.6885 28.908C76.9685 28.78 77.1845 28.596 77.3365 28.356C77.4965 28.116 77.5765 27.824 77.5765 27.48C77.5765 27.224 77.5325 26.996 77.4445 26.796C77.3565 26.596 77.2285 26.428 77.0605 26.292C76.9005 26.156 76.7085 26.056 76.4845 25.992C76.2605 25.92 76.0125 25.884 75.7405 25.884H74.2645V25.32H75.7405C76.1485 25.32 76.5245 25.364 76.8685 25.452C77.2125 25.54 77.5125 25.676 77.7685 25.86C78.0325 26.036 78.2365 26.264 78.3805 26.544C78.5245 26.824 78.5965 27.156 78.5965 27.54C78.5965 28.092 78.4685 28.552 78.2125 28.92C77.9645 29.28 77.6245 29.552 77.1925 29.736C76.7685 29.912 76.2845 30 75.7405 30H73.4605V21.6H75.6205C76.1245 21.6 76.5605 21.676 76.9285 21.828C77.3045 21.98 77.5965 22.212 77.8045 22.524C78.0125 22.828 78.1165 23.22 78.1165 23.7C78.1165 24.092 78.0125 24.428 77.8045 24.708C77.5965 24.988 77.3045 25.2 76.9285 25.344C76.5605 25.488 76.1245 25.56 75.6205 25.56H74.2645ZM82.1919 25.8C82.1919 26.432 82.3279 26.996 82.5999 27.492C82.8799 27.988 83.2599 28.38 83.7399 28.668C84.2199 28.956 84.7639 29.1 85.3719 29.1C85.9879 29.1 86.5319 28.956 87.0039 28.668C87.4839 28.38 87.8599 27.988 88.1319 27.492C88.4119 26.996 88.5519 26.432 88.5519 25.8C88.5519 25.168 88.4119 24.604 88.1319 24.108C87.8599 23.612 87.4839 23.22 87.0039 22.932C86.5319 22.644 85.9879 22.5 85.3719 22.5C84.7639 22.5 84.2199 22.644 83.7399 22.932C83.2599 23.22 82.8799 23.612 82.5999 24.108C82.3279 24.604 82.1919 25.168 82.1919 25.8ZM81.1119 25.8C81.1119 25.184 81.2159 24.616 81.4239 24.096C81.6399 23.568 81.9399 23.112 82.3239 22.728C82.7079 22.336 83.1599 22.032 83.6799 21.816C84.1999 21.592 84.7639 21.48 85.3719 21.48C85.9879 21.48 86.5519 21.592 87.0639 21.816C87.5839 22.032 88.0359 22.336 88.4199 22.728C88.8039 23.112 89.0999 23.568 89.3079 24.096C89.5239 24.616 89.6319 25.184 89.6319 25.8C89.6319 26.408 89.5239 26.976 89.3079 27.504C89.0999 28.032 88.8039 28.492 88.4199 28.884C88.0359 29.268 87.5839 29.572 87.0639 29.796C86.5519 30.012 85.9879 30.12 85.3719 30.12C84.7639 30.12 84.1999 30.012 83.6799 29.796C83.1599 29.572 82.7079 29.268 82.3239 28.884C81.9399 28.492 81.6399 28.032 81.4239 27.504C81.2159 26.976 81.1119 26.408 81.1119 25.8ZM92.4524 21.6H93.4724V27.24C93.4724 27.816 93.6284 28.28 93.9404 28.632C94.2524 28.984 94.7084 29.16 95.3084 29.16C95.9084 29.16 96.3644 28.984 96.6764 28.632C96.9884 28.28 97.1444 27.816 97.1444 27.24V21.6H98.1644V27.24C98.1644 27.656 98.0964 28.04 97.9604 28.392C97.8324 28.744 97.6404 29.048 97.3844 29.304C97.1364 29.56 96.8364 29.76 96.4844 29.904C96.1324 30.048 95.7404 30.12 95.3084 30.12C94.8764 30.12 94.4844 30.048 94.1324 29.904C93.7804 29.76 93.4764 29.56 93.2204 29.304C92.9724 29.048 92.7804 28.744 92.6444 28.392C92.5164 28.04 92.4524 27.656 92.4524 27.24V21.6ZM101.464 21.6H102.484V29.04H105.784V30H101.464V21.6ZM109.474 27.48L109.834 26.52H113.554L113.914 27.48H109.474ZM111.67 23.496L110.254 26.832L110.158 27.048L108.91 30H107.77L111.67 21.18L115.57 30H114.43L113.206 27.12L113.11 26.88L111.67 23.496ZM124.392 21.6H125.412V30.42L119.052 23.748V30H118.032V21.18L124.392 27.852V21.6ZM132.676 26.7V25.74H136.576C136.576 26.324 136.488 26.88 136.312 27.408C136.136 27.928 135.876 28.392 135.532 28.8C135.188 29.208 134.764 29.532 134.26 29.772C133.764 30.004 133.196 30.12 132.556 30.12C131.948 30.12 131.384 30.016 130.864 29.808C130.344 29.592 129.892 29.292 129.508 28.908C129.124 28.516 128.824 28.056 128.608 27.528C128.4 27 128.296 26.424 128.296 25.8C128.296 25.176 128.4 24.6 128.608 24.072C128.824 23.544 129.124 23.088 129.508 22.704C129.892 22.312 130.344 22.012 130.864 21.804C131.384 21.588 131.948 21.48 132.556 21.48C133.076 21.48 133.552 21.548 133.984 21.684C134.424 21.82 134.816 22.02 135.16 22.284C135.512 22.548 135.808 22.876 136.048 23.268L135.328 23.928C135.064 23.48 134.696 23.132 134.224 22.884C133.752 22.628 133.196 22.5 132.556 22.5C131.964 22.5 131.428 22.64 130.948 22.92C130.468 23.2 130.084 23.588 129.796 24.084C129.516 24.572 129.376 25.144 129.376 25.8C129.376 26.448 129.516 27.02 129.796 27.516C130.084 28.012 130.468 28.4 130.948 28.68C131.428 28.96 131.964 29.1 132.556 29.1C132.972 29.1 133.344 29.04 133.672 28.92C134.008 28.792 134.296 28.616 134.536 28.392C134.776 28.168 134.972 27.912 135.124 27.624C135.284 27.336 135.4 27.028 135.472 26.7H132.676ZM140.085 30V29.04H144.321V30H140.085ZM140.085 22.56V21.6H144.321V22.56H140.085ZM140.085 25.92V24.96H144.081V25.92H140.085ZM139.521 21.6H140.541V30H139.521V21.6ZM149.059 25.86H150.199L153.199 30H151.939L149.059 25.86ZM147.559 21.6H148.579V30H147.559V21.6ZM148.123 22.5V21.6H149.839C150.383 21.6 150.867 21.704 151.291 21.912C151.723 22.112 152.063 22.4 152.311 22.776C152.567 23.152 152.695 23.6 152.695 24.12C152.695 24.632 152.567 25.08 152.311 25.464C152.063 25.84 151.723 26.132 151.291 26.34C150.867 26.54 150.383 26.64 149.839 26.64H148.123V25.74H149.839C150.199 25.74 150.515 25.676 150.787 25.548C151.067 25.42 151.283 25.236 151.435 24.996C151.595 24.756 151.675 24.464 151.675 24.12C151.675 23.776 151.595 23.484 151.435 23.244C151.283 23.004 151.067 22.82 150.787 22.692C150.515 22.564 150.199 22.5 149.839 22.5H148.123ZM155.713 21.6H156.733V30H155.713V21.6ZM160.659 30V29.04H164.895V30H160.659ZM160.659 22.56V21.6H164.895V22.56H160.659ZM160.659 25.92V24.96H164.655V25.92H160.659ZM160.095 21.6H161.115V30H160.095V21.6Z" fill="white"/>
<path d="M57.1165 52.12L57.9565 49.88H66.6365L67.4765 52.12H57.1165ZM62.2405 42.824L58.9365 50.608L58.7125 51.112L55.8005 58H53.1405L62.2405 37.42L71.3405 58H68.6805L65.8245 51.28L65.6005 50.72L62.2405 42.824ZM79.8009 44.756L78.3449 58H75.9649L78.3449 37.42L86.1849 51.616L94.0249 37.42L96.4049 58H94.0249L92.5689 44.756L86.1849 56.18L79.8009 44.756ZM104.989 52.12L105.829 49.88H114.509L115.349 52.12H104.989ZM110.113 42.824L106.809 50.608L106.585 51.112L103.673 58H101.013L110.113 37.42L119.213 58H116.553L113.697 51.28L113.473 50.72L110.113 42.824ZM139.797 38.4H142.177V58.98L127.337 43.412V58H124.957V37.42L139.797 52.988V38.4ZM150.028 38.4H152.408V58H150.028V38.4ZM155.908 58H151.344V55.62H155.908C157.009 55.62 158.017 55.452 158.932 55.116C159.847 54.7613 160.631 54.2667 161.284 53.632C161.937 52.9787 162.441 52.1947 162.796 51.28C163.151 50.3653 163.328 49.3387 163.328 48.2C163.328 47.0613 163.151 46.0347 162.796 45.12C162.441 44.2053 161.937 43.4307 161.284 42.796C160.631 42.1427 159.847 41.648 158.932 41.312C158.017 40.9573 157.009 40.78 155.908 40.78H151.344V38.4H155.908C157.812 38.4 159.501 38.8107 160.976 39.632C162.451 40.4533 163.608 41.6013 164.448 43.076C165.288 44.532 165.708 46.24 165.708 48.2C165.708 50.16 165.288 51.8773 164.448 53.352C163.608 54.808 162.451 55.9467 160.976 56.768C159.501 57.5893 157.812 58 155.908 58ZM173.735 58V55.76H183.619V58H173.735ZM173.735 40.64V38.4H183.619V40.64H173.735ZM173.735 48.48V46.24H183.059V48.48H173.735ZM172.419 38.4H174.799V58H172.419V38.4Z" fill="white"/>
<path d="M93.1431 72.1074C92.9712 72.1074 92.7886 72.0931 92.5952 72.0645C92.4019 72.043 92.2407 72.0179 92.1118 71.9893C91.8468 71.9391 91.6535 71.8997 91.5317 71.8711C91.4172 71.8353 91.3097 71.8102 91.2095 71.7959C91.1164 71.3519 91.0483 70.9902 91.0054 70.7109C90.9624 70.4245 90.9409 70.2168 90.9409 70.0879C90.9409 70.0449 90.9982 70.0234 91.1128 70.0234C91.2417 70.0234 91.3312 70.0557 91.3813 70.1201C91.632 71.1514 92.2264 71.667 93.1646 71.667C93.5226 71.667 93.827 71.5596 94.0776 71.3447C94.3283 71.1299 94.4536 70.8255 94.4536 70.4316C94.4536 70.3027 94.425 70.1452 94.3677 69.959C94.3175 69.7728 94.1994 69.6117 94.0132 69.4756C93.87 69.3682 93.7518 69.2894 93.6587 69.2393C93.5656 69.182 93.4725 69.1318 93.3794 69.0889C93.2863 69.0387 93.1681 68.9707 93.0249 68.8848L92.5952 68.627C92.3732 68.4909 92.1512 68.3369 91.9292 68.165C91.7072 67.986 91.521 67.7783 91.3706 67.542C91.2274 67.3057 91.1558 67.0371 91.1558 66.7363C91.1558 66.3568 91.2524 66.0273 91.4458 65.748C91.6463 65.4616 91.9041 65.2396 92.2192 65.082C92.5415 64.9245 92.8888 64.8457 93.2612 64.8457C93.4188 64.8457 93.5656 64.8564 93.7017 64.8779C93.8449 64.8923 93.9631 64.9102 94.0562 64.9316C94.271 64.9818 94.4214 65.0212 94.5073 65.0498C94.6004 65.0785 94.7257 65.1107 94.8833 65.1465C94.9692 65.5189 95.0122 66.0309 95.0122 66.6826C95.0122 66.7327 94.9764 66.7578 94.9048 66.7578C94.7257 66.7578 94.6326 66.722 94.6255 66.6504C94.5897 66.4355 94.5109 66.2243 94.3892 66.0166C94.2674 65.8089 94.1027 65.637 93.895 65.501C93.6873 65.3577 93.4403 65.2861 93.1538 65.2861C92.8602 65.2861 92.631 65.3434 92.4663 65.458C92.3016 65.5654 92.1834 65.7051 92.1118 65.877C92.0474 66.0417 92.0151 66.2171 92.0151 66.4033C92.0151 66.5824 92.0581 66.7614 92.144 66.9404C92.23 67.1195 92.3553 67.2699 92.52 67.3916C92.742 67.5563 92.964 67.7103 93.186 67.8535C93.4152 67.9967 93.6515 68.1436 93.895 68.2939C94.1242 68.4372 94.3534 68.5983 94.5825 68.7773C94.8117 68.9492 95.0015 69.1462 95.1519 69.3682C95.3094 69.5902 95.3882 69.848 95.3882 70.1416C95.3882 70.5212 95.2843 70.8613 95.0767 71.1621C94.869 71.4557 94.5933 71.6885 94.2495 71.8604C93.9129 72.0251 93.5441 72.1074 93.1431 72.1074ZM97.4816 72.0322C97.453 72.0036 97.4387 71.9427 97.4387 71.8496C97.4387 71.7637 97.453 71.7207 97.4816 71.7207C97.5389 71.7207 97.6177 71.71 97.7179 71.6885C97.8182 71.667 97.9113 71.6383 97.9972 71.6025C98.0832 71.5667 98.1297 71.5345 98.1369 71.5059C98.1655 71.4056 98.1834 71.291 98.1906 71.1621C98.2049 71.0332 98.2121 70.8971 98.2121 70.7539V68.7236C98.2121 68.4515 98.162 68.2581 98.0617 68.1436C97.9901 68.0505 97.9041 67.9932 97.8039 67.9717C97.7036 67.943 97.6177 67.9287 97.5461 67.9287C97.4745 67.9215 97.4387 67.9108 97.4387 67.8965C97.4387 67.7246 97.4601 67.6351 97.5031 67.6279C97.8827 67.5706 98.1727 67.5241 98.3732 67.4883C98.5737 67.4453 98.7528 67.4059 98.9103 67.3701L99.0392 67.3379C99.0679 67.3307 99.0858 67.3594 99.0929 67.4238C99.1001 67.4883 99.1001 67.5348 99.0929 67.5635C99.0786 67.7067 99.0643 67.8428 99.05 67.9717C99.0428 68.1006 99.0392 68.2223 99.0392 68.3369V70.5498C99.0392 70.7575 99.0464 70.9401 99.0607 71.0977C99.075 71.2552 99.0965 71.3913 99.1252 71.5059C99.1395 71.5345 99.1896 71.5667 99.2756 71.6025C99.3615 71.6383 99.4546 71.667 99.5549 71.6885C99.6551 71.71 99.7267 71.7207 99.7697 71.7207C99.7912 71.7207 99.8055 71.7637 99.8127 71.8496C99.8198 71.9355 99.8163 71.9964 99.8019 72.0322L98.6525 71.9785L97.4816 72.0322ZM98.5451 66.167C98.4019 66.167 98.2765 66.1133 98.1691 66.0059C98.0617 65.8984 98.008 65.7731 98.008 65.6299C98.008 65.4795 98.0617 65.3542 98.1691 65.2539C98.2765 65.1465 98.4019 65.0928 98.5451 65.0928C98.6955 65.0928 98.8208 65.1465 98.9211 65.2539C99.0285 65.3542 99.0822 65.4795 99.0822 65.6299C99.0822 65.7731 99.0285 65.8984 98.9211 66.0059C98.8208 66.1133 98.6955 66.167 98.5451 66.167ZM101.799 72.0322C101.77 72.0036 101.756 71.9427 101.756 71.8496C101.756 71.7637 101.77 71.7207 101.799 71.7207C101.856 71.7207 101.935 71.71 102.035 71.6885C102.135 71.667 102.228 71.6383 102.314 71.6025C102.4 71.5667 102.447 71.5345 102.454 71.5059C102.483 71.4056 102.501 71.291 102.508 71.1621C102.522 71.0332 102.529 70.8971 102.529 70.7539V68.7236C102.529 68.4515 102.479 68.2581 102.379 68.1436C102.307 68.0576 102.221 68.0003 102.121 67.9717C102.028 67.943 101.942 67.9287 101.863 67.9287C101.792 67.9215 101.756 67.9108 101.756 67.8965C101.756 67.7246 101.777 67.6351 101.82 67.6279C102.2 67.5706 102.508 67.5205 102.744 67.4775C102.98 67.4274 103.127 67.3952 103.184 67.3809L103.356 67.3379C103.385 67.3307 103.403 67.3594 103.41 67.4238C103.417 67.4883 103.417 67.5348 103.41 67.5635C103.396 67.6637 103.385 67.7497 103.378 67.8213C103.371 67.8929 103.367 67.9502 103.367 67.9932C103.367 68.0218 103.374 68.0361 103.389 68.0361C103.396 68.0361 103.406 68.029 103.421 68.0146C103.585 67.8428 103.807 67.6816 104.087 67.5312C104.373 67.3737 104.645 67.2949 104.903 67.2949C105.404 67.2949 105.755 67.474 105.956 67.832C106.156 68.1901 106.257 68.7702 106.257 69.5723V70.5498C106.257 70.7575 106.264 70.9401 106.278 71.0977C106.293 71.2552 106.314 71.3913 106.343 71.5059C106.357 71.5345 106.407 71.5667 106.493 71.6025C106.579 71.6383 106.672 71.667 106.772 71.6885C106.873 71.71 106.944 71.7207 106.987 71.7207C107.009 71.7207 107.023 71.7637 107.03 71.8496C107.037 71.9355 107.034 71.9964 107.019 72.0322L105.87 71.9785L104.742 72.0322C104.713 72.0036 104.699 71.9427 104.699 71.8496C104.699 71.7637 104.713 71.7207 104.742 71.7207C104.799 71.7207 104.875 71.71 104.968 71.6885C105.061 71.667 105.147 71.6383 105.225 71.6025C105.304 71.5667 105.347 71.5345 105.354 71.5059C105.383 71.4056 105.401 71.291 105.408 71.1621C105.422 71.0332 105.43 70.8971 105.43 70.7539V69.6797C105.43 69.0137 105.344 68.5589 105.172 68.3154C105 68.0719 104.721 67.9502 104.334 67.9502C104.183 67.9502 104.033 67.9932 103.883 68.0791C103.732 68.1579 103.607 68.251 103.507 68.3584C103.406 68.4658 103.356 68.5661 103.356 68.6592V70.5498C103.356 70.7575 103.363 70.9401 103.378 71.0977C103.392 71.2552 103.414 71.3913 103.442 71.5059C103.457 71.5345 103.507 71.5667 103.593 71.6025C103.679 71.6383 103.772 71.667 103.872 71.6885C103.972 71.71 104.044 71.7207 104.087 71.7207C104.108 71.7207 104.123 71.7637 104.13 71.8496C104.137 71.9355 104.133 71.9964 104.119 72.0322L102.97 71.9785L101.799 72.0322ZM111.165 72.0645C110.771 72.0645 110.409 71.9606 110.08 71.7529C109.75 71.5452 109.485 71.2695 109.285 70.9258C109.091 70.5749 108.995 70.1846 108.995 69.7549C108.995 69.3109 109.073 68.9062 109.231 68.541C109.396 68.1686 109.632 67.8714 109.94 67.6494C110.255 67.4274 110.635 67.3164 111.079 67.3164C111.866 67.3164 112.411 67.499 112.711 67.8643C112.711 68.3441 112.579 68.584 112.314 68.584C112.192 68.584 112.099 68.5589 112.035 68.5088C111.97 68.4515 111.888 68.3512 111.788 68.208C111.566 67.8786 111.301 67.7139 110.993 67.7139C110.699 67.7139 110.431 67.8535 110.187 68.1328C109.951 68.4121 109.833 68.8275 109.833 69.3789C109.833 69.9518 109.972 70.4281 110.252 70.8076C110.538 71.1872 110.932 71.377 111.433 71.377C111.734 71.377 111.985 71.334 112.185 71.248C112.393 71.1549 112.543 71.0726 112.636 71.001L112.711 70.9473C112.754 70.9473 112.776 70.9938 112.776 71.0869C112.776 71.137 112.754 71.2015 112.711 71.2803C112.568 71.4808 112.357 71.6634 112.078 71.8281C111.798 71.9857 111.494 72.0645 111.165 72.0645ZM116.835 72.0645C116.441 72.0645 116.08 71.9606 115.75 71.7529C115.421 71.5452 115.156 71.2695 114.955 70.9258C114.762 70.5749 114.665 70.1846 114.665 69.7549C114.665 69.2536 114.758 68.8203 114.945 68.4551C115.131 68.0898 115.385 67.8105 115.707 67.6172C116.03 67.4167 116.391 67.3164 116.792 67.3164C117.122 67.3164 117.412 67.3809 117.662 67.5098C117.913 67.6315 118.106 67.7891 118.242 67.9824C118.371 68.1829 118.464 68.387 118.522 68.5947C118.586 68.7952 118.618 68.9958 118.618 69.1963C118.618 69.3395 118.597 69.429 118.554 69.4648C118.511 69.4935 118.429 69.5078 118.307 69.5078H115.6C115.543 69.5078 115.514 69.5257 115.514 69.5615C115.514 69.8623 115.575 70.1523 115.697 70.4316C115.818 70.7038 115.997 70.9294 116.234 71.1084C116.47 71.2874 116.76 71.377 117.104 71.377C117.405 71.377 117.655 71.334 117.856 71.248C118.063 71.1549 118.214 71.0726 118.307 71.001L118.382 70.9473C118.425 70.9473 118.447 70.9938 118.447 71.0869C118.447 71.137 118.425 71.2015 118.382 71.2803C118.239 71.4808 118.028 71.6634 117.748 71.8281C117.469 71.9857 117.165 72.0645 116.835 72.0645ZM115.6 69.0566H117.695C117.73 69.0566 117.748 69.0208 117.748 68.9492C117.748 68.7917 117.705 68.6198 117.619 68.4336C117.541 68.2402 117.419 68.0719 117.254 67.9287C117.089 67.7855 116.882 67.7139 116.631 67.7139C116.402 67.7139 116.205 67.7926 116.04 67.9502C115.876 68.1006 115.75 68.276 115.664 68.4766C115.578 68.6699 115.535 68.8382 115.535 68.9814C115.535 69.0316 115.557 69.0566 115.6 69.0566ZM124.846 72.0322C124.818 72.0036 124.803 71.9427 124.803 71.8496C124.803 71.7637 124.818 71.7207 124.846 71.7207C124.911 71.7207 125 71.71 125.115 71.6885C125.229 71.667 125.337 71.6383 125.437 71.6025C125.537 71.5667 125.591 71.5345 125.598 71.5059C125.641 71.334 125.663 71.1299 125.663 70.8936V67.0264C125.663 66.8044 125.656 66.6325 125.641 66.5107C125.627 66.3818 125.584 66.3174 125.512 66.3174C125.462 66.3174 125.365 66.3568 125.222 66.4355C125.086 66.5143 124.954 66.5931 124.825 66.6719C124.782 66.6504 124.739 66.611 124.696 66.5537C124.653 66.4893 124.631 66.4391 124.631 66.4033C124.631 66.3747 124.639 66.3532 124.653 66.3389C125.863 65.5153 126.483 65.1035 126.511 65.1035H126.533C126.59 65.1035 126.633 65.1715 126.662 65.3076C126.59 65.5296 126.554 65.8662 126.554 66.3174V70.5498C126.554 70.7575 126.561 70.9401 126.576 71.0977C126.59 71.2552 126.612 71.3913 126.64 71.5059C126.655 71.5345 126.708 71.5667 126.801 71.6025C126.902 71.6383 127.009 71.667 127.124 71.6885C127.238 71.71 127.317 71.7207 127.36 71.7207C127.389 71.7207 127.403 71.7852 127.403 71.9141C127.403 71.9857 127.399 72.0251 127.392 72.0322C127.034 72.0179 126.748 72.0072 126.533 72C126.318 71.9857 126.171 71.9785 126.092 71.9785C126.035 71.9785 125.903 71.9857 125.695 72C125.487 72.0072 125.204 72.0179 124.846 72.0322ZM130.495 72.0645C130.452 72.0645 130.402 72.0215 130.345 71.9355C130.288 71.8496 130.259 71.7887 130.259 71.7529C130.631 71.6097 130.993 71.4056 131.344 71.1406C131.702 70.8685 132.017 70.5462 132.289 70.1738C132.569 69.7943 132.773 69.3682 132.902 68.8955C132.923 68.8239 132.92 68.7881 132.891 68.7881C132.834 68.8597 132.733 68.9277 132.59 68.9922C132.447 69.0495 132.293 69.096 132.128 69.1318C131.971 69.1676 131.827 69.1855 131.698 69.1855C131.355 69.1855 131.043 69.096 130.764 68.917C130.485 68.738 130.263 68.5016 130.098 68.208C129.933 67.9072 129.851 67.5778 129.851 67.2197C129.851 66.8187 129.951 66.457 130.152 66.1348C130.359 65.8053 130.628 65.5439 130.957 65.3506C131.294 65.1501 131.656 65.0498 132.042 65.0498C132.436 65.0498 132.783 65.1572 133.084 65.3721C133.392 65.5869 133.636 65.8698 133.815 66.2207C133.994 66.5645 134.083 66.9404 134.083 67.3486C134.083 67.9072 133.969 68.4515 133.74 68.9814C133.51 69.5114 133.217 69.9769 132.859 70.3779C132.493 70.7718 132.107 71.1156 131.698 71.4092C131.297 71.7028 130.896 71.9212 130.495 72.0645ZM132.107 68.6592C132.443 68.6592 132.698 68.5446 132.869 68.3154C133.048 68.0863 133.142 67.7819 133.149 67.4023C133.156 67.0514 133.106 66.7292 132.998 66.4355C132.891 66.1419 132.74 65.9092 132.547 65.7373C132.354 65.5583 132.128 65.4688 131.87 65.4688C131.562 65.4688 131.297 65.612 131.075 65.8984C130.853 66.1849 130.742 66.5609 130.742 67.0264C130.742 67.4919 130.861 67.8822 131.097 68.1973C131.333 68.5052 131.67 68.6592 132.107 68.6592ZM138.454 72.0967C137.86 72.0967 137.376 71.9355 137.004 71.6133C136.639 71.291 136.456 70.8685 136.456 70.3457C136.456 70.0091 136.581 69.694 136.832 69.4004C137.083 69.0996 137.423 68.8275 137.852 68.584C137.888 68.5625 137.888 68.541 137.852 68.5195C137.573 68.3548 137.319 68.1257 137.09 67.832C136.868 67.5312 136.757 67.2018 136.757 66.8438C136.757 66.5358 136.839 66.2493 137.004 65.9844C137.169 65.7194 137.387 65.5046 137.659 65.3398C137.931 65.1751 138.225 65.0928 138.54 65.0928C138.869 65.0928 139.167 65.1608 139.432 65.2969C139.697 65.4329 139.908 65.6227 140.065 65.8662C140.223 66.1097 140.302 66.3962 140.302 66.7256C140.302 67.277 139.901 67.8034 139.099 68.3047C139.07 68.3262 139.07 68.3477 139.099 68.3691C139.335 68.5052 139.56 68.6699 139.775 68.8633C139.99 69.0495 140.166 69.2572 140.302 69.4863C140.438 69.7083 140.506 69.9482 140.506 70.2061C140.506 70.557 140.409 70.8757 140.216 71.1621C140.03 71.4486 139.779 71.6777 139.464 71.8496C139.156 72.0143 138.819 72.0967 138.454 72.0967ZM138.733 68.1113C138.748 68.1113 138.769 68.1042 138.798 68.0898C139.285 67.7676 139.528 67.3307 139.528 66.7793C139.528 66.5501 139.482 66.3389 139.389 66.1455C139.303 65.945 139.181 65.7839 139.023 65.6621C138.866 65.5332 138.683 65.4688 138.476 65.4688C138.211 65.4688 137.989 65.5833 137.81 65.8125C137.638 66.0417 137.552 66.3424 137.552 66.7148C137.552 67.2018 137.924 67.6602 138.669 68.0898C138.69 68.1042 138.712 68.1113 138.733 68.1113ZM138.476 71.71C138.834 71.71 139.116 71.6025 139.324 71.3877C139.532 71.1729 139.636 70.8828 139.636 70.5176C139.636 70.2669 139.564 70.0413 139.421 69.8408C139.285 69.6331 139.131 69.4577 138.959 69.3145C138.787 69.1712 138.651 69.0674 138.551 69.0029C138.415 68.9098 138.322 68.8561 138.271 68.8418C138.228 68.8203 138.2 68.8096 138.185 68.8096C138.171 68.8096 138.15 68.8203 138.121 68.8418C138.092 68.8561 138.06 68.8776 138.024 68.9062C137.767 69.0924 137.58 69.293 137.466 69.5078C137.358 69.7155 137.305 69.984 137.305 70.3135C137.305 70.7288 137.423 71.0654 137.659 71.3232C137.895 71.5811 138.168 71.71 138.476 71.71ZM144.565 72.0537C143.928 72.0537 143.448 71.9463 143.126 71.7314C143.054 71.6813 143.018 71.5775 143.018 71.4199C143.018 71.0833 143.151 70.915 143.416 70.915C143.523 70.915 143.62 70.9688 143.706 71.0762C143.792 71.1764 143.906 71.2839 144.049 71.3984C144.257 71.5488 144.544 71.624 144.909 71.624C145.21 71.624 145.478 71.4987 145.714 71.248C145.958 70.9902 146.08 70.5964 146.08 70.0664C146.08 69.6224 145.951 69.2572 145.693 68.9707C145.442 68.6771 145.048 68.5303 144.511 68.5303C144.146 68.5303 143.835 68.5697 143.577 68.6484C143.548 68.6341 143.516 68.6162 143.48 68.5947C143.451 68.5661 143.419 68.5339 143.383 68.498L143.899 65.3076C144.601 65.2861 145.163 65.2646 145.586 65.2432C146.008 65.2145 146.287 65.1859 146.423 65.1572C146.438 65.1859 146.449 65.2217 146.456 65.2646C146.47 65.3005 146.477 65.3577 146.477 65.4365C146.477 65.5798 146.456 65.7588 146.413 65.9736C146.219 66.0309 145.815 66.0703 145.199 66.0918L144.264 66.1348C144.221 66.1491 144.196 66.1777 144.189 66.2207C144.153 66.4212 144.107 66.6647 144.049 66.9512C143.999 67.2305 143.942 67.5599 143.878 67.9395C144.107 67.8464 144.443 67.7998 144.887 67.7998C145.274 67.7998 145.625 67.8929 145.94 68.0791C146.262 68.2581 146.52 68.498 146.713 68.7988C146.907 69.0996 147.004 69.429 147.004 69.7871C147.004 70.224 146.896 70.6143 146.681 70.958C146.474 71.3018 146.187 71.5703 145.822 71.7637C145.457 71.957 145.038 72.0537 144.565 72.0537Z" fill="white"/>
<path d="M223.177 19.1149C224.497 9.97961 222.22 6.22332 215.575 1.83569C215.206 10.5426 215.59 14.912 222.486 19.1149M225.251 31.5559L212.119 17.0414M212.119 17.0414C214.414 25.6681 217.366 30.0161 225.251 32.2471M212.119 17.0414C219.763 19.5432 224.054 23.2062 224.56 31.2831M217.648 52.9822C218.823 44.3545 218.724 39.5141 215.575 30.8648M215.575 30.8648C214.484 37.2197 213.545 43.0398 218.112 49.0538M215.575 30.8648C221.752 35.6752 221.835 41.7559 218.033 49.8373" stroke="white" stroke-linecap="round"/>
<path d="M190 70.2614C245.293 50.9087 220.412 13.5856 215.573 1.83569" stroke="white" stroke-linecap="round"/>
<path d="M230.087 57.8198L206.588 62.658M230.087 57.8198C222.484 52.9817 208.809 61.6555 209.5 61.5M230.087 57.8198C223.24 63.9331 219.72 64.7315 210.044 61.9669M236.308 41.2318C233.543 48.8347 228.706 51.5994 218.339 52.2905C221.713 50.1312 226.631 47.4523 227.668 46.7612C228.705 46.07 236.308 41.2318 236.308 41.2318ZM236.308 41.2318C230.087 41.923 227.323 42.6141 220.411 50.217M224.559 41.2318L238.001 26.0261M238.001 26.0261C236.619 32.9378 233.163 37.776 225.94 39.9916M238.001 26.0261C232.084 28.7273 226.985 32.8783 225.5 39.5M225.249 29.482L234.234 10.8204M234.234 10.8204C234.281 19.5472 231.677 24.8075 225.249 30.1732M234.234 10.8204C229.363 15.8638 225.134 19.3899 225.5 27.5M202.442 64.7316C207.644 56.2307 209.048 51.8324 210.736 41.923M216.265 70.9521C212.545 67.8467 206.553 65.6482 193.457 69.3004H193.068C204.666 74.6224 209.987 76.1599 216.265 70.9521ZM216.265 70.9521L194.148 69.5698M204.936 59.8934C204.321 52.8916 205.908 47.0953 210.736 41.2318C213.867 51.886 212.77 55.9594 204.936 59.8934Z" stroke="white" stroke-linecap="round"/>
</svg>
