<svg width="230" height="76" viewBox="0 0 230 76" fill="none" xmlns="http://www.w3.org/2000/svg">
<path d="M15.2106 20.7698C13.972 12.1185 16.109 8.56119 22.3452 4.40601C22.6911 12.6517 22.3307 16.7895 15.8593 20.7698M13.2642 32.5517L25.5885 18.8062M25.5885 18.8062C23.4351 26.9758 20.6647 31.0935 13.2642 33.2063M25.5885 18.8062C18.4146 21.1755 14.3875 24.6444 13.9128 32.2933M20.3993 52.8429C19.2969 44.6723 19.3897 40.0883 22.3452 31.8972M22.3452 31.8972C23.3693 37.9155 24.2502 43.4273 19.9646 49.1226M22.3452 31.8972C16.5485 36.4528 16.4698 42.2114 20.038 49.8646" stroke="white" stroke-linecap="round"/>
<path d="M46.3455 69.2067C-5.54642 50.8793 17.8049 15.5334 22.3455 4.40601" stroke="white" stroke-linecap="round"/>
<path d="M8.72502 57.4246L30.779 62.0066M8.72502 57.4246C15.8601 52.8428 29.1486 61.1473 28.5 61M8.72502 57.4246C15.1513 63.2141 18.4547 63.9702 27.5358 61.352M2.88718 41.7154C5.48178 48.9155 9.27032 51.3455 19 52C15.8337 49.9551 11.9683 47.6064 10.9953 46.9519C10.0223 46.2972 2.88718 41.7154 2.88718 41.7154ZM2.88718 41.7154C8.72502 42.37 11.3196 43.0245 17.8061 50.2246M13.9131 41.7154L1.29785 27.3153M1.29785 27.3153C2.59515 33.8609 5.83839 38.4427 12.6169 40.5409M1.29785 27.3153C6.85074 29.8734 11.6062 34.2701 13 40.5409M13.2655 30.5881L4.83313 12.9152M4.83313 12.9152C4.78916 21.1796 7.23344 26.1612 13.2655 31.2427M4.83313 12.9152C9.40438 17.6914 13.3435 20.8196 13 28.5M34.6698 63.9702C29.7879 55.9197 28.47 51.7544 26.886 42.3701M21.6967 69.8612C25.1887 66.9204 30.8119 64.8384 43.1023 68.297H43.4669C32.5824 73.337 27.5893 74.7931 21.6967 69.8612ZM21.6967 69.8612L42.4536 68.5522M32.3294 59.3884C32.9062 52.7576 31.4167 47.2683 26.886 41.7154C23.948 51.8052 24.9768 55.6627 32.3294 59.3884Z" stroke="white" stroke-linecap="round"/>
<path d="M102.62 5.56V4.6H107.96V5.56H105.8V13H104.78V5.56H102.62ZM111.042 8.92V7.96H116.802V8.92H111.042ZM116.118 4.6H117.138V13H116.118V4.6ZM110.478 4.6H111.498V13H110.478V4.6ZM121.06 13V12.04H125.296V13H121.06ZM121.06 5.56V4.6H125.296V5.56H121.06ZM121.06 8.92V7.96H125.056V8.92H121.06ZM120.496 4.6H121.516V13H120.496V4.6Z" fill="white"/>
<path d="M69.264 25.56V24.996H70.62C70.9 24.996 71.152 24.948 71.376 24.852C71.6 24.756 71.776 24.616 71.904 24.432C72.032 24.248 72.096 24.024 72.096 23.76C72.096 23.36 71.956 23.052 71.676 22.836C71.396 22.612 71.044 22.5 70.62 22.5H69.48V29.1H70.74C71.1 29.1 71.416 29.036 71.688 28.908C71.968 28.78 72.184 28.596 72.336 28.356C72.496 28.116 72.576 27.824 72.576 27.48C72.576 27.224 72.532 26.996 72.444 26.796C72.356 26.596 72.228 26.428 72.06 26.292C71.9 26.156 71.708 26.056 71.484 25.992C71.26 25.92 71.012 25.884 70.74 25.884H69.264V25.32H70.74C71.148 25.32 71.524 25.364 71.868 25.452C72.212 25.54 72.512 25.676 72.768 25.86C73.032 26.036 73.236 26.264 73.38 26.544C73.524 26.824 73.596 27.156 73.596 27.54C73.596 28.092 73.468 28.552 73.212 28.92C72.964 29.28 72.624 29.552 72.192 29.736C71.768 29.912 71.284 30 70.74 30H68.46V21.6H70.62C71.124 21.6 71.56 21.676 71.928 21.828C72.304 21.98 72.596 22.212 72.804 22.524C73.012 22.828 73.116 23.22 73.116 23.7C73.116 24.092 73.012 24.428 72.804 24.708C72.596 24.988 72.304 25.2 71.928 25.344C71.56 25.488 71.124 25.56 70.62 25.56H69.264ZM77.1914 25.8C77.1914 26.432 77.3274 26.996 77.5994 27.492C77.8794 27.988 78.2594 28.38 78.7394 28.668C79.2194 28.956 79.7634 29.1 80.3714 29.1C80.9874 29.1 81.5314 28.956 82.0034 28.668C82.4834 28.38 82.8594 27.988 83.1314 27.492C83.4114 26.996 83.5514 26.432 83.5514 25.8C83.5514 25.168 83.4114 24.604 83.1314 24.108C82.8594 23.612 82.4834 23.22 82.0034 22.932C81.5314 22.644 80.9874 22.5 80.3714 22.5C79.7634 22.5 79.2194 22.644 78.7394 22.932C78.2594 23.22 77.8794 23.612 77.5994 24.108C77.3274 24.604 77.1914 25.168 77.1914 25.8ZM76.1114 25.8C76.1114 25.184 76.2154 24.616 76.4234 24.096C76.6394 23.568 76.9394 23.112 77.3234 22.728C77.7074 22.336 78.1594 22.032 78.6794 21.816C79.1994 21.592 79.7634 21.48 80.3714 21.48C80.9874 21.48 81.5514 21.592 82.0634 21.816C82.5834 22.032 83.0354 22.336 83.4194 22.728C83.8034 23.112 84.0994 23.568 84.3074 24.096C84.5234 24.616 84.6314 25.184 84.6314 25.8C84.6314 26.408 84.5234 26.976 84.3074 27.504C84.0994 28.032 83.8034 28.492 83.4194 28.884C83.0354 29.268 82.5834 29.572 82.0634 29.796C81.5514 30.012 80.9874 30.12 80.3714 30.12C79.7634 30.12 79.1994 30.012 78.6794 29.796C78.1594 29.572 77.7074 29.268 77.3234 28.884C76.9394 28.492 76.6394 28.032 76.4234 27.504C76.2154 26.976 76.1114 26.408 76.1114 25.8ZM87.4519 21.6H88.4719V27.24C88.4719 27.816 88.6279 28.28 88.9399 28.632C89.2519 28.984 89.7079 29.16 90.3079 29.16C90.9079 29.16 91.3639 28.984 91.6759 28.632C91.9879 28.28 92.1439 27.816 92.1439 27.24V21.6H93.1639V27.24C93.1639 27.656 93.0959 28.04 92.9599 28.392C92.8319 28.744 92.6399 29.048 92.3839 29.304C92.1359 29.56 91.8359 29.76 91.4839 29.904C91.1319 30.048 90.7399 30.12 90.3079 30.12C89.8759 30.12 89.4839 30.048 89.1319 29.904C88.7799 29.76 88.4759 29.56 88.2199 29.304C87.9719 29.048 87.7799 28.744 87.6439 28.392C87.5159 28.04 87.4519 27.656 87.4519 27.24V21.6ZM96.4636 21.6H97.4836V29.04H100.784V30H96.4636V21.6ZM104.473 27.48L104.833 26.52H108.553L108.913 27.48H104.473ZM106.669 23.496L105.253 26.832L105.157 27.048L103.909 30H102.769L106.669 21.18L110.569 30H109.429L108.205 27.12L108.109 26.88L106.669 23.496ZM119.391 21.6H120.411V30.42L114.051 23.748V30H113.031V21.18L119.391 27.852V21.6ZM127.676 26.7V25.74H131.576C131.576 26.324 131.488 26.88 131.312 27.408C131.136 27.928 130.876 28.392 130.532 28.8C130.188 29.208 129.764 29.532 129.26 29.772C128.764 30.004 128.196 30.12 127.556 30.12C126.948 30.12 126.384 30.016 125.864 29.808C125.344 29.592 124.892 29.292 124.508 28.908C124.124 28.516 123.824 28.056 123.608 27.528C123.4 27 123.296 26.424 123.296 25.8C123.296 25.176 123.4 24.6 123.608 24.072C123.824 23.544 124.124 23.088 124.508 22.704C124.892 22.312 125.344 22.012 125.864 21.804C126.384 21.588 126.948 21.48 127.556 21.48C128.076 21.48 128.552 21.548 128.984 21.684C129.424 21.82 129.816 22.02 130.16 22.284C130.512 22.548 130.808 22.876 131.048 23.268L130.328 23.928C130.064 23.48 129.696 23.132 129.224 22.884C128.752 22.628 128.196 22.5 127.556 22.5C126.964 22.5 126.428 22.64 125.948 22.92C125.468 23.2 125.084 23.588 124.796 24.084C124.516 24.572 124.376 25.144 124.376 25.8C124.376 26.448 124.516 27.02 124.796 27.516C125.084 28.012 125.468 28.4 125.948 28.68C126.428 28.96 126.964 29.1 127.556 29.1C127.972 29.1 128.344 29.04 128.672 28.92C129.008 28.792 129.296 28.616 129.536 28.392C129.776 28.168 129.972 27.912 130.124 27.624C130.284 27.336 130.4 27.028 130.472 26.7H127.676ZM135.084 30V29.04H139.32V30H135.084ZM135.084 22.56V21.6H139.32V22.56H135.084ZM135.084 25.92V24.96H139.08V25.92H135.084ZM134.52 21.6H135.54V30H134.52V21.6ZM144.058 25.86H145.198L148.198 30H146.938L144.058 25.86ZM142.558 21.6H143.578V30H142.558V21.6ZM143.122 22.5V21.6H144.838C145.382 21.6 145.866 21.704 146.29 21.912C146.722 22.112 147.062 22.4 147.31 22.776C147.566 23.152 147.694 23.6 147.694 24.12C147.694 24.632 147.566 25.08 147.31 25.464C147.062 25.84 146.722 26.132 146.29 26.34C145.866 26.54 145.382 26.64 144.838 26.64H143.122V25.74H144.838C145.198 25.74 145.514 25.676 145.786 25.548C146.066 25.42 146.282 25.236 146.434 24.996C146.594 24.756 146.674 24.464 146.674 24.12C146.674 23.776 146.594 23.484 146.434 23.244C146.282 23.004 146.066 22.82 145.786 22.692C145.514 22.564 145.198 22.5 144.838 22.5H143.122ZM150.713 21.6H151.733V30H150.713V21.6ZM155.658 30V29.04H159.894V30H155.658ZM155.658 22.56V21.6H159.894V22.56H155.658ZM155.658 25.92V24.96H159.654V25.92H155.658ZM155.094 21.6H156.114V30H155.094V21.6Z" fill="white"/>
<path d="M52.116 52.12L52.956 49.88H61.636L62.476 52.12H52.116ZM57.24 42.824L53.936 50.608L53.712 51.112L50.8 58H48.14L57.24 37.42L66.34 58H63.68L60.824 51.28L60.6 50.72L57.24 42.824ZM74.8004 44.756L73.3444 58H70.9644L73.3444 37.42L81.1844 51.616L89.0244 37.42L91.4044 58H89.0244L87.5684 44.756L81.1844 56.18L74.8004 44.756ZM99.9883 52.12L100.828 49.88H109.508L110.348 52.12H99.9883ZM105.112 42.824L101.808 50.608L101.584 51.112L98.6723 58H96.0123L105.112 37.42L114.212 58H111.552L108.696 51.28L108.472 50.72L105.112 42.824ZM134.797 38.4H137.177V58.98L122.337 43.412V58H119.957V37.42L134.797 52.988V38.4ZM145.028 38.4H147.408V58H145.028V38.4ZM150.908 58H146.344V55.62H150.908C152.009 55.62 153.017 55.452 153.932 55.116C154.846 54.7613 155.63 54.2667 156.284 53.632C156.937 52.9787 157.441 52.1947 157.796 51.28C158.15 50.3653 158.328 49.3387 158.328 48.2C158.328 47.0613 158.15 46.0347 157.796 45.12C157.441 44.2053 156.937 43.4307 156.284 42.796C155.63 42.1427 154.846 41.648 153.932 41.312C153.017 40.9573 152.009 40.78 150.908 40.78H146.344V38.4H150.908C152.812 38.4 154.501 38.8107 155.976 39.632C157.45 40.4533 158.608 41.6013 159.448 43.076C160.288 44.532 160.708 46.24 160.708 48.2C160.708 50.16 160.288 51.8773 159.448 53.352C158.608 54.808 157.45 55.9467 155.976 56.768C154.501 57.5893 152.812 58 150.908 58ZM168.735 58V55.76H178.619V58H168.735ZM168.735 40.64V38.4H178.619V40.64H168.735ZM168.735 48.48V46.24H178.059V48.48H168.735ZM167.419 38.4H169.799V58H167.419V38.4Z" fill="white"/>
<path d="M88.1426 72.1074C87.9707 72.1074 87.7881 72.0931 87.5947 72.0645C87.4014 72.043 87.2402 72.0179 87.1113 71.9893C86.8464 71.9391 86.653 71.8997 86.5312 71.8711C86.4167 71.8353 86.3092 71.8102 86.209 71.7959C86.1159 71.3519 86.0479 70.9902 86.0049 70.7109C85.9619 70.4245 85.9404 70.2168 85.9404 70.0879C85.9404 70.0449 85.9977 70.0234 86.1123 70.0234C86.2412 70.0234 86.3307 70.0557 86.3809 70.1201C86.6315 71.1514 87.2259 71.667 88.1641 71.667C88.5221 71.667 88.8265 71.5596 89.0771 71.3447C89.3278 71.1299 89.4531 70.8255 89.4531 70.4316C89.4531 70.3027 89.4245 70.1452 89.3672 69.959C89.3171 69.7728 89.1989 69.6117 89.0127 69.4756C88.8695 69.3682 88.7513 69.2894 88.6582 69.2393C88.5651 69.182 88.472 69.1318 88.3789 69.0889C88.2858 69.0387 88.1676 68.9707 88.0244 68.8848L87.5947 68.627C87.3727 68.4909 87.1507 68.3369 86.9287 68.165C86.7067 67.986 86.5205 67.7783 86.3701 67.542C86.2269 67.3057 86.1553 67.0371 86.1553 66.7363C86.1553 66.3568 86.252 66.0273 86.4453 65.748C86.6458 65.4616 86.9036 65.2396 87.2188 65.082C87.541 64.9245 87.8883 64.8457 88.2607 64.8457C88.4183 64.8457 88.5651 64.8564 88.7012 64.8779C88.8444 64.8923 88.9626 64.9102 89.0557 64.9316C89.2705 64.9818 89.4209 65.0212 89.5068 65.0498C89.5999 65.0785 89.7253 65.1107 89.8828 65.1465C89.9688 65.5189 90.0117 66.0309 90.0117 66.6826C90.0117 66.7327 89.9759 66.7578 89.9043 66.7578C89.7253 66.7578 89.6322 66.722 89.625 66.6504C89.5892 66.4355 89.5104 66.2243 89.3887 66.0166C89.2669 65.8089 89.1022 65.637 88.8945 65.501C88.6868 65.3577 88.4398 65.2861 88.1533 65.2861C87.8597 65.2861 87.6305 65.3434 87.4658 65.458C87.3011 65.5654 87.1829 65.7051 87.1113 65.877C87.0469 66.0417 87.0146 66.2171 87.0146 66.4033C87.0146 66.5824 87.0576 66.7614 87.1436 66.9404C87.2295 67.1195 87.3548 67.2699 87.5195 67.3916C87.7415 67.5563 87.9635 67.7103 88.1855 67.8535C88.4147 67.9967 88.651 68.1436 88.8945 68.2939C89.1237 68.4372 89.3529 68.5983 89.582 68.7773C89.8112 68.9492 90.001 69.1462 90.1514 69.3682C90.3089 69.5902 90.3877 69.848 90.3877 70.1416C90.3877 70.5212 90.2839 70.8613 90.0762 71.1621C89.8685 71.4557 89.5928 71.6885 89.249 71.8604C88.9124 72.0251 88.5436 72.1074 88.1426 72.1074ZM92.4811 72.0322C92.4525 72.0036 92.4382 71.9427 92.4382 71.8496C92.4382 71.7637 92.4525 71.7207 92.4811 71.7207C92.5384 71.7207 92.6172 71.71 92.7175 71.6885C92.8177 71.667 92.9108 71.6383 92.9968 71.6025C93.0827 71.5667 93.1292 71.5345 93.1364 71.5059C93.1651 71.4056 93.183 71.291 93.1901 71.1621C93.2044 71.0332 93.2116 70.8971 93.2116 70.7539V68.7236C93.2116 68.4515 93.1615 68.2581 93.0612 68.1436C92.9896 68.0505 92.9037 67.9932 92.8034 67.9717C92.7031 67.943 92.6172 67.9287 92.5456 67.9287C92.474 67.9215 92.4382 67.9108 92.4382 67.8965C92.4382 67.7246 92.4596 67.6351 92.5026 67.6279C92.8822 67.5706 93.1722 67.5241 93.3727 67.4883C93.5733 67.4453 93.7523 67.4059 93.9098 67.3701L94.0388 67.3379C94.0674 67.3307 94.0853 67.3594 94.0925 67.4238C94.0996 67.4883 94.0996 67.5348 94.0925 67.5635C94.0781 67.7067 94.0638 67.8428 94.0495 67.9717C94.0423 68.1006 94.0388 68.2223 94.0388 68.3369V70.5498C94.0388 70.7575 94.0459 70.9401 94.0602 71.0977C94.0746 71.2552 94.096 71.3913 94.1247 71.5059C94.139 71.5345 94.1891 71.5667 94.2751 71.6025C94.361 71.6383 94.4541 71.667 94.5544 71.6885C94.6546 71.71 94.7263 71.7207 94.7692 71.7207C94.7907 71.7207 94.805 71.7637 94.8122 71.8496C94.8193 71.9355 94.8158 71.9964 94.8014 72.0322L93.652 71.9785L92.4811 72.0322ZM93.5446 66.167C93.4014 66.167 93.2761 66.1133 93.1686 66.0059C93.0612 65.8984 93.0075 65.7731 93.0075 65.6299C93.0075 65.4795 93.0612 65.3542 93.1686 65.2539C93.2761 65.1465 93.4014 65.0928 93.5446 65.0928C93.695 65.0928 93.8203 65.1465 93.9206 65.2539C94.028 65.3542 94.0817 65.4795 94.0817 65.6299C94.0817 65.7731 94.028 65.8984 93.9206 66.0059C93.8203 66.1133 93.695 66.167 93.5446 66.167ZM96.7982 72.0322C96.7696 72.0036 96.7552 71.9427 96.7552 71.8496C96.7552 71.7637 96.7696 71.7207 96.7982 71.7207C96.8555 71.7207 96.9343 71.71 97.0345 71.6885C97.1348 71.667 97.2279 71.6383 97.3138 71.6025C97.3998 71.5667 97.4463 71.5345 97.4535 71.5059C97.4821 71.4056 97.5 71.291 97.5072 71.1621C97.5215 71.0332 97.5287 70.8971 97.5287 70.7539V68.7236C97.5287 68.4515 97.4785 68.2581 97.3783 68.1436C97.3067 68.0576 97.2207 68.0003 97.1205 67.9717C97.0274 67.943 96.9414 67.9287 96.8627 67.9287C96.791 67.9215 96.7552 67.9108 96.7552 67.8965C96.7552 67.7246 96.7767 67.6351 96.8197 67.6279C97.1992 67.5706 97.5072 67.5205 97.7435 67.4775C97.9798 67.4274 98.1267 67.3952 98.1839 67.3809L98.3558 67.3379C98.3845 67.3307 98.4024 67.3594 98.4095 67.4238C98.4167 67.4883 98.4167 67.5348 98.4095 67.5635C98.3952 67.6637 98.3845 67.7497 98.3773 67.8213C98.3701 67.8929 98.3666 67.9502 98.3666 67.9932C98.3666 68.0218 98.3737 68.0361 98.388 68.0361C98.3952 68.0361 98.406 68.029 98.4203 68.0146C98.585 67.8428 98.807 67.6816 99.0863 67.5312C99.3727 67.3737 99.6449 67.2949 99.9027 67.2949C100.404 67.2949 100.755 67.474 100.955 67.832C101.156 68.1901 101.256 68.7702 101.256 69.5723V70.5498C101.256 70.7575 101.263 70.9401 101.278 71.0977C101.292 71.2552 101.314 71.3913 101.342 71.5059C101.356 71.5345 101.407 71.5667 101.493 71.6025C101.578 71.6383 101.672 71.667 101.772 71.6885C101.872 71.71 101.944 71.7207 101.987 71.7207C102.008 71.7207 102.022 71.7637 102.03 71.8496C102.037 71.9355 102.033 71.9964 102.019 72.0322L100.869 71.9785L99.7416 72.0322C99.7129 72.0036 99.6986 71.9427 99.6986 71.8496C99.6986 71.7637 99.7129 71.7207 99.7416 71.7207C99.7989 71.7207 99.874 71.71 99.9671 71.6885C100.06 71.667 100.146 71.6383 100.225 71.6025C100.304 71.5667 100.347 71.5345 100.354 71.5059C100.383 71.4056 100.4 71.291 100.408 71.1621C100.422 71.0332 100.429 70.8971 100.429 70.7539V69.6797C100.429 69.0137 100.343 68.5589 100.171 68.3154C99.9994 68.0719 99.7201 67.9502 99.3334 67.9502C99.183 67.9502 99.0326 67.9932 98.8822 68.0791C98.7318 68.1579 98.6065 68.251 98.5062 68.3584C98.406 68.4658 98.3558 68.5661 98.3558 68.6592V70.5498C98.3558 70.7575 98.363 70.9401 98.3773 71.0977C98.3916 71.2552 98.4131 71.3913 98.4418 71.5059C98.4561 71.5345 98.5062 71.5667 98.5921 71.6025C98.6781 71.6383 98.7712 71.667 98.8714 71.6885C98.9717 71.71 99.0433 71.7207 99.0863 71.7207C99.1078 71.7207 99.1221 71.7637 99.1293 71.8496C99.1364 71.9355 99.1328 71.9964 99.1185 72.0322L97.9691 71.9785L96.7982 72.0322ZM106.164 72.0645C105.77 72.0645 105.409 71.9606 105.079 71.7529C104.75 71.5452 104.485 71.2695 104.284 70.9258C104.091 70.5749 103.994 70.1846 103.994 69.7549C103.994 69.3109 104.073 68.9062 104.231 68.541C104.395 68.1686 104.632 67.8714 104.939 67.6494C105.255 67.4274 105.634 67.3164 106.078 67.3164C106.866 67.3164 107.41 67.499 107.711 67.8643C107.711 68.3441 107.578 68.584 107.314 68.584C107.192 68.584 107.099 68.5589 107.034 68.5088C106.97 68.4515 106.887 68.3512 106.787 68.208C106.565 67.8786 106.3 67.7139 105.992 67.7139C105.699 67.7139 105.43 67.8535 105.187 68.1328C104.95 68.4121 104.832 68.8275 104.832 69.3789C104.832 69.9518 104.972 70.4281 105.251 70.8076C105.537 71.1872 105.931 71.377 106.433 71.377C106.733 71.377 106.984 71.334 107.185 71.248C107.392 71.1549 107.543 71.0726 107.636 71.001L107.711 70.9473C107.754 70.9473 107.775 70.9938 107.775 71.0869C107.775 71.137 107.754 71.2015 107.711 71.2803C107.568 71.4808 107.356 71.6634 107.077 71.8281C106.798 71.9857 106.494 72.0645 106.164 72.0645ZM111.835 72.0645C111.441 72.0645 111.079 71.9606 110.75 71.7529C110.42 71.5452 110.155 71.2695 109.955 70.9258C109.761 70.5749 109.665 70.1846 109.665 69.7549C109.665 69.2536 109.758 68.8203 109.944 68.4551C110.13 68.0898 110.384 67.8105 110.707 67.6172C111.029 67.4167 111.391 67.3164 111.792 67.3164C112.121 67.3164 112.411 67.3809 112.662 67.5098C112.912 67.6315 113.106 67.7891 113.242 67.9824C113.371 68.1829 113.464 68.387 113.521 68.5947C113.586 68.7952 113.618 68.9958 113.618 69.1963C113.618 69.3395 113.596 69.429 113.553 69.4648C113.51 69.4935 113.428 69.5078 113.306 69.5078H110.599C110.542 69.5078 110.513 69.5257 110.513 69.5615C110.513 69.8623 110.574 70.1523 110.696 70.4316C110.818 70.7038 110.997 70.9294 111.233 71.1084C111.469 71.2874 111.759 71.377 112.103 71.377C112.404 71.377 112.655 71.334 112.855 71.248C113.063 71.1549 113.213 71.0726 113.306 71.001L113.382 70.9473C113.425 70.9473 113.446 70.9938 113.446 71.0869C113.446 71.137 113.425 71.2015 113.382 71.2803C113.238 71.4808 113.027 71.6634 112.748 71.8281C112.468 71.9857 112.164 72.0645 111.835 72.0645ZM110.599 69.0566H112.694C112.73 69.0566 112.748 69.0208 112.748 68.9492C112.748 68.7917 112.705 68.6198 112.619 68.4336C112.54 68.2402 112.418 68.0719 112.254 67.9287C112.089 67.7855 111.881 67.7139 111.631 67.7139C111.401 67.7139 111.204 67.7926 111.04 67.9502C110.875 68.1006 110.75 68.276 110.664 68.4766C110.578 68.6699 110.535 68.8382 110.535 68.9814C110.535 69.0316 110.556 69.0566 110.599 69.0566ZM119.846 72.0322C119.817 72.0036 119.803 71.9427 119.803 71.8496C119.803 71.7637 119.817 71.7207 119.846 71.7207C119.91 71.7207 120 71.71 120.114 71.6885C120.229 71.667 120.336 71.6383 120.437 71.6025C120.537 71.5667 120.591 71.5345 120.598 71.5059C120.641 71.334 120.662 71.1299 120.662 70.8936V67.0264C120.662 66.8044 120.655 66.6325 120.641 66.5107C120.626 66.3818 120.583 66.3174 120.512 66.3174C120.462 66.3174 120.365 66.3568 120.222 66.4355C120.086 66.5143 119.953 66.5931 119.824 66.6719C119.781 66.6504 119.738 66.611 119.695 66.5537C119.652 66.4893 119.631 66.4391 119.631 66.4033C119.631 66.3747 119.638 66.3532 119.652 66.3389C120.863 65.5153 121.482 65.1035 121.511 65.1035H121.532C121.59 65.1035 121.633 65.1715 121.661 65.3076C121.59 65.5296 121.554 65.8662 121.554 66.3174V70.5498C121.554 70.7575 121.561 70.9401 121.575 71.0977C121.59 71.2552 121.611 71.3913 121.64 71.5059C121.654 71.5345 121.708 71.5667 121.801 71.6025C121.901 71.6383 122.009 71.667 122.123 71.6885C122.238 71.71 122.316 71.7207 122.359 71.7207C122.388 71.7207 122.402 71.7852 122.402 71.9141C122.402 71.9857 122.399 72.0251 122.392 72.0322C122.034 72.0179 121.747 72.0072 121.532 72C121.317 71.9857 121.171 71.9785 121.092 71.9785C121.035 71.9785 120.902 71.9857 120.694 72C120.487 72.0072 120.204 72.0179 119.846 72.0322ZM125.495 72.0645C125.452 72.0645 125.402 72.0215 125.344 71.9355C125.287 71.8496 125.259 71.7887 125.259 71.7529C125.631 71.6097 125.993 71.4056 126.344 71.1406C126.702 70.8685 127.017 70.5462 127.289 70.1738C127.568 69.7943 127.772 69.3682 127.901 68.8955C127.923 68.8239 127.919 68.7881 127.89 68.7881C127.833 68.8597 127.733 68.9277 127.59 68.9922C127.446 69.0495 127.292 69.096 127.128 69.1318C126.97 69.1676 126.827 69.1855 126.698 69.1855C126.354 69.1855 126.043 69.096 125.763 68.917C125.484 68.738 125.262 68.5016 125.097 68.208C124.933 67.9072 124.85 67.5778 124.85 67.2197C124.85 66.8187 124.951 66.457 125.151 66.1348C125.359 65.8053 125.627 65.5439 125.957 65.3506C126.293 65.1501 126.655 65.0498 127.042 65.0498C127.436 65.0498 127.783 65.1572 128.084 65.3721C128.392 65.5869 128.635 65.8698 128.814 66.2207C128.993 66.5645 129.083 66.9404 129.083 67.3486C129.083 67.9072 128.968 68.4515 128.739 68.9814C128.51 69.5114 128.216 69.9769 127.858 70.3779C127.493 70.7718 127.106 71.1156 126.698 71.4092C126.297 71.7028 125.896 71.9212 125.495 72.0645ZM127.106 68.6592C127.443 68.6592 127.697 68.5446 127.869 68.3154C128.048 68.0863 128.141 67.7819 128.148 67.4023C128.155 67.0514 128.105 66.7292 127.998 66.4355C127.89 66.1419 127.74 65.9092 127.547 65.7373C127.353 65.5583 127.128 65.4688 126.87 65.4688C126.562 65.4688 126.297 65.612 126.075 65.8984C125.853 66.1849 125.742 66.5609 125.742 67.0264C125.742 67.4919 125.86 67.8822 126.096 68.1973C126.333 68.5052 126.669 68.6592 127.106 68.6592ZM133.454 72.0967C132.859 72.0967 132.376 71.9355 132.003 71.6133C131.638 71.291 131.456 70.8685 131.456 70.3457C131.456 70.0091 131.581 69.694 131.831 69.4004C132.082 69.0996 132.422 68.8275 132.852 68.584C132.888 68.5625 132.888 68.541 132.852 68.5195C132.573 68.3548 132.318 68.1257 132.089 67.832C131.867 67.5312 131.756 67.2018 131.756 66.8438C131.756 66.5358 131.839 66.2493 132.003 65.9844C132.168 65.7194 132.386 65.5046 132.659 65.3398C132.931 65.1751 133.224 65.0928 133.539 65.0928C133.869 65.0928 134.166 65.1608 134.431 65.2969C134.696 65.4329 134.907 65.6227 135.065 65.8662C135.222 66.1097 135.301 66.3962 135.301 66.7256C135.301 67.277 134.9 67.8034 134.098 68.3047C134.069 68.3262 134.069 68.3477 134.098 68.3691C134.334 68.5052 134.56 68.6699 134.775 68.8633C134.99 69.0495 135.165 69.2572 135.301 69.4863C135.437 69.7083 135.505 69.9482 135.505 70.2061C135.505 70.557 135.409 70.8757 135.215 71.1621C135.029 71.4486 134.778 71.6777 134.463 71.8496C134.155 72.0143 133.819 72.0967 133.454 72.0967ZM133.733 68.1113C133.747 68.1113 133.769 68.1042 133.797 68.0898C134.284 67.7676 134.528 67.3307 134.528 66.7793C134.528 66.5501 134.481 66.3389 134.388 66.1455C134.302 65.945 134.18 65.7839 134.023 65.6621C133.865 65.5332 133.683 65.4688 133.475 65.4688C133.21 65.4688 132.988 65.5833 132.809 65.8125C132.637 66.0417 132.551 66.3424 132.551 66.7148C132.551 67.2018 132.924 67.6602 133.668 68.0898C133.69 68.1042 133.711 68.1113 133.733 68.1113ZM133.475 71.71C133.833 71.71 134.116 71.6025 134.324 71.3877C134.531 71.1729 134.635 70.8828 134.635 70.5176C134.635 70.2669 134.564 70.0413 134.42 69.8408C134.284 69.6331 134.13 69.4577 133.958 69.3145C133.787 69.1712 133.65 69.0674 133.55 69.0029C133.414 68.9098 133.321 68.8561 133.271 68.8418C133.228 68.8203 133.199 68.8096 133.185 68.8096C133.171 68.8096 133.149 68.8203 133.121 68.8418C133.092 68.8561 133.06 68.8776 133.024 68.9062C132.766 69.0924 132.58 69.293 132.465 69.5078C132.358 69.7155 132.304 69.984 132.304 70.3135C132.304 70.7288 132.422 71.0654 132.659 71.3232C132.895 71.5811 133.167 71.71 133.475 71.71ZM139.565 72.0537C138.927 72.0537 138.447 71.9463 138.125 71.7314C138.054 71.6813 138.018 71.5775 138.018 71.4199C138.018 71.0833 138.15 70.915 138.415 70.915C138.523 70.915 138.619 70.9688 138.705 71.0762C138.791 71.1764 138.906 71.2839 139.049 71.3984C139.257 71.5488 139.543 71.624 139.908 71.624C140.209 71.624 140.478 71.4987 140.714 71.248C140.957 70.9902 141.079 70.5964 141.079 70.0664C141.079 69.6224 140.95 69.2572 140.693 68.9707C140.442 68.6771 140.048 68.5303 139.511 68.5303C139.146 68.5303 138.834 68.5697 138.576 68.6484C138.548 68.6341 138.515 68.6162 138.48 68.5947C138.451 68.5661 138.419 68.5339 138.383 68.498L138.899 65.3076C139.6 65.2861 140.163 65.2646 140.585 65.2432C141.008 65.2145 141.287 65.1859 141.423 65.1572C141.437 65.1859 141.448 65.2217 141.455 65.2646C141.47 65.3005 141.477 65.3577 141.477 65.4365C141.477 65.5798 141.455 65.7588 141.412 65.9736C141.219 66.0309 140.814 66.0703 140.198 66.0918L139.264 66.1348C139.221 66.1491 139.196 66.1777 139.189 66.2207C139.153 66.4212 139.106 66.6647 139.049 66.9512C138.999 67.2305 138.942 67.5599 138.877 67.9395C139.106 67.8464 139.443 67.7998 139.887 67.7998C140.274 67.7998 140.624 67.8929 140.94 68.0791C141.262 68.2581 141.52 68.498 141.713 68.7988C141.906 69.0996 142.003 69.429 142.003 69.7871C142.003 70.224 141.896 70.6143 141.681 70.958C141.473 71.3018 141.187 71.5703 140.821 71.7637C140.456 71.957 140.037 72.0537 139.565 72.0537Z" fill="white"/>
<path d="M214.175 19.1149C215.495 9.97966 213.218 6.2234 206.573 1.83582C206.204 10.5427 206.589 14.912 213.484 19.1149M216.249 31.5558L203.117 17.0414M203.117 17.0414C205.412 25.668 208.364 30.016 216.249 32.2469M203.117 17.0414C210.761 19.5432 215.052 23.2061 215.558 31.2829M208.646 52.9818C209.821 44.3542 209.722 39.5139 206.573 30.8646M206.573 30.8646C205.482 37.2194 204.543 43.0396 209.11 49.0535M206.573 30.8646C212.75 35.675 212.834 41.7557 209.031 49.8369" stroke="white" stroke-linecap="round"/>
<path d="M181 70.2608C236.293 50.9083 211.411 13.5856 206.573 1.83582" stroke="white" stroke-linecap="round"/>
<path d="M221.086 57.8199L197.587 62.658M221.086 57.8199C213.483 52.9818 199.309 61.6555 200 61.5M221.086 57.8199C214.239 63.933 210.719 64.7315 201.043 61.9669M227.307 41.232C224.542 48.8348 219.705 51.5995 209.338 52.2906C212.712 50.1313 217.63 47.4525 218.667 46.7613C219.704 46.0701 227.307 41.232 227.307 41.232ZM227.307 41.232C221.086 41.9232 218.322 42.6143 211.41 50.2171M215.558 41.232L229 26.0265M229 26.0265C227.618 32.9381 224.162 37.7762 216.939 39.9918M229 26.0265C223.083 28.7276 217.985 32.8784 216.5 39.5M216.248 29.4823L225.233 10.8209M225.233 10.8209C225.28 19.5476 222.676 24.8078 216.248 30.1735M225.233 10.8209C220.362 15.8642 216.134 19.39 216.5 27.5M193.441 64.7316C198.643 56.2307 200.047 51.8325 201.735 41.9232M207.264 70.952C203.544 67.8466 197.552 65.6482 184.456 69.3003H184.067C195.665 74.6223 200.986 76.1598 207.264 70.952ZM207.264 70.952L185.147 69.5697M195.935 59.8934C195.32 52.8917 196.907 47.0954 201.735 41.232C204.866 51.8861 203.769 55.9594 195.935 59.8934Z" stroke="white" stroke-linecap="round"/>
</svg>
