<svg width="463" height="119" viewBox="0 0 463 119" fill="none" xmlns="http://www.w3.org/2000/svg">
<mask id="path-1-inside-1_262_727" fill="white">
<path d="M0 0H463V40H0V0Z"/>
</mask>
<path d="M0 40V40.5H0.997845V40V39.5H0V40ZM2.99353 40V40.5H4.98922V40V39.5H2.99353V40ZM6.98491 40V40.5H8.9806V40V39.5H6.98491V40ZM10.9763 40V40.5H12.972V40V39.5H10.9763V40ZM14.9677 40V40.5H16.9634V40V39.5H14.9677V40ZM18.9591 40V40.5H20.9547V40V39.5H18.9591V40ZM22.9504 40V40.5H24.9461V40V39.5H22.9504V40ZM26.9418 40V40.5H28.9375V40V39.5H26.9418V40ZM30.9332 40V40.5H32.9289V40V39.5H30.9332V40ZM34.9246 40V40.5H36.9203V40V39.5H34.9246V40ZM38.9159 40V40.5H40.9116V40V39.5H38.9159V40ZM42.9073 40V40.5H44.903V40V39.5H42.9073V40ZM46.8987 40V40.5H48.8944V40V39.5H46.8987V40ZM50.8901 40V40.5H52.8858V40V39.5H50.8901V40ZM54.8815 40V40.5H56.8772V40V39.5H54.8815V40ZM58.8728 40V40.5H60.8685V40V39.5H58.8728V40ZM62.8642 40V40.5H64.8599V40V39.5H62.8642V40ZM66.8556 40V40.5H68.8513V40V39.5H66.8556V40ZM70.847 40V40.5H72.8427V40V39.5H70.847V40ZM74.8384 40V40.5H76.834V40V39.5H74.8384V40ZM78.8297 40V40.5H80.8254V40V39.5H78.8297V40ZM82.8211 40V40.5H84.8168V40V39.5H82.8211V40ZM86.8125 40V40.5H88.8082V40V39.5H86.8125V40ZM90.8039 40V40.5H92.7996V40V39.5H90.8039V40ZM94.7952 40V40.5H96.7909V40V39.5H94.7952V40ZM98.7866 40V40.5H100.782V40V39.5H98.7866V40ZM102.778 40V40.5H104.774V40V39.5H102.778V40ZM106.769 40V40.5H108.765V40V39.5H106.769V40ZM110.761 40V40.5H112.756V40V39.5H110.761V40ZM114.752 40V40.5H116.748V40V39.5H114.752V40ZM118.744 40V40.5H120.739V40V39.5H118.744V40ZM122.735 40V40.5H124.731V40V39.5H122.735V40ZM126.726 40V40.5H128.722V40V39.5H126.726V40ZM130.718 40V40.5H132.713V40V39.5H130.718V40ZM134.709 40V40.5H136.705V40V39.5H134.709V40ZM138.7 40V40.5H140.696V40V39.5H138.7V40ZM142.692 40V40.5H144.688V40V39.5H142.692V40ZM146.683 40V40.5H148.679V40V39.5H146.683V40ZM150.675 40V40.5H152.67V40V39.5H150.675V40ZM154.666 40V40.5H156.662V40V39.5H154.666V40ZM158.657 40V40.5H160.653V40V39.5H158.657V40ZM162.649 40V40.5H164.645V40V39.5H162.649V40ZM166.64 40V40.5H168.636V40V39.5H166.64V40ZM170.632 40V40.5H172.627V40V39.5H170.632V40ZM174.623 40V40.5H176.619V40V39.5H174.623V40ZM178.614 40V40.5H180.61V40V39.5H178.614V40ZM182.606 40V40.5H184.601V40V39.5H182.606V40ZM186.597 40V40.5H188.593V40V39.5H186.597V40ZM190.589 40V40.5H192.584V40V39.5H190.589V40ZM194.58 40V40.5H196.576V40V39.5H194.58V40ZM198.571 40V40.5H200.567V40V39.5H198.571V40ZM202.563 40V40.5H204.558V40V39.5H202.563V40ZM206.554 40V40.5H208.55V40V39.5H206.554V40ZM210.546 40V40.5H212.541V40V39.5H210.546V40ZM214.537 40V40.5H216.533V40V39.5H214.537V40ZM218.528 40V40.5H220.524V40V39.5H218.528V40ZM222.52 40V40.5H224.515V40V39.5H222.52V40ZM226.511 40V40.5H228.507V40V39.5H226.511V40ZM230.503 40V40.5H232.498V40V39.5H230.503V40ZM234.494 40V40.5H236.49V40V39.5H234.494V40ZM238.485 40V40.5H240.481V40V39.5H238.485V40ZM242.477 40V40.5H244.472V40V39.5H242.477V40ZM246.468 40V40.5H248.464V40V39.5H246.468V40ZM250.459 40V40.5H252.455V40V39.5H250.459V40ZM254.451 40V40.5H256.447V40V39.5H254.451V40ZM258.442 40V40.5H260.438V40V39.5H258.442V40ZM262.434 40V40.5H264.429V40V39.5H262.434V40ZM266.425 40V40.5H268.421V40V39.5H266.425V40ZM270.416 40V40.5H272.412V40V39.5H270.416V40ZM274.408 40V40.5H276.404V40V39.5H274.408V40ZM278.399 40V40.5H280.395V40V39.5H278.399V40ZM282.391 40V40.5H284.386V40V39.5H282.391V40ZM286.382 40V40.5H288.378V40V39.5H286.382V40ZM290.373 40V40.5H292.369V40V39.5H290.373V40ZM294.365 40V40.5H296.361V40V39.5H294.365V40ZM298.356 40V40.5H300.352V40V39.5H298.356V40ZM302.348 40V40.5H304.343V40V39.5H302.348V40ZM306.339 40V40.5H308.335V40V39.5H306.339V40ZM310.33 40V40.5H312.326V40V39.5H310.33V40ZM314.322 40V40.5H316.317V40V39.5H314.322V40ZM318.313 40V40.5H320.309V40V39.5H318.313V40ZM322.305 40V40.5H324.3V40V39.5H322.305V40ZM326.296 40V40.5H328.292V40V39.5H326.296V40ZM330.287 40V40.5H332.283V40V39.5H330.287V40ZM334.279 40V40.5H336.274V40V39.5H334.279V40ZM338.27 40V40.5H340.266V40V39.5H338.27V40ZM342.262 40V40.5H344.257V40V39.5H342.262V40ZM346.253 40V40.5H348.249V40V39.5H346.253V40ZM350.244 40V40.5H352.24V40V39.5H350.244V40ZM354.236 40V40.5H356.231V40V39.5H354.236V40ZM358.227 40V40.5H360.223V40V39.5H358.227V40ZM362.219 40V40.5H364.214V40V39.5H362.219V40ZM366.21 40V40.5H368.206V40V39.5H366.21V40ZM370.201 40V40.5H372.197V40V39.5H370.201V40ZM374.193 40V40.5H376.188V40V39.5H374.193V40ZM378.184 40V40.5H380.18V40V39.5H378.184V40ZM382.175 40V40.5H384.171V40V39.5H382.175V40ZM386.167 40V40.5H388.163V40V39.5H386.167V40ZM390.158 40V40.5H392.154V40V39.5H390.158V40ZM394.15 40V40.5H396.145V40V39.5H394.15V40ZM398.141 40V40.5H400.137V40V39.5H398.141V40ZM402.132 40V40.5H404.128V40V39.5H402.132V40ZM406.124 40V40.5H408.12V40V39.5H406.124V40ZM410.115 40V40.5H412.111V40V39.5H410.115V40ZM414.107 40V40.5H416.102V40V39.5H414.107V40ZM418.098 40V40.5H420.094V40V39.5H418.098V40ZM422.089 40V40.5H424.085V40V39.5H422.089V40ZM426.081 40V40.5H428.077V40V39.5H426.081V40ZM430.072 40V40.5H432.068V40V39.5H430.072V40ZM434.064 40V40.5H436.059V40V39.5H434.064V40ZM438.055 40V40.5H440.051V40V39.5H438.055V40ZM442.046 40V40.5H444.042V40V39.5H442.046V40ZM446.038 40V40.5H448.033V40V39.5H446.038V40ZM450.029 40V40.5H452.025V40V39.5H450.029V40ZM454.021 40V40.5H456.016V40V39.5H454.021V40ZM458.012 40V40.5H460.008V40V39.5H458.012V40ZM462.003 40V40.5H463V40V39.5H462.003V40ZM0 40V41H0.997845V40V39H0V40ZM2.99353 40V41H4.98922V40V39H2.99353V40ZM6.98491 40V41H8.9806V40V39H6.98491V40ZM10.9763 40V41H12.972V40V39H10.9763V40ZM14.9677 40V41H16.9634V40V39H14.9677V40ZM18.9591 40V41H20.9547V40V39H18.9591V40ZM22.9504 40V41H24.9461V40V39H22.9504V40ZM26.9418 40V41H28.9375V40V39H26.9418V40ZM30.9332 40V41H32.9289V40V39H30.9332V40ZM34.9246 40V41H36.9203V40V39H34.9246V40ZM38.9159 40V41H40.9116V40V39H38.9159V40ZM42.9073 40V41H44.903V40V39H42.9073V40ZM46.8987 40V41H48.8944V40V39H46.8987V40ZM50.8901 40V41H52.8858V40V39H50.8901V40ZM54.8815 40V41H56.8772V40V39H54.8815V40ZM58.8728 40V41H60.8685V40V39H58.8728V40ZM62.8642 40V41H64.8599V40V39H62.8642V40ZM66.8556 40V41H68.8513V40V39H66.8556V40ZM70.847 40V41H72.8427V40V39H70.847V40ZM74.8384 40V41H76.834V40V39H74.8384V40ZM78.8297 40V41H80.8254V40V39H78.8297V40ZM82.8211 40V41H84.8168V40V39H82.8211V40ZM86.8125 40V41H88.8082V40V39H86.8125V40ZM90.8039 40V41H92.7996V40V39H90.8039V40ZM94.7952 40V41H96.7909V40V39H94.7952V40ZM98.7866 40V41H100.782V40V39H98.7866V40ZM102.778 40V41H104.774V40V39H102.778V40ZM106.769 40V41H108.765V40V39H106.769V40ZM110.761 40V41H112.756V40V39H110.761V40ZM114.752 40V41H116.748V40V39H114.752V40ZM118.744 40V41H120.739V40V39H118.744V40ZM122.735 40V41H124.731V40V39H122.735V40ZM126.726 40V41H128.722V40V39H126.726V40ZM130.718 40V41H132.713V40V39H130.718V40ZM134.709 40V41H136.705V40V39H134.709V40ZM138.7 40V41H140.696V40V39H138.7V40ZM142.692 40V41H144.688V40V39H142.692V40ZM146.683 40V41H148.679V40V39H146.683V40ZM150.675 40V41H152.67V40V39H150.675V40ZM154.666 40V41H156.662V40V39H154.666V40ZM158.657 40V41H160.653V40V39H158.657V40ZM162.649 40V41H164.645V40V39H162.649V40ZM166.64 40V41H168.636V40V39H166.64V40ZM170.632 40V41H172.627V40V39H170.632V40ZM174.623 40V41H176.619V40V39H174.623V40ZM178.614 40V41H180.61V40V39H178.614V40ZM182.606 40V41H184.601V40V39H182.606V40ZM186.597 40V41H188.593V40V39H186.597V40ZM190.589 40V41H192.584V40V39H190.589V40ZM194.58 40V41H196.576V40V39H194.58V40ZM198.571 40V41H200.567V40V39H198.571V40ZM202.563 40V41H204.558V40V39H202.563V40ZM206.554 40V41H208.55V40V39H206.554V40ZM210.546 40V41H212.541V40V39H210.546V40ZM214.537 40V41H216.533V40V39H214.537V40ZM218.528 40V41H220.524V40V39H218.528V40ZM222.52 40V41H224.515V40V39H222.52V40ZM226.511 40V41H228.507V40V39H226.511V40ZM230.503 40V41H232.498V40V39H230.503V40ZM234.494 40V41H236.49V40V39H234.494V40ZM238.485 40V41H240.481V40V39H238.485V40ZM242.477 40V41H244.472V40V39H242.477V40ZM246.468 40V41H248.464V40V39H246.468V40ZM250.459 40V41H252.455V40V39H250.459V40ZM254.451 40V41H256.447V40V39H254.451V40ZM258.442 40V41H260.438V40V39H258.442V40ZM262.434 40V41H264.429V40V39H262.434V40ZM266.425 40V41H268.421V40V39H266.425V40ZM270.416 40V41H272.412V40V39H270.416V40ZM274.408 40V41H276.404V40V39H274.408V40ZM278.399 40V41H280.395V40V39H278.399V40ZM282.391 40V41H284.386V40V39H282.391V40ZM286.382 40V41H288.378V40V39H286.382V40ZM290.373 40V41H292.369V40V39H290.373V40ZM294.365 40V41H296.361V40V39H294.365V40ZM298.356 40V41H300.352V40V39H298.356V40ZM302.348 40V41H304.343V40V39H302.348V40ZM306.339 40V41H308.335V40V39H306.339V40ZM310.33 40V41H312.326V40V39H310.33V40ZM314.322 40V41H316.317V40V39H314.322V40ZM318.313 40V41H320.309V40V39H318.313V40ZM322.305 40V41H324.3V40V39H322.305V40ZM326.296 40V41H328.292V40V39H326.296V40ZM330.287 40V41H332.283V40V39H330.287V40ZM334.279 40V41H336.274V40V39H334.279V40ZM338.27 40V41H340.266V40V39H338.27V40ZM342.262 40V41H344.257V40V39H342.262V40ZM346.253 40V41H348.249V40V39H346.253V40ZM350.244 40V41H352.24V40V39H350.244V40ZM354.236 40V41H356.231V40V39H354.236V40ZM358.227 40V41H360.223V40V39H358.227V40ZM362.219 40V41H364.214V40V39H362.219V40ZM366.21 40V41H368.206V40V39H366.21V40ZM370.201 40V41H372.197V40V39H370.201V40ZM374.193 40V41H376.188V40V39H374.193V40ZM378.184 40V41H380.18V40V39H378.184V40ZM382.175 40V41H384.171V40V39H382.175V40ZM386.167 40V41H388.163V40V39H386.167V40ZM390.158 40V41H392.154V40V39H390.158V40ZM394.15 40V41H396.145V40V39H394.15V40ZM398.141 40V41H400.137V40V39H398.141V40ZM402.132 40V41H404.128V40V39H402.132V40ZM406.124 40V41H408.12V40V39H406.124V40ZM410.115 40V41H412.111V40V39H410.115V40ZM414.107 40V41H416.102V40V39H414.107V40ZM418.098 40V41H420.094V40V39H418.098V40ZM422.089 40V41H424.085V40V39H422.089V40ZM426.081 40V41H428.077V40V39H426.081V40ZM430.072 40V41H432.068V40V39H430.072V40ZM434.064 40V41H436.059V40V39H434.064V40ZM438.055 40V41H440.051V40V39H438.055V40ZM442.046 40V41H444.042V40V39H442.046V40ZM446.038 40V41H448.033V40V39H446.038V40ZM450.029 40V41H452.025V40V39H450.029V40ZM454.021 40V41H456.016V40V39H454.021V40ZM458.012 40V41H460.008V40V39H458.012V40ZM462.003 40V41H463V40V39H462.003V40Z" fill="white" mask="url(#path-1-inside-1_262_727)"/>
<path d="M4.976 6.304V8.144H11.168V6.304H4.976ZM3.84 5.36H12.336V9.072H3.84V5.36ZM7.232 8.624L8.56 8.752C8.41067 9.14667 8.256 9.54133 8.096 9.936C7.94667 10.3307 7.808 10.672 7.68 10.96L6.624 10.784C6.73067 10.4747 6.84267 10.1173 6.96 9.712C7.088 9.296 7.17867 8.93333 7.232 8.624ZM2.72 10.368H13.6V15.28H12.416V11.424H3.872V15.296H2.72V10.368ZM3.328 13.616H12.944V14.672H3.328V13.616ZM1.472 3.088H14.736V6.256H13.568V4.144H2.576V6.256H1.472V3.088ZM12.528 0.688L13.76 1.12C13.44 1.55733 13.0987 2.00533 12.736 2.464C12.3733 2.912 12.032 3.296 11.712 3.616L10.768 3.216C10.96 2.98133 11.1627 2.72 11.376 2.432C11.6 2.144 11.8133 1.84533 12.016 1.536C12.2187 1.22667 12.3893 0.944 12.528 0.688ZM2.432 1.232L3.456 0.783999C3.744 1.09333 4.032 1.44533 4.32 1.84C4.608 2.23467 4.816 2.58133 4.944 2.88L3.872 3.392C3.744 3.09333 3.54133 2.74133 3.264 2.336C2.98667 1.92 2.70933 1.552 2.432 1.232ZM6.416 0.912L7.456 0.527999C7.712 0.869332 7.96267 1.25333 8.208 1.68C8.45333 2.10667 8.62933 2.47467 8.736 2.784L7.648 3.216C7.552 2.896 7.38667 2.51733 7.152 2.08C6.91733 1.64267 6.672 1.25333 6.416 0.912ZM17.664 10.432H31.68V11.456H17.664V10.432ZM17.712 3.408H31.616V4.432H17.712V3.408ZM18.368 6.16H31.04V7.152H18.368V6.16ZM19.168 8.32H30.256V9.248H19.168V8.32ZM24.016 6.624H25.216V15.28H24.016V6.624ZM22.544 0.544H23.68V3.904H22.544V0.544ZM25.584 0.544H26.736V3.84H25.584V0.544ZM23.632 10.848L24.592 11.296C24.1013 11.84 23.4933 12.3573 22.768 12.848C22.0427 13.328 21.2693 13.7493 20.448 14.112C19.6267 14.4853 18.816 14.784 18.016 15.008C17.9627 14.9013 17.888 14.784 17.792 14.656C17.7067 14.5387 17.616 14.416 17.52 14.288C17.424 14.1707 17.328 14.0747 17.232 14C18.0213 13.8187 18.8213 13.568 19.632 13.248C20.4427 12.928 21.2 12.56 21.904 12.144C22.608 11.728 23.184 11.296 23.632 10.848ZM25.584 10.816C25.9253 11.168 26.336 11.5093 26.816 11.84C27.3067 12.1707 27.84 12.4747 28.416 12.752C29.0027 13.0293 29.6053 13.2747 30.224 13.488C30.8427 13.6907 31.456 13.8613 32.064 14C31.9787 14.0853 31.8827 14.1867 31.776 14.304C31.68 14.432 31.584 14.56 31.488 14.688C31.392 14.8267 31.3173 14.9493 31.264 15.056C30.656 14.8853 30.0373 14.672 29.408 14.416C28.7893 14.16 28.1867 13.8667 27.6 13.536C27.024 13.2053 26.48 12.8427 25.968 12.448C25.4667 12.0533 25.0293 11.6427 24.656 11.216L25.584 10.816ZM29.296 0.751999L30.528 1.088C30.2933 1.51467 30.0427 1.952 29.776 2.4C29.5093 2.83733 29.264 3.216 29.04 3.536L28.064 3.2C28.2133 2.976 28.3627 2.72 28.512 2.432C28.672 2.144 28.8213 1.85067 28.96 1.552C29.0987 1.25333 29.2107 0.986666 29.296 0.751999ZM27.152 4.128L28.384 4.448C28.192 4.8 27.9947 5.152 27.792 5.504C27.5893 5.84533 27.3973 6.14933 27.216 6.416L26.224 6.112C26.384 5.824 26.5493 5.49333 26.72 5.12C26.9013 4.74667 27.0453 4.416 27.152 4.128ZM19.008 1.072L20.032 0.719999C20.3093 1.072 20.576 1.472 20.832 1.92C21.0987 2.368 21.2907 2.75733 21.408 3.088L20.32 3.504C20.2133 3.17333 20.032 2.77867 19.776 2.32C19.5307 1.86133 19.2747 1.44533 19.008 1.072ZM21.104 4.544L22.24 4.336C22.4213 4.592 22.592 4.88533 22.752 5.216C22.9227 5.536 23.04 5.81867 23.104 6.064L21.92 6.304C21.856 6.06933 21.744 5.78667 21.584 5.456C21.4347 5.11467 21.2747 4.81067 21.104 4.544ZM40.016 2.464H48.032V3.536H40.016V2.464ZM39.344 5.568H48.704V6.656H39.344V5.568ZM39.424 8.464H48.544V9.536H39.424V8.464ZM43.376 0.544H44.56V6.24H43.376V0.544ZM45.488 6.48H46.672V13.856C46.672 14.1973 46.624 14.4587 46.528 14.64C46.432 14.832 46.2613 14.9707 46.016 15.056C45.76 15.152 45.424 15.2107 45.008 15.232C44.592 15.2533 44.0587 15.264 43.408 15.264C43.3867 15.104 43.3333 14.912 43.248 14.688C43.1733 14.4747 43.0933 14.288 43.008 14.128C43.4987 14.1387 43.9467 14.144 44.352 14.144C44.7573 14.1547 45.024 14.1547 45.152 14.144C45.28 14.144 45.3653 14.1227 45.408 14.08C45.4613 14.0373 45.488 13.9573 45.488 13.84V6.48ZM40.4 10.656L41.36 10.096C41.6267 10.3627 41.8987 10.6613 42.176 10.992C42.4533 11.3227 42.704 11.648 42.928 11.968C43.1627 12.288 43.3387 12.5813 43.456 12.848L42.432 13.472C42.3147 13.2053 42.144 12.912 41.92 12.592C41.7067 12.2613 41.4667 11.9307 41.2 11.6C40.9333 11.2587 40.6667 10.944 40.4 10.656ZM35.072 1.6H39.072V12.128H35.072V11.04H37.936V2.704H35.072V1.6ZM35.12 6.256H38.464V7.344H35.12V6.256ZM34.496 1.6H35.616V13.44H34.496V1.6ZM55.488 10.368H60.336V11.296H55.488V10.368ZM55.424 7.952H60.88V13.792H55.424V12.848H59.76V8.896H55.424V7.952ZM54.912 7.952H56V14.608H54.912V7.952ZM51.952 3.52H56.4V4.4H51.952V3.52ZM59.328 3.52H63.872V4.4H59.328V3.52ZM63.36 1.248H64.576V13.696C64.576 14.0693 64.5227 14.3627 64.416 14.576C64.32 14.7893 64.1387 14.9493 63.872 15.056C63.616 15.1627 63.264 15.2267 62.816 15.248C62.3787 15.2693 61.8293 15.28 61.168 15.28C61.1467 15.1627 61.1147 15.0293 61.072 14.88C61.0293 14.7307 60.976 14.5813 60.912 14.432C60.8587 14.2827 60.8053 14.1547 60.752 14.048C61.072 14.0587 61.3813 14.064 61.68 14.064C61.9893 14.064 62.2613 14.064 62.496 14.064C62.7307 14.064 62.896 14.064 62.992 14.064C63.1307 14.0533 63.2267 14.0213 63.28 13.968C63.3333 13.9147 63.36 13.8187 63.36 13.68V1.248ZM52.048 1.248H57.168V6.736H52.048V5.824H56.048V2.176H52.048V1.248ZM63.968 1.248V2.176H59.76V5.84H63.968V6.768H58.624V1.248H63.968ZM51.36 1.248H52.56V15.296H51.36V1.248Z" fill="white"/>
<path d="M129.064 1.408H137.4V2.576H129.064V1.408ZM129.064 5.264H137.48V6.4H129.064V5.264ZM128.936 9.12H137.4V10.288H128.936V9.12ZM128.312 1.408H129.528V6.336C129.528 7.02933 129.491 7.77067 129.416 8.56C129.352 9.34933 129.213 10.1493 129 10.96C128.787 11.76 128.467 12.5333 128.04 13.28C127.624 14.0267 127.069 14.6987 126.376 15.296C126.323 15.2107 126.237 15.1093 126.12 14.992C126.013 14.8747 125.901 14.7627 125.784 14.656C125.667 14.56 125.56 14.4853 125.464 14.432C126.115 13.856 126.627 13.2373 127 12.576C127.384 11.904 127.667 11.2107 127.848 10.496C128.04 9.78133 128.163 9.072 128.216 8.368C128.28 7.65333 128.312 6.976 128.312 6.336V1.408ZM136.872 1.408H138.136V13.504C138.136 13.9307 138.072 14.256 137.944 14.48C137.816 14.704 137.603 14.8693 137.304 14.976C136.995 15.0827 136.563 15.1467 136.008 15.168C135.453 15.2 134.749 15.216 133.896 15.216C133.875 15.088 133.832 14.9493 133.768 14.8C133.715 14.6507 133.651 14.496 133.576 14.336C133.512 14.1867 133.448 14.0587 133.384 13.952C133.832 13.9627 134.259 13.9733 134.664 13.984C135.08 13.984 135.437 13.984 135.736 13.984C136.045 13.9733 136.259 13.968 136.376 13.968C136.568 13.9573 136.696 13.92 136.76 13.856C136.835 13.7813 136.872 13.6587 136.872 13.488V1.408Z" fill="white"/>
<path d="M176.216 3.808L177.416 4.064C177.32 4.69333 177.187 5.32267 177.016 5.952C176.845 6.57067 176.611 7.14667 176.312 7.68C176.024 8.20267 175.64 8.64533 175.16 9.008L174.12 8.304C174.557 7.984 174.915 7.584 175.192 7.104C175.469 6.624 175.688 6.10133 175.848 5.536C176.019 4.97067 176.141 4.39467 176.216 3.808ZM186.264 3.776L187.56 4.288C187.304 4.78933 187.021 5.312 186.712 5.856C186.413 6.4 186.109 6.928 185.8 7.44C185.501 7.94133 185.213 8.384 184.936 8.768L183.928 8.288C184.195 7.89333 184.472 7.43467 184.76 6.912C185.059 6.38933 185.336 5.856 185.592 5.312C185.859 4.75733 186.083 4.24533 186.264 3.776ZM180.936 0.783999H181.576V5.968C181.576 6.27733 181.613 6.65067 181.688 7.088C181.763 7.51467 181.891 7.984 182.072 8.496C182.253 8.99733 182.504 9.51467 182.824 10.048C183.155 10.5707 183.565 11.088 184.056 11.6C184.547 12.112 185.139 12.592 185.832 13.04C186.525 13.4773 187.336 13.8613 188.264 14.192C188.179 14.2773 188.083 14.384 187.976 14.512C187.88 14.6507 187.784 14.7893 187.688 14.928C187.592 15.0667 187.512 15.1893 187.448 15.296C186.52 14.944 185.709 14.528 185.016 14.048C184.323 13.568 183.731 13.0613 183.24 12.528C182.749 11.9947 182.344 11.4613 182.024 10.928C181.704 10.3947 181.459 9.89867 181.288 9.44C181.117 8.98133 180.995 8.60267 180.92 8.304C180.856 8.61333 180.739 8.992 180.568 9.44C180.408 9.888 180.173 10.3733 179.864 10.896C179.565 11.4187 179.176 11.9467 178.696 12.48C178.227 13.0133 177.651 13.52 176.968 14C176.296 14.4907 175.507 14.9227 174.6 15.296C174.557 15.2107 174.483 15.104 174.376 14.976C174.28 14.8587 174.179 14.736 174.072 14.608C173.965 14.48 173.869 14.3733 173.784 14.288C174.861 13.8827 175.773 13.3973 176.52 12.832C177.277 12.256 177.901 11.6533 178.392 11.024C178.883 10.384 179.267 9.74933 179.544 9.12C179.821 8.49067 180.013 7.904 180.12 7.36C180.227 6.816 180.28 6.35733 180.28 5.984V0.783999H180.936Z" fill="white"/>
<path d="M221.88 4.656H226.68V5.872H221.88V4.656ZM228.392 0.591999H229.656V13.584C229.656 14.0107 229.592 14.3307 229.464 14.544C229.347 14.7573 229.155 14.9227 228.888 15.04C228.621 15.136 228.248 15.2 227.768 15.232C227.288 15.2747 226.68 15.296 225.944 15.296C225.923 15.168 225.885 15.024 225.832 14.864C225.779 14.7147 225.72 14.56 225.656 14.4C225.592 14.24 225.523 14.1013 225.448 13.984C226.035 13.9947 226.557 14 227.016 14C227.485 14.0107 227.8 14.0107 227.96 14C228.12 13.9893 228.232 13.9573 228.296 13.904C228.36 13.84 228.392 13.7333 228.392 13.584V0.591999ZM226.264 4.656H226.52L226.744 4.608L227.56 4.928C227.283 6.32533 226.893 7.58933 226.392 8.72C225.891 9.85067 225.304 10.8373 224.632 11.68C223.96 12.5227 223.229 13.2053 222.44 13.728C222.376 13.632 222.285 13.5253 222.168 13.408C222.051 13.28 221.928 13.1573 221.8 13.04C221.672 12.9227 221.56 12.8373 221.464 12.784C222.232 12.304 222.936 11.6853 223.576 10.928C224.216 10.1707 224.765 9.29067 225.224 8.288C225.693 7.27467 226.04 6.16 226.264 4.944V4.656ZM229.576 3.216C229.853 4.28267 230.205 5.31733 230.632 6.32C231.059 7.32267 231.56 8.256 232.136 9.12C232.712 9.97333 233.368 10.7307 234.104 11.392C234.84 12.0533 235.656 12.576 236.552 12.96C236.456 13.0347 236.349 13.136 236.232 13.264C236.115 13.392 236.003 13.5253 235.896 13.664C235.789 13.8027 235.699 13.9307 235.624 14.048C234.408 13.4507 233.347 12.624 232.44 11.568C231.544 10.5013 230.781 9.27467 230.152 7.888C229.533 6.49067 229.027 5.00267 228.632 3.424L229.576 3.216ZM234.808 3.152L235.912 3.936C235.475 4.42667 234.989 4.93867 234.456 5.472C233.933 5.99467 233.405 6.496 232.872 6.976C232.339 7.456 231.837 7.87733 231.368 8.24L230.52 7.568C230.979 7.19467 231.469 6.75733 231.992 6.256C232.525 5.744 233.037 5.22133 233.528 4.688C234.029 4.144 234.456 3.632 234.808 3.152Z" fill="white"/>
<path d="M270.072 4.496H283.96V5.696H270.072V4.496ZM276.36 0.575999H277.624V15.28H276.36V0.575999ZM276.088 5.104L277.128 5.472C276.755 6.304 276.317 7.11467 275.816 7.904C275.315 8.69333 274.771 9.44533 274.184 10.16C273.597 10.864 272.979 11.5093 272.328 12.096C271.688 12.672 271.027 13.1627 270.344 13.568C270.28 13.4613 270.189 13.3493 270.072 13.232C269.965 13.104 269.859 12.9813 269.752 12.864C269.645 12.7467 269.544 12.6453 269.448 12.56C270.109 12.1973 270.76 11.7493 271.4 11.216C272.051 10.6827 272.664 10.0853 273.24 9.424C273.827 8.752 274.36 8.05333 274.84 7.328C275.331 6.592 275.747 5.85067 276.088 5.104ZM277.864 5.136C278.216 5.85067 278.637 6.57067 279.128 7.296C279.619 8.01067 280.157 8.69867 280.744 9.36C281.341 10.0213 281.96 10.6187 282.6 11.152C283.24 11.6853 283.88 12.1333 284.52 12.496C284.424 12.5707 284.317 12.672 284.2 12.8C284.083 12.9173 283.971 13.04 283.864 13.168C283.757 13.296 283.672 13.4187 283.608 13.536C282.957 13.12 282.312 12.624 281.672 12.048C281.032 11.4613 280.413 10.816 279.816 10.112C279.229 9.39733 278.68 8.65067 278.168 7.872C277.667 7.08267 277.224 6.29333 276.84 5.504L277.864 5.136Z" fill="white"/>
<path d="M324.936 1.712C324.499 2.34133 323.933 2.99733 323.24 3.68C322.557 4.352 321.795 4.99733 320.952 5.616C320.12 6.23467 319.251 6.784 318.344 7.264C318.291 7.168 318.221 7.06133 318.136 6.944C318.051 6.82667 317.96 6.71467 317.864 6.608C317.779 6.49067 317.688 6.38933 317.592 6.304C318.52 5.84533 319.411 5.296 320.264 4.656C321.128 4.00533 321.907 3.32267 322.6 2.608C323.293 1.89333 323.848 1.20533 324.264 0.544H325.48C325.907 1.10933 326.392 1.66933 326.936 2.224C327.48 2.77867 328.056 3.30133 328.664 3.792C329.283 4.272 329.912 4.70933 330.552 5.104C331.203 5.49867 331.843 5.83467 332.472 6.112C332.323 6.26133 332.179 6.432 332.04 6.624C331.901 6.816 331.779 7.00267 331.672 7.184C331.064 6.864 330.44 6.496 329.8 6.08C329.16 5.65333 328.536 5.2 327.928 4.72C327.331 4.22933 326.776 3.73333 326.264 3.232C325.752 2.72 325.309 2.21333 324.936 1.712ZM320.984 5.44H329V6.512H320.984V5.44ZM318.904 8.656H331.08V9.712H318.904V8.656ZM318.168 13.712H331.848V14.768H318.168V13.712ZM324.296 5.856H325.56V14.256H324.296V5.856ZM320.232 10.528L321.208 10.144C321.432 10.432 321.645 10.752 321.848 11.104C322.061 11.4453 322.248 11.7867 322.408 12.128C322.568 12.4587 322.68 12.7573 322.744 13.024L321.704 13.472C321.64 13.2053 321.533 12.9013 321.384 12.56C321.235 12.2187 321.059 11.872 320.856 11.52C320.653 11.168 320.445 10.8373 320.232 10.528ZM328.616 10.112L329.752 10.56C329.443 11.0613 329.112 11.584 328.76 12.128C328.419 12.6613 328.093 13.1093 327.784 13.472L326.888 13.088C327.08 12.8213 327.283 12.5173 327.496 12.176C327.709 11.824 327.912 11.4667 328.104 11.104C328.307 10.7413 328.477 10.4107 328.616 10.112Z" fill="white"/>
<path d="M366.856 5.712H379.16V6.88H366.856V5.712ZM365.832 13.392H380.184V14.56H365.832V13.392ZM372.328 0.608H373.608V14.144H372.328V0.608Z" fill="white"/>
<path d="M415.816 1.648H426.312V15.024H425.032V2.848H417.048V15.104H415.816V1.648ZM416.648 7.184H425.576V8.368H416.648V7.184ZM416.616 12.864H425.592V14.064H416.616V12.864ZM437.64 6.224C437.96 6.224 438.248 6.29867 438.504 6.448C438.76 6.59733 438.963 6.8 439.112 7.056C439.261 7.312 439.336 7.6 439.336 7.92C439.336 8.22933 439.261 8.51733 439.112 8.784C438.963 9.04 438.76 9.24267 438.504 9.392C438.248 9.54133 437.96 9.616 437.64 9.616C437.331 9.616 437.043 9.54133 436.776 9.392C436.52 9.24267 436.317 9.04 436.168 8.784C436.019 8.51733 435.944 8.22933 435.944 7.92C435.944 7.6 436.019 7.312 436.168 7.056C436.317 6.8 436.52 6.59733 436.776 6.448C437.043 6.29867 437.331 6.224 437.64 6.224ZM457.784 7.632H458.952V13.616C458.952 13.8507 458.979 14 459.032 14.064C459.085 14.128 459.203 14.16 459.384 14.16C459.437 14.16 459.533 14.16 459.672 14.16C459.821 14.16 459.971 14.16 460.12 14.16C460.28 14.16 460.392 14.16 460.456 14.16C460.584 14.16 460.675 14.1067 460.728 14C460.792 13.8827 460.84 13.6587 460.872 13.328C460.904 12.9973 460.925 12.5013 460.936 11.84C461.053 11.936 461.213 12.0267 461.416 12.112C461.619 12.1973 461.795 12.2667 461.944 12.32C461.923 13.0667 461.864 13.6427 461.768 14.048C461.683 14.464 461.544 14.7573 461.352 14.928C461.171 15.0987 460.915 15.184 460.584 15.184C460.531 15.184 460.435 15.184 460.296 15.184C460.168 15.184 460.029 15.184 459.88 15.184C459.731 15.184 459.592 15.184 459.464 15.184C459.336 15.184 459.245 15.184 459.192 15.184C458.808 15.184 458.515 15.136 458.312 15.04C458.12 14.944 457.981 14.784 457.896 14.56C457.821 14.336 457.784 14.0213 457.784 13.616V7.632ZM454.616 2.72V6.784H459.832V2.72H454.616ZM453.48 1.632H461.032V7.872H453.48V1.632ZM447.176 3.568H452.168V4.656H447.176V3.568ZM449.512 8.336L450.68 6.944V15.28H449.512V8.336ZM449.512 0.559999H450.68V4.112H449.512V0.559999ZM450.68 7.104C450.808 7.2 450.995 7.36 451.24 7.584C451.496 7.808 451.763 8.05867 452.04 8.336C452.328 8.60267 452.589 8.848 452.824 9.072C453.069 9.296 453.245 9.46133 453.352 9.568L452.616 10.56C452.477 10.3787 452.291 10.16 452.056 9.904C451.832 9.648 451.587 9.38133 451.32 9.104C451.053 8.82667 450.797 8.57067 450.552 8.336C450.317 8.09067 450.12 7.89333 449.96 7.744L450.68 7.104ZM451.752 3.568H451.992L452.216 3.52L452.888 3.952C452.504 4.92267 452.008 5.856 451.4 6.752C450.792 7.648 450.12 8.464 449.384 9.2C448.659 9.92533 447.933 10.5387 447.208 11.04C447.165 10.9227 447.107 10.7947 447.032 10.656C446.957 10.5173 446.883 10.384 446.808 10.256C446.733 10.128 446.659 10.0267 446.584 9.952C447.277 9.52533 447.96 8.98667 448.632 8.336C449.315 7.68533 449.928 6.97067 450.472 6.192C451.016 5.41333 451.443 4.61867 451.752 3.808V3.568ZM455.064 7.44H456.248C456.205 8.38933 456.131 9.26933 456.024 10.08C455.928 10.88 455.757 11.6107 455.512 12.272C455.277 12.9227 454.936 13.4987 454.488 14C454.04 14.512 453.453 14.9493 452.728 15.312C452.664 15.1733 452.552 15.008 452.392 14.816C452.243 14.6347 452.099 14.4907 451.96 14.384C452.621 14.064 453.149 13.6853 453.544 13.248C453.949 12.8 454.253 12.288 454.456 11.712C454.669 11.136 454.819 10.496 454.904 9.792C454.989 9.07733 455.043 8.29333 455.064 7.44Z" fill="white"/>
<path d="M3.168 76C3.22133 74.8907 3.312 73.872 3.44 72.944C3.57867 72.0053 3.776 71.1253 4.032 70.304C4.288 69.472 4.61333 68.6667 5.008 67.888C5.41333 67.1093 5.904 66.32 6.48 65.52H0.784V64.272H8.128V65.152C7.44533 66.0373 6.88533 66.8853 6.448 67.696C6.02133 68.5067 5.68533 69.3333 5.44 70.176C5.20533 71.0187 5.02933 71.9147 4.912 72.864C4.80533 73.8027 4.73067 74.848 4.688 76H3.168ZM11.739 69.76C11.451 69.76 11.2003 69.6587 10.987 69.456C10.7843 69.2427 10.683 68.9707 10.683 68.64C10.683 68.3093 10.7843 68.0427 10.987 67.84C11.2003 67.6267 11.451 67.52 11.739 67.52C12.027 67.52 12.2723 67.6267 12.475 67.84C12.6883 68.0427 12.795 68.3093 12.795 68.64C12.795 68.9707 12.6883 69.2427 12.475 69.456C12.2723 69.6587 12.027 69.76 11.739 69.76ZM11.739 76.208C11.451 76.208 11.2003 76.1067 10.987 75.904C10.7843 75.6907 10.683 75.424 10.683 75.104C10.683 74.7627 10.7843 74.4907 10.987 74.288C11.2003 74.0853 11.451 73.984 11.739 73.984C12.027 73.984 12.2723 74.0853 12.475 74.288C12.6883 74.4907 12.795 74.7627 12.795 75.104C12.795 75.424 12.6883 75.6907 12.475 75.904C12.2723 76.1067 12.027 76.208 11.739 76.208ZM19.0561 76.208C18.3201 76.208 17.6748 75.984 17.1201 75.536C16.5761 75.088 16.1548 74.4107 15.8561 73.504C15.5575 72.5973 15.4081 71.4613 15.4081 70.096C15.4081 68.7307 15.5575 67.6053 15.8561 66.72C16.1548 65.824 16.5761 65.1573 17.1201 64.72C17.6748 64.2827 18.3201 64.064 19.0561 64.064C19.8028 64.064 20.4481 64.288 20.9921 64.736C21.5361 65.1733 21.9575 65.8347 22.2561 66.72C22.5548 67.6053 22.7041 68.7307 22.7041 70.096C22.7041 71.4613 22.5548 72.5973 22.2561 73.504C21.9575 74.4107 21.5361 75.088 20.9921 75.536C20.4481 75.984 19.8028 76.208 19.0561 76.208ZM19.0561 75.024C19.5041 75.024 19.8935 74.8533 20.2241 74.512C20.5655 74.1707 20.8268 73.6373 21.0081 72.912C21.2001 72.176 21.2961 71.2373 21.2961 70.096C21.2961 68.9547 21.2001 68.0267 21.0081 67.312C20.8268 66.5867 20.5655 66.0587 20.2241 65.728C19.8935 65.3867 19.5041 65.216 19.0561 65.216C18.6188 65.216 18.2295 65.3867 17.8881 65.728C17.5468 66.0587 17.2801 66.5867 17.0881 67.312C16.9068 68.0267 16.8161 68.9547 16.8161 70.096C16.8161 71.2373 16.9068 72.176 17.0881 72.912C17.2801 73.6373 17.5468 74.1707 17.8881 74.512C18.2295 74.8533 18.6188 75.024 19.0561 75.024ZM28.5711 76.208C27.8351 76.208 27.1898 75.984 26.6351 75.536C26.0911 75.088 25.6698 74.4107 25.3711 73.504C25.0725 72.5973 24.9231 71.4613 24.9231 70.096C24.9231 68.7307 25.0725 67.6053 25.3711 66.72C25.6698 65.824 26.0911 65.1573 26.6351 64.72C27.1898 64.2827 27.8351 64.064 28.5711 64.064C29.3178 64.064 29.9631 64.288 30.5071 64.736C31.0511 65.1733 31.4725 65.8347 31.7711 66.72C32.0698 67.6053 32.2191 68.7307 32.2191 70.096C32.2191 71.4613 32.0698 72.5973 31.7711 73.504C31.4725 74.4107 31.0511 75.088 30.5071 75.536C29.9631 75.984 29.3178 76.208 28.5711 76.208ZM28.5711 75.024C29.0191 75.024 29.4085 74.8533 29.7391 74.512C30.0805 74.1707 30.3418 73.6373 30.5231 72.912C30.7151 72.176 30.8111 71.2373 30.8111 70.096C30.8111 68.9547 30.7151 68.0267 30.5231 67.312C30.3418 66.5867 30.0805 66.0587 29.7391 65.728C29.4085 65.3867 29.0191 65.216 28.5711 65.216C28.1338 65.216 27.7445 65.3867 27.4031 65.728C27.0618 66.0587 26.7951 66.5867 26.6031 67.312C26.4218 68.0267 26.3311 68.9547 26.3311 70.096C26.3311 71.2373 26.4218 72.176 26.6031 72.912C26.7951 73.6373 27.0618 74.1707 27.4031 74.512C27.7445 74.8533 28.1338 75.024 28.5711 75.024ZM41.1901 70.368C40.7635 69.9627 40.3475 69.6427 39.9421 69.408C39.5475 69.1733 39.0568 69.056 38.4701 69.056C37.8408 69.056 37.2595 69.2533 36.7261 69.648C36.2035 70.032 35.7768 70.5387 35.4461 71.168L34.3101 70.56C34.8115 69.6427 35.4195 68.9493 36.1341 68.48C36.8595 68 37.6435 67.76 38.4861 67.76C39.2115 67.76 39.8515 67.9093 40.4061 68.208C40.9715 68.496 41.5315 68.9173 42.0861 69.472C42.5128 69.8773 42.9288 70.1973 43.3341 70.432C43.7395 70.6667 44.2301 70.784 44.8061 70.784C45.4355 70.784 46.0115 70.592 46.5341 70.208C47.0675 69.8133 47.4995 69.3013 47.8301 68.672L48.9661 69.28C48.4648 70.1973 47.8515 70.896 47.1261 71.376C46.4115 71.8453 45.6328 72.08 44.7901 72.08C44.0755 72.08 43.4355 71.936 42.8701 71.648C42.3048 71.3493 41.7448 70.9227 41.1901 70.368ZM50.9821 76V75.136C52.2088 74.0587 53.2168 73.0773 54.0061 72.192C54.8061 71.3067 55.3981 70.4853 55.7821 69.728C56.1661 68.96 56.3581 68.24 56.3581 67.568C56.3581 67.12 56.2781 66.72 56.1181 66.368C55.9688 66.016 55.7341 65.744 55.4141 65.552C55.0941 65.3493 54.6888 65.248 54.1981 65.248C53.7181 65.248 53.2701 65.376 52.8541 65.632C52.4488 65.888 52.0861 66.2133 51.7661 66.608L50.9181 65.776C51.3875 65.2533 51.8941 64.8373 52.4381 64.528C52.9821 64.2187 53.6275 64.064 54.3741 64.064C55.0781 64.064 55.6808 64.208 56.1821 64.496C56.6941 64.7733 57.0888 65.1733 57.3661 65.696C57.6541 66.208 57.7981 66.8107 57.7981 67.504C57.7981 68.2827 57.6008 69.072 57.2061 69.872C56.8221 70.672 56.2835 71.488 55.5901 72.32C54.9075 73.1413 54.1075 73.984 53.1901 74.848C53.4995 74.8267 53.8195 74.8053 54.1501 74.784C54.4915 74.752 54.8115 74.736 55.1101 74.736H58.3581V76H50.9821ZM64.2411 76.208C63.5051 76.208 62.8598 75.984 62.3051 75.536C61.7611 75.088 61.3398 74.4107 61.0411 73.504C60.7425 72.5973 60.5931 71.4613 60.5931 70.096C60.5931 68.7307 60.7425 67.6053 61.0411 66.72C61.3398 65.824 61.7611 65.1573 62.3051 64.72C62.8598 64.2827 63.5051 64.064 64.2411 64.064C64.9878 64.064 65.6331 64.288 66.1771 64.736C66.7211 65.1733 67.1425 65.8347 67.4411 66.72C67.7398 67.6053 67.8891 68.7307 67.8891 70.096C67.8891 71.4613 67.7398 72.5973 67.4411 73.504C67.1425 74.4107 66.7211 75.088 66.1771 75.536C65.6331 75.984 64.9878 76.208 64.2411 76.208ZM64.2411 75.024C64.6891 75.024 65.0785 74.8533 65.4091 74.512C65.7505 74.1707 66.0118 73.6373 66.1931 72.912C66.3851 72.176 66.4811 71.2373 66.4811 70.096C66.4811 68.9547 66.3851 68.0267 66.1931 67.312C66.0118 66.5867 65.7505 66.0587 65.4091 65.728C65.0785 65.3867 64.6891 65.216 64.2411 65.216C63.8038 65.216 63.4145 65.3867 63.0731 65.728C62.7318 66.0587 62.4651 66.5867 62.2731 67.312C62.0918 68.0267 62.0011 68.9547 62.0011 70.096C62.0011 71.2373 62.0918 72.176 62.2731 72.912C62.4651 73.6373 62.7318 74.1707 63.0731 74.512C63.4145 74.8533 63.8038 75.024 64.2411 75.024ZM71.5321 69.76C71.2441 69.76 70.9935 69.6587 70.7801 69.456C70.5775 69.2427 70.4761 68.9707 70.4761 68.64C70.4761 68.3093 70.5775 68.0427 70.7801 67.84C70.9935 67.6267 71.2441 67.52 71.5321 67.52C71.8201 67.52 72.0655 67.6267 72.2681 67.84C72.4815 68.0427 72.5881 68.3093 72.5881 68.64C72.5881 68.9707 72.4815 69.2427 72.2681 69.456C72.0655 69.6587 71.8201 69.76 71.5321 69.76ZM71.5321 76.208C71.2441 76.208 70.9935 76.1067 70.7801 75.904C70.5775 75.6907 70.4761 75.424 70.4761 75.104C70.4761 74.7627 70.5775 74.4907 70.7801 74.288C70.9935 74.0853 71.2441 73.984 71.5321 73.984C71.8201 73.984 72.0655 74.0853 72.2681 74.288C72.4815 74.4907 72.5881 74.7627 72.5881 75.104C72.5881 75.424 72.4815 75.6907 72.2681 75.904C72.0655 76.1067 71.8201 76.208 71.5321 76.208ZM78.8493 76.208C78.1133 76.208 77.4679 75.984 76.9133 75.536C76.3693 75.088 75.9479 74.4107 75.6493 73.504C75.3506 72.5973 75.2013 71.4613 75.2013 70.096C75.2013 68.7307 75.3506 67.6053 75.6493 66.72C75.9479 65.824 76.3693 65.1573 76.9133 64.72C77.4679 64.2827 78.1133 64.064 78.8493 64.064C79.5959 64.064 80.2413 64.288 80.7853 64.736C81.3293 65.1733 81.7506 65.8347 82.0493 66.72C82.3479 67.6053 82.4973 68.7307 82.4973 70.096C82.4973 71.4613 82.3479 72.5973 82.0493 73.504C81.7506 74.4107 81.3293 75.088 80.7853 75.536C80.2413 75.984 79.5959 76.208 78.8493 76.208ZM78.8493 75.024C79.2973 75.024 79.6866 74.8533 80.0173 74.512C80.3586 74.1707 80.6199 73.6373 80.8013 72.912C80.9933 72.176 81.0893 71.2373 81.0893 70.096C81.0893 68.9547 80.9933 68.0267 80.8013 67.312C80.6199 66.5867 80.3586 66.0587 80.0173 65.728C79.6866 65.3867 79.2973 65.216 78.8493 65.216C78.4119 65.216 78.0226 65.3867 77.6813 65.728C77.3399 66.0587 77.0733 66.5867 76.8813 67.312C76.6999 68.0267 76.6093 68.9547 76.6093 70.096C76.6093 71.2373 76.6999 72.176 76.8813 72.912C77.0733 73.6373 77.3399 74.1707 77.6813 74.512C78.0226 74.8533 78.4119 75.024 78.8493 75.024ZM88.3643 76.208C87.6283 76.208 86.9829 75.984 86.4283 75.536C85.8843 75.088 85.4629 74.4107 85.1643 73.504C84.8656 72.5973 84.7163 71.4613 84.7163 70.096C84.7163 68.7307 84.8656 67.6053 85.1643 66.72C85.4629 65.824 85.8843 65.1573 86.4283 64.72C86.9829 64.2827 87.6283 64.064 88.3643 64.064C89.1109 64.064 89.7563 64.288 90.3003 64.736C90.8443 65.1733 91.2656 65.8347 91.5643 66.72C91.8629 67.6053 92.0123 68.7307 92.0123 70.096C92.0123 71.4613 91.8629 72.5973 91.5643 73.504C91.2656 74.4107 90.8443 75.088 90.3003 75.536C89.7563 75.984 89.1109 76.208 88.3643 76.208ZM88.3643 75.024C88.8123 75.024 89.2016 74.8533 89.5323 74.512C89.8736 74.1707 90.1349 73.6373 90.3163 72.912C90.5083 72.176 90.6043 71.2373 90.6043 70.096C90.6043 68.9547 90.5083 68.0267 90.3163 67.312C90.1349 66.5867 89.8736 66.0587 89.5323 65.728C89.2016 65.3867 88.8123 65.216 88.3643 65.216C87.9269 65.216 87.5376 65.3867 87.1963 65.728C86.8549 66.0587 86.5883 66.5867 86.3963 67.312C86.2149 68.0267 86.1243 68.9547 86.1243 70.096C86.1243 71.2373 86.2149 72.176 86.3963 72.912C86.5883 73.6373 86.8549 74.1707 87.1963 74.512C87.5376 74.8533 87.9269 75.024 88.3643 75.024Z" fill="white"/>
<mask id="mask0_262_727" style="mask-type:alpha" maskUnits="userSpaceOnUse" x="123" y="60" width="20" height="20">
<rect x="123" y="60" width="20" height="20" fill="#D9D9D9"/>
</mask>
<g mask="url(#mask0_262_727)">
<path d="M132.99 78.3381C131.837 78.3381 130.753 78.1193 129.74 77.6818C128.726 77.2443 127.844 76.6506 127.094 75.9006C126.344 75.1506 125.75 74.2686 125.312 73.2547C124.875 72.2408 124.656 71.1575 124.656 70.0047C124.656 68.8519 124.875 67.7686 125.312 66.7547C125.75 65.7408 126.344 64.8589 127.094 64.1089C127.844 63.3589 128.726 62.7651 129.74 62.3276C130.753 61.8901 131.837 61.6714 132.99 61.6714C134.142 61.6714 135.226 61.8901 136.24 62.3276C137.253 62.7651 138.135 63.3589 138.885 64.1089C139.635 64.8589 140.229 65.7408 140.667 66.7547C141.104 67.7686 141.323 68.8519 141.323 70.0047C141.323 71.1575 141.104 72.2408 140.667 73.2547C140.229 74.2686 139.635 75.1506 138.885 75.9006C138.135 76.6506 137.253 77.2443 136.24 77.6818C135.226 78.1193 134.142 78.3381 132.99 78.3381ZM132.99 76.6714C134.851 76.6714 136.427 76.0256 137.719 74.7339C139.01 73.4422 139.656 71.8658 139.656 70.0047C139.656 68.1436 139.01 66.5672 137.719 65.2756C136.427 63.9839 134.851 63.3381 132.99 63.3381C131.128 63.3381 129.552 63.9839 128.26 65.2756C126.969 66.5672 126.323 68.1436 126.323 70.0047C126.323 71.8658 126.969 73.4422 128.26 74.7339C129.552 76.0256 131.128 76.6714 132.99 76.6714Z" fill="white"/>
</g>
<mask id="mask1_262_727" style="mask-type:alpha" maskUnits="userSpaceOnUse" x="171" y="60" width="20" height="20">
<rect x="171" y="60" width="20" height="20" fill="#D9D9D9"/>
</mask>
<g mask="url(#mask1_262_727)">
<path d="M178.01 74.1658L176.844 72.9991L179.844 69.9991L176.844 67.0199L178.01 65.8533L181.01 68.8533L183.99 65.8533L185.156 67.0199L182.156 69.9991L185.156 72.9991L183.99 74.1658L181.01 71.1658L178.01 74.1658Z" fill="white"/>
</g>
<mask id="mask2_262_727" style="mask-type:alpha" maskUnits="userSpaceOnUse" x="220" y="60" width="20" height="20">
<rect x="220" y="60" width="20" height="20" fill="#D9D9D9"/>
</mask>
<g mask="url(#mask2_262_727)">
<path d="M229.99 78.3381C228.837 78.3381 227.753 78.1193 226.74 77.6818C225.726 77.2443 224.844 76.6506 224.094 75.9006C223.344 75.1506 222.75 74.2686 222.312 73.2547C221.875 72.2408 221.656 71.1575 221.656 70.0047C221.656 68.8519 221.875 67.7686 222.312 66.7547C222.75 65.7408 223.344 64.8589 224.094 64.1089C224.844 63.3589 225.726 62.7651 226.74 62.3276C227.753 61.8901 228.837 61.6714 229.99 61.6714C231.142 61.6714 232.226 61.8901 233.24 62.3276C234.253 62.7651 235.135 63.3589 235.885 64.1089C236.635 64.8589 237.229 65.7408 237.667 66.7547C238.104 67.7686 238.323 68.8519 238.323 70.0047C238.323 71.1575 238.104 72.2408 237.667 73.2547C237.229 74.2686 236.635 75.1506 235.885 75.9006C235.135 76.6506 234.253 77.2443 233.24 77.6818C232.226 78.1193 231.142 78.3381 229.99 78.3381ZM229.99 76.6714C231.851 76.6714 233.427 76.0256 234.719 74.7339C236.01 73.4422 236.656 71.8658 236.656 70.0047C236.656 68.1436 236.01 66.5672 234.719 65.2756C233.427 63.9839 231.851 63.3381 229.99 63.3381C228.128 63.3381 226.552 63.9839 225.26 65.2756C223.969 66.5672 223.323 68.1436 223.323 70.0047C223.323 71.8658 223.969 73.4422 225.26 74.7339C226.552 76.0256 228.128 76.6714 229.99 76.6714Z" fill="white"/>
</g>
<mask id="mask3_262_727" style="mask-type:alpha" maskUnits="userSpaceOnUse" x="268" y="60" width="20" height="20">
<rect x="268" y="60" width="20" height="20" fill="#D9D9D9"/>
</mask>
<g mask="url(#mask3_262_727)">
<path d="M277.99 78.3381C276.837 78.3381 275.753 78.1193 274.74 77.6818C273.726 77.2443 272.844 76.6506 272.094 75.9006C271.344 75.1506 270.75 74.2686 270.312 73.2547C269.875 72.2408 269.656 71.1575 269.656 70.0047C269.656 68.8519 269.875 67.7686 270.312 66.7547C270.75 65.7408 271.344 64.8589 272.094 64.1089C272.844 63.3589 273.726 62.7651 274.74 62.3276C275.753 61.8901 276.837 61.6714 277.99 61.6714C279.142 61.6714 280.226 61.8901 281.24 62.3276C282.253 62.7651 283.135 63.3589 283.885 64.1089C284.635 64.8589 285.229 65.7408 285.667 66.7547C286.104 67.7686 286.323 68.8519 286.323 70.0047C286.323 71.1575 286.104 72.2408 285.667 73.2547C285.229 74.2686 284.635 75.1506 283.885 75.9006C283.135 76.6506 282.253 77.2443 281.24 77.6818C280.226 78.1193 279.142 78.3381 277.99 78.3381ZM277.99 76.6714C279.851 76.6714 281.427 76.0256 282.719 74.7339C284.01 73.4422 284.656 71.8658 284.656 70.0047C284.656 68.1436 284.01 66.5672 282.719 65.2756C281.427 63.9839 279.851 63.3381 277.99 63.3381C276.128 63.3381 274.552 63.9839 273.26 65.2756C271.969 66.5672 271.323 68.1436 271.323 70.0047C271.323 71.8658 271.969 73.4422 273.26 74.7339C274.552 76.0256 276.128 76.6714 277.99 76.6714Z" fill="white"/>
</g>
<mask id="mask4_262_727" style="mask-type:alpha" maskUnits="userSpaceOnUse" x="316" y="60" width="20" height="20">
<rect x="316" y="60" width="20" height="20" fill="#D9D9D9"/>
</mask>
<g mask="url(#mask4_262_727)">
<path d="M325.99 78.3381C324.837 78.3381 323.753 78.1193 322.74 77.6818C321.726 77.2443 320.844 76.6506 320.094 75.9006C319.344 75.1506 318.75 74.2686 318.312 73.2547C317.875 72.2408 317.656 71.1575 317.656 70.0047C317.656 68.8519 317.875 67.7686 318.312 66.7547C318.75 65.7408 319.344 64.8589 320.094 64.1089C320.844 63.3589 321.726 62.7651 322.74 62.3276C323.753 61.8901 324.837 61.6714 325.99 61.6714C327.142 61.6714 328.226 61.8901 329.24 62.3276C330.253 62.7651 331.135 63.3589 331.885 64.1089C332.635 64.8589 333.229 65.7408 333.667 66.7547C334.104 67.7686 334.323 68.8519 334.323 70.0047C334.323 71.1575 334.104 72.2408 333.667 73.2547C333.229 74.2686 332.635 75.1506 331.885 75.9006C331.135 76.6506 330.253 77.2443 329.24 77.6818C328.226 78.1193 327.142 78.3381 325.99 78.3381ZM325.99 76.6714C327.851 76.6714 329.427 76.0256 330.719 74.7339C332.01 73.4422 332.656 71.8658 332.656 70.0047C332.656 68.1436 332.01 66.5672 330.719 65.2756C329.427 63.9839 327.851 63.3381 325.99 63.3381C324.128 63.3381 322.552 63.9839 321.26 65.2756C319.969 66.5672 319.323 68.1436 319.323 70.0047C319.323 71.8658 319.969 73.4422 321.26 74.7339C322.552 76.0256 324.128 76.6714 325.99 76.6714Z" fill="white"/>
</g>
<mask id="mask5_262_727" style="mask-type:alpha" maskUnits="userSpaceOnUse" x="363" y="60" width="20" height="20">
<rect x="363" y="60" width="20" height="20" fill="#D9D9D9"/>
</mask>
<g mask="url(#mask5_262_727)">
<path d="M372.99 78.3381C371.837 78.3381 370.753 78.1193 369.74 77.6818C368.726 77.2443 367.844 76.6506 367.094 75.9006C366.344 75.1506 365.75 74.2686 365.312 73.2547C364.875 72.2408 364.656 71.1575 364.656 70.0047C364.656 68.8519 364.875 67.7686 365.312 66.7547C365.75 65.7408 366.344 64.8589 367.094 64.1089C367.844 63.3589 368.726 62.7651 369.74 62.3276C370.753 61.8901 371.837 61.6714 372.99 61.6714C374.142 61.6714 375.226 61.8901 376.24 62.3276C377.253 62.7651 378.135 63.3589 378.885 64.1089C379.635 64.8589 380.229 65.7408 380.667 66.7547C381.104 67.7686 381.323 68.8519 381.323 70.0047C381.323 71.1575 381.104 72.2408 380.667 73.2547C380.229 74.2686 379.635 75.1506 378.885 75.9006C378.135 76.6506 377.253 77.2443 376.24 77.6818C375.226 78.1193 374.142 78.3381 372.99 78.3381ZM372.99 76.6714C374.851 76.6714 376.427 76.0256 377.719 74.7339C379.01 73.4422 379.656 71.8658 379.656 70.0047C379.656 68.1436 379.01 66.5672 377.719 65.2756C376.427 63.9839 374.851 63.3381 372.99 63.3381C371.128 63.3381 369.552 63.9839 368.26 65.2756C366.969 66.5672 366.323 68.1436 366.323 70.0047C366.323 71.8658 366.969 73.4422 368.26 74.7339C369.552 76.0256 371.128 76.6714 372.99 76.6714Z" fill="white"/>
</g>
<mask id="mask6_262_727" style="mask-type:alpha" maskUnits="userSpaceOnUse" x="428" y="60" width="20" height="20">
<rect x="428" y="60" width="20" height="20" fill="#D9D9D9"/>
</mask>
<g mask="url(#mask6_262_727)">
<path d="M437.99 78.3381C436.837 78.3381 435.753 78.1193 434.74 77.6818C433.726 77.2443 432.844 76.6506 432.094 75.9006C431.344 75.1506 430.75 74.2686 430.312 73.2547C429.875 72.2408 429.656 71.1575 429.656 70.0047C429.656 68.8519 429.875 67.7686 430.312 66.7547C430.75 65.7408 431.344 64.8589 432.094 64.1089C432.844 63.3589 433.726 62.7651 434.74 62.3276C435.753 61.8901 436.837 61.6714 437.99 61.6714C439.142 61.6714 440.226 61.8901 441.24 62.3276C442.253 62.7651 443.135 63.3589 443.885 64.1089C444.635 64.8589 445.229 65.7408 445.667 66.7547C446.104 67.7686 446.323 68.8519 446.323 70.0047C446.323 71.1575 446.104 72.2408 445.667 73.2547C445.229 74.2686 444.635 75.1506 443.885 75.9006C443.135 76.6506 442.253 77.2443 441.24 77.6818C440.226 78.1193 439.142 78.3381 437.99 78.3381ZM437.99 76.6714C439.851 76.6714 441.427 76.0256 442.719 74.7339C444.01 73.4422 444.656 71.8658 444.656 70.0047C444.656 68.1436 444.01 66.5672 442.719 65.2756C441.427 63.9839 439.851 63.3381 437.99 63.3381C436.128 63.3381 434.552 63.9839 433.26 65.2756C431.969 66.5672 431.323 68.1436 431.323 70.0047C431.323 71.8658 431.969 73.4422 433.26 74.7339C434.552 76.0256 436.128 76.6714 437.99 76.6714Z" fill="white"/>
</g>
<path d="M7.584 116.048L7.456 110.864L2.912 113.344L2.496 112.608L6.896 109.92L2.496 107.216L2.912 106.496L7.456 108.96L7.584 103.792H8.432L8.56 108.96L13.104 106.496L13.536 107.216L9.12 109.92L13.536 112.608L13.104 113.344L8.56 110.864L8.432 116.048H7.584ZM21.584 106.72H29.76V107.792H21.584V106.72ZM20.368 114.048H32.192V115.12H20.368V114.048ZM17.968 110.288H32.624V111.376H17.968V110.288ZM21.168 104.176H31.84V105.264H21.168V104.176ZM29.392 106.72H30.576C30.576 106.72 30.576 106.757 30.576 106.832C30.576 106.907 30.5707 106.992 30.56 107.088C30.56 107.173 30.56 107.248 30.56 107.312C30.4747 108.933 30.3893 110.304 30.304 111.424C30.2187 112.544 30.1227 113.461 30.016 114.176C29.92 114.891 29.808 115.445 29.68 115.84C29.5627 116.235 29.4293 116.523 29.28 116.704C29.1093 116.907 28.928 117.045 28.736 117.12C28.5547 117.205 28.3307 117.264 28.064 117.296C27.8187 117.307 27.4933 117.307 27.088 117.296C26.6827 117.296 26.256 117.28 25.808 117.248C25.7973 117.109 25.7707 116.949 25.728 116.768C25.6853 116.597 25.616 116.443 25.52 116.304C25.9787 116.347 26.3893 116.373 26.752 116.384C27.1253 116.395 27.4027 116.4 27.584 116.4C27.7333 116.4 27.856 116.384 27.952 116.352C28.048 116.32 28.1387 116.256 28.224 116.16C28.352 116.021 28.4693 115.76 28.576 115.376C28.6933 114.981 28.8 114.427 28.896 113.712C28.992 112.997 29.0827 112.091 29.168 110.992C29.2533 109.883 29.328 108.544 29.392 106.976V106.72ZM21.088 106.72H22.288C22.192 107.467 22.08 108.267 21.952 109.12C21.824 109.963 21.6907 110.811 21.552 111.664C21.4133 112.517 21.28 113.328 21.152 114.096C21.024 114.853 20.9013 115.525 20.784 116.112L19.568 116.032C19.696 115.435 19.8293 114.757 19.968 114C20.1067 113.232 20.2453 112.427 20.384 111.584C20.5227 110.741 20.6507 109.904 20.768 109.072C20.896 108.229 21.0027 107.445 21.088 106.72ZM25.136 107.248H26.272C26.208 107.835 26.1387 108.469 26.064 109.152C26 109.824 25.9253 110.496 25.84 111.168C25.7547 111.84 25.6693 112.48 25.584 113.088C25.5093 113.696 25.4347 114.224 25.36 114.672H24.24C24.3253 114.213 24.4107 113.68 24.496 113.072C24.5813 112.453 24.6613 111.808 24.736 111.136C24.8213 110.453 24.896 109.781 24.96 109.12C25.0347 108.448 25.0933 107.824 25.136 107.248ZM21.776 102.56L23.056 102.768C22.7893 103.355 22.4747 103.957 22.112 104.576C21.76 105.195 21.3493 105.803 20.88 106.4C20.4107 106.987 19.8827 107.547 19.296 108.08C19.2213 107.984 19.1253 107.893 19.008 107.808C18.8907 107.712 18.768 107.621 18.64 107.536C18.5227 107.451 18.4107 107.387 18.304 107.344C18.8693 106.875 19.376 106.368 19.824 105.824C20.272 105.269 20.656 104.709 20.976 104.144C21.3067 103.579 21.5733 103.051 21.776 102.56ZM38.384 108.88V114.544H37.248V110H35.28V108.88H38.384ZM38.384 114.064C38.768 114.661 39.3067 115.104 40 115.392C40.704 115.68 41.5253 115.845 42.464 115.888C42.9227 115.899 43.4773 115.909 44.128 115.92C44.7787 115.92 45.4613 115.92 46.176 115.92C46.9013 115.909 47.5947 115.893 48.256 115.872C48.928 115.84 49.5093 115.808 50 115.776C49.9573 115.861 49.9093 115.973 49.856 116.112C49.8027 116.251 49.7547 116.389 49.712 116.528C49.68 116.677 49.6533 116.811 49.632 116.928C49.1733 116.949 48.6293 116.965 48 116.976C47.3813 116.987 46.7307 116.992 46.048 116.992C45.376 117.003 44.7253 117.003 44.096 116.992C43.4773 116.992 42.944 116.981 42.496 116.96C41.4293 116.917 40.5227 116.747 39.776 116.448C39.0293 116.149 38.4053 115.68 37.904 115.04C37.5627 115.381 37.2107 115.728 36.848 116.08C36.4853 116.432 36.112 116.789 35.728 117.152L35.104 116C35.4453 115.733 35.8187 115.429 36.224 115.088C36.6293 114.747 37.0133 114.405 37.376 114.064H38.384ZM35.36 103.536L36.288 102.928C36.608 103.173 36.928 103.456 37.248 103.776C37.5787 104.096 37.8773 104.416 38.144 104.736C38.4107 105.045 38.6187 105.333 38.768 105.6L37.76 106.288C37.6107 106.011 37.408 105.712 37.152 105.392C36.896 105.061 36.6133 104.736 36.304 104.416C35.9947 104.096 35.68 103.803 35.36 103.536ZM40.848 103.168H48.336V104.176H40.848V103.168ZM42.048 105.648H47.04V106.512H42.048V105.648ZM41.904 107.808H47.2V108.688H41.904V107.808ZM43.952 104.512H44.96V108.32H43.952V104.512ZM40.192 103.168H41.296V107.328C41.296 107.893 41.2747 108.501 41.232 109.152C41.2 109.792 41.1307 110.448 41.024 111.12C40.9173 111.792 40.7627 112.448 40.56 113.088C40.368 113.717 40.1013 114.299 39.76 114.832C39.7067 114.768 39.616 114.693 39.488 114.608C39.3707 114.523 39.248 114.443 39.12 114.368C39.0027 114.293 38.9013 114.24 38.816 114.208C39.2427 113.536 39.552 112.8 39.744 112C39.936 111.189 40.0587 110.379 40.112 109.568C40.1653 108.757 40.192 108.011 40.192 107.328V103.168ZM47.808 103.168H48.928V113.696C48.928 114.005 48.8853 114.245 48.8 114.416C48.7147 114.587 48.5707 114.72 48.368 114.816C48.1547 114.912 47.8667 114.971 47.504 114.992C47.1413 115.003 46.6773 115.008 46.112 115.008C46.0907 114.869 46.048 114.699 45.984 114.496C45.92 114.293 45.8507 114.123 45.776 113.984C46.1707 113.995 46.5333 114 46.864 114C47.1947 114 47.408 113.995 47.504 113.984C47.6107 113.984 47.6853 113.963 47.728 113.92C47.7813 113.877 47.808 113.803 47.808 113.696V103.168ZM42.8 109.6H46.64V113.12H42.8V112.24H45.664V110.448H42.8V109.6ZM42.32 109.6H43.28V113.936H42.32V109.6ZM55.056 105.808L56.256 106.064C56.16 106.693 56.0267 107.323 55.856 107.952C55.6853 108.571 55.4507 109.147 55.152 109.68C54.864 110.203 54.48 110.645 54 111.008L52.96 110.304C53.3973 109.984 53.7547 109.584 54.032 109.104C54.3093 108.624 54.528 108.101 54.688 107.536C54.8587 106.971 54.9813 106.395 55.056 105.808ZM65.104 105.776L66.4 106.288C66.144 106.789 65.8613 107.312 65.552 107.856C65.2533 108.4 64.9493 108.928 64.64 109.44C64.3413 109.941 64.0533 110.384 63.776 110.768L62.768 110.288C63.0347 109.893 63.312 109.435 63.6 108.912C63.8987 108.389 64.176 107.856 64.432 107.312C64.6987 106.757 64.9227 106.245 65.104 105.776ZM59.776 102.784H60.416V107.968C60.416 108.277 60.4533 108.651 60.528 109.088C60.6027 109.515 60.7307 109.984 60.912 110.496C61.0933 110.997 61.344 111.515 61.664 112.048C61.9947 112.571 62.4053 113.088 62.896 113.6C63.3867 114.112 63.9787 114.592 64.672 115.04C65.3653 115.477 66.176 115.861 67.104 116.192C67.0187 116.277 66.9227 116.384 66.816 116.512C66.72 116.651 66.624 116.789 66.528 116.928C66.432 117.067 66.352 117.189 66.288 117.296C65.36 116.944 64.5493 116.528 63.856 116.048C63.1627 115.568 62.5707 115.061 62.08 114.528C61.5893 113.995 61.184 113.461 60.864 112.928C60.544 112.395 60.2987 111.899 60.128 111.44C59.9573 110.981 59.8347 110.603 59.76 110.304C59.696 110.613 59.5787 110.992 59.408 111.44C59.248 111.888 59.0133 112.373 58.704 112.896C58.4053 113.419 58.016 113.947 57.536 114.48C57.0667 115.013 56.4907 115.52 55.808 116C55.136 116.491 54.3467 116.923 53.44 117.296C53.3973 117.211 53.3227 117.104 53.216 116.976C53.12 116.859 53.0187 116.736 52.912 116.608C52.8053 116.48 52.7093 116.373 52.624 116.288C53.7013 115.883 54.6133 115.397 55.36 114.832C56.1173 114.256 56.7413 113.653 57.232 113.024C57.7227 112.384 58.1067 111.749 58.384 111.12C58.6613 110.491 58.8533 109.904 58.96 109.36C59.0667 108.816 59.12 108.357 59.12 107.984V102.784H59.776ZM75.424 105.168H78.72V106H75.424V105.168ZM75.152 103.152H79.184V108.064H75.136V107.2H78.128V104.032H75.152V103.152ZM80.08 105.168H83.456V106H80.08V105.168ZM79.84 103.152H83.968V108.064H79.824V107.2H82.896V104.032H79.84V103.152ZM76.592 111.504H83.696V112.368H76.592V111.504ZM76.592 113.6H83.696V114.448H76.592V113.6ZM76.624 115.76H84.48V116.704H76.624V115.76ZM76.944 107.856L78.064 108.192C77.8293 108.704 77.5413 109.227 77.2 109.76C76.8693 110.283 76.5067 110.789 76.112 111.28C75.7173 111.76 75.3013 112.181 74.864 112.544C74.8213 112.469 74.752 112.384 74.656 112.288C74.5707 112.181 74.48 112.08 74.384 111.984C74.2987 111.888 74.2187 111.808 74.144 111.744C74.5387 111.413 74.9173 111.029 75.28 110.592C75.6427 110.155 75.968 109.701 76.256 109.232C76.544 108.752 76.7733 108.293 76.944 107.856ZM77.04 109.344H84.08V110.288H77.04V117.2H75.936V110.304L76.864 109.344H77.04ZM80.304 107.936L81.488 108.208C81.3067 108.56 81.12 108.912 80.928 109.264C80.7467 109.605 80.5707 109.904 80.4 110.16L79.504 109.872C79.6427 109.595 79.7867 109.275 79.936 108.912C80.096 108.539 80.2187 108.213 80.304 107.936ZM79.536 110.064H80.592V116.112H79.536V110.064ZM70.912 103.568H74.48V114.192H70.912V113.12H73.392V104.64H70.912V103.568ZM70.976 108.24H73.968V109.312H70.976V108.24ZM70.352 103.568H71.424V115.52H70.352V103.568ZM89.776 107.456H99.12V108.608H89.776V107.456ZM94.384 111.28H99.776V112.4H94.384V111.28ZM93.76 108.032H95.008V116.144L93.76 115.968V108.032ZM89.952 109.968L91.2 110.112C90.976 111.723 90.6027 113.136 90.08 114.352C89.5573 115.568 88.848 116.571 87.952 117.36C87.888 117.285 87.792 117.195 87.664 117.088C87.5467 116.992 87.424 116.891 87.296 116.784C87.168 116.688 87.056 116.608 86.96 116.544C87.8453 115.851 88.5227 114.944 88.992 113.824C89.472 112.704 89.792 111.419 89.952 109.968ZM90.72 112.032C90.9973 112.853 91.36 113.515 91.808 114.016C92.256 114.517 92.7733 114.901 93.36 115.168C93.9467 115.435 94.592 115.616 95.296 115.712C96.0107 115.808 96.7787 115.856 97.6 115.856C97.7173 115.856 97.9093 115.856 98.176 115.856C98.4427 115.856 98.7413 115.856 99.072 115.856C99.4133 115.856 99.76 115.856 100.112 115.856C100.464 115.856 100.784 115.856 101.072 115.856C101.36 115.856 101.579 115.851 101.728 115.84C101.675 115.936 101.616 116.059 101.552 116.208C101.488 116.357 101.429 116.507 101.376 116.656C101.333 116.805 101.301 116.939 101.28 117.056H100.48H97.536C96.5867 117.056 95.7067 116.992 94.896 116.864C94.096 116.747 93.3707 116.523 92.72 116.192C92.08 115.861 91.5093 115.392 91.008 114.784C90.5067 114.176 90.0853 113.387 89.744 112.416L90.72 112.032ZM93.744 102.56H95.008V105.152H93.744V102.56ZM87.712 104.4H101.088V107.888H99.856V105.552H88.896V107.888H87.712V104.4ZM113.088 102.784H114.272V117.28H113.088V102.784ZM108.576 106.64H118.928V107.808H108.576V106.64ZM114.704 107.024C114.939 107.717 115.221 108.416 115.552 109.12C115.893 109.813 116.267 110.485 116.672 111.136C117.088 111.787 117.52 112.379 117.968 112.912C118.427 113.445 118.885 113.904 119.344 114.288C119.259 114.363 119.157 114.453 119.04 114.56C118.923 114.667 118.811 114.779 118.704 114.896C118.597 115.013 118.507 115.125 118.432 115.232C117.973 114.805 117.515 114.299 117.056 113.712C116.608 113.125 116.176 112.48 115.76 111.776C115.355 111.072 114.976 110.341 114.624 109.584C114.283 108.827 113.984 108.069 113.728 107.312L114.704 107.024ZM112.736 107.04L113.776 107.344C113.424 108.4 112.992 109.429 112.48 110.432C111.979 111.435 111.419 112.357 110.8 113.2C110.192 114.043 109.557 114.752 108.896 115.328C108.832 115.221 108.747 115.109 108.64 114.992C108.533 114.875 108.421 114.763 108.304 114.656C108.197 114.539 108.096 114.448 108 114.384C108.651 113.883 109.275 113.243 109.872 112.464C110.469 111.675 111.013 110.811 111.504 109.872C112.005 108.933 112.416 107.989 112.736 107.04ZM108.384 102.656L109.568 103.024C109.195 103.952 108.752 104.864 108.24 105.76C107.728 106.656 107.173 107.493 106.576 108.272C105.989 109.051 105.376 109.739 104.736 110.336C104.693 110.229 104.624 110.101 104.528 109.952C104.443 109.792 104.352 109.637 104.256 109.488C104.16 109.328 104.075 109.205 104 109.12C104.597 108.597 105.168 108 105.712 107.328C106.256 106.645 106.752 105.909 107.2 105.12C107.659 104.32 108.053 103.499 108.384 102.656ZM106.624 106.912L107.792 105.728L107.808 105.76V117.248H106.624V106.912ZM123.776 103.648H134.272V117.024H132.992V104.848H125.008V117.104H123.776V103.648ZM124.608 109.184H133.536V110.368H124.608V109.184ZM124.576 114.864H133.552V116.064H124.576V114.864Z" fill="white"/>
</svg>
