<svg width="1217" height="111" viewBox="0 0 1217 111" fill="none" xmlns="http://www.w3.org/2000/svg">
<path d="M52.52 110.4C45.0533 110.4 38.1 109.187 31.66 106.76C25.3133 104.24 19.76 100.74 15 96.26C10.3333 91.6867 6.69333 86.32 4.08 80.16C1.46667 74 0.16 67.28 0.16 60C0.16 52.72 1.46667 46 4.08 39.84C6.69333 33.68 10.38 28.36 15.14 23.88C19.9 19.3067 25.4533 15.8067 31.8 13.38C38.1467 10.86 45.1 9.59999 52.66 9.59999C60.6867 9.59999 68.0133 11 74.64 13.8C81.2667 16.5067 86.8667 20.5667 91.44 25.98L79.68 37.04C76.1333 33.2133 72.1667 30.3667 67.78 28.5C63.3933 26.54 58.6333 25.56 53.5 25.56C48.3667 25.56 43.6533 26.4 39.36 28.08C35.16 29.76 31.4733 32.14 28.3 35.22C25.22 38.3 22.7933 41.94 21.02 46.14C19.34 50.34 18.5 54.96 18.5 60C18.5 65.04 19.34 69.66 21.02 73.86C22.7933 78.06 25.22 81.7 28.3 84.78C31.4733 87.86 35.16 90.24 39.36 91.92C43.6533 93.6 48.3667 94.44 53.5 94.44C58.6333 94.44 63.3933 93.5067 67.78 91.64C72.1667 89.68 76.1333 86.74 79.68 82.82L91.44 94.02C86.8667 99.34 81.2667 103.4 74.64 106.2C68.0133 109 60.64 110.4 52.52 110.4ZM165.928 109.98C158.274 109.98 151.461 108.347 145.488 105.08C139.514 101.72 134.801 97.1467 131.348 91.36C127.894 85.5733 126.168 78.9933 126.168 71.62C126.168 64.1533 127.894 57.5733 131.348 51.88C134.801 46.0933 139.514 41.5667 145.488 38.3C151.461 35.0333 158.274 33.4 165.928 33.4C173.674 33.4 180.534 35.0333 186.508 38.3C192.574 41.5667 197.288 46.0467 200.648 51.74C204.101 57.4333 205.828 64.06 205.828 71.62C205.828 78.9933 204.101 85.5733 200.648 91.36C197.288 97.1467 192.574 101.72 186.508 105.08C180.534 108.347 173.674 109.98 165.928 109.98ZM165.928 95C170.221 95 174.048 94.0667 177.408 92.2C180.768 90.3333 183.381 87.6267 185.248 84.08C187.208 80.5333 188.188 76.38 188.188 71.62C188.188 66.7667 187.208 62.6133 185.248 59.16C183.381 55.6133 180.768 52.9067 177.408 51.04C174.048 49.1733 170.268 48.24 166.068 48.24C161.774 48.24 157.948 49.1733 154.588 51.04C151.321 52.9067 148.708 55.6133 146.748 59.16C144.788 62.6133 143.808 66.7667 143.808 71.62C143.808 76.38 144.788 80.5333 146.748 84.08C148.708 87.6267 151.321 90.3333 154.588 92.2C157.948 94.0667 161.728 95 165.928 95ZM344.922 33.4C350.895 33.4 356.169 34.5667 360.742 36.9C365.409 39.2333 369.049 42.8267 371.662 47.68C374.275 52.44 375.582 58.6 375.582 66.16V109H358.082V68.4C358.082 61.7733 356.635 56.8267 353.742 53.56C350.849 50.2933 346.695 48.66 341.282 48.66C337.455 48.66 334.049 49.5 331.062 51.18C328.169 52.86 325.882 55.3333 324.202 58.6C322.615 61.8667 321.822 66.02 321.822 71.06V109H304.322V68.4C304.322 61.7733 302.875 56.8267 299.982 53.56C297.089 50.2933 292.935 48.66 287.522 48.66C283.695 48.66 280.289 49.5 277.302 51.18C274.409 52.86 272.122 55.3333 270.442 58.6C268.855 61.8667 268.062 66.02 268.062 71.06V109H250.562V34.24H267.222V54.12L264.282 48.24C266.802 43.3867 270.442 39.7 275.202 37.18C280.055 34.66 285.562 33.4 291.722 33.4C298.722 33.4 304.789 35.1267 309.922 38.58C315.149 42.0333 318.602 47.26 320.282 54.26L313.422 51.88C315.849 46.28 319.862 41.8 325.462 38.44C331.062 35.08 337.549 33.4 344.922 33.4ZM520.305 33.4C526.278 33.4 531.552 34.5667 536.125 36.9C540.792 39.2333 544.432 42.8267 547.045 47.68C549.658 52.44 550.965 58.6 550.965 66.16V109H533.465V68.4C533.465 61.7733 532.018 56.8267 529.125 53.56C526.232 50.2933 522.078 48.66 516.665 48.66C512.838 48.66 509.432 49.5 506.445 51.18C503.552 52.86 501.265 55.3333 499.585 58.6C497.998 61.8667 497.205 66.02 497.205 71.06V109H479.705V68.4C479.705 61.7733 478.258 56.8267 475.365 53.56C472.472 50.2933 468.318 48.66 462.905 48.66C459.078 48.66 455.672 49.5 452.685 51.18C449.792 52.86 447.505 55.3333 445.825 58.6C444.238 61.8667 443.445 66.02 443.445 71.06V109H425.945V34.24H442.605V54.12L439.665 48.24C442.185 43.3867 445.825 39.7 450.585 37.18C455.438 34.66 460.945 33.4 467.105 33.4C474.105 33.4 480.172 35.1267 485.305 38.58C490.532 42.0333 493.985 47.26 495.665 54.26L488.805 51.88C491.232 46.28 495.245 41.8 500.845 38.44C506.445 35.08 512.932 33.4 520.305 33.4ZM601.328 109V34.24H618.828V109H601.328ZM610.148 21.92C606.881 21.92 604.174 20.8933 602.028 18.84C599.974 16.7867 598.948 14.3133 598.948 11.42C598.948 8.43333 599.974 5.95999 602.028 3.99999C604.174 1.94666 606.881 0.919998 610.148 0.919998C613.414 0.919998 616.074 1.9 618.128 3.85999C620.274 5.72666 621.348 8.10666 621.348 11C621.348 14.08 620.321 16.6933 618.268 18.84C616.214 20.8933 613.508 21.92 610.148 21.92ZM697.936 109.98C689.723 109.98 683.376 107.88 678.896 103.68C674.416 99.3867 672.176 93.0867 672.176 84.78V17.72H689.676V84.36C689.676 87.9067 690.563 90.66 692.336 92.62C694.203 94.58 696.77 95.56 700.036 95.56C703.956 95.56 707.223 94.5333 709.836 92.48L714.736 104.94C712.683 106.62 710.163 107.88 707.176 108.72C704.19 109.56 701.11 109.98 697.936 109.98ZM659.856 48.8V34.8H709.696V48.8H659.856ZM851.492 33.4C857.466 33.4 862.739 34.5667 867.312 36.9C871.979 39.2333 875.619 42.8267 878.232 47.68C880.846 52.44 882.152 58.6 882.152 66.16V109H864.652V68.4C864.652 61.7733 863.206 56.8267 860.312 53.56C857.419 50.2933 853.266 48.66 847.852 48.66C844.026 48.66 840.619 49.5 837.632 51.18C834.739 52.86 832.452 55.3333 830.772 58.6C829.186 61.8667 828.392 66.02 828.392 71.06V109H810.892V68.4C810.892 61.7733 809.446 56.8267 806.552 53.56C803.659 50.2933 799.506 48.66 794.092 48.66C790.266 48.66 786.859 49.5 783.872 51.18C780.979 52.86 778.692 55.3333 777.012 58.6C775.426 61.8667 774.632 66.02 774.632 71.06V109H757.132V34.24H773.792V54.12L770.852 48.24C773.372 43.3867 777.012 39.7 781.772 37.18C786.626 34.66 792.132 33.4 798.292 33.4C805.292 33.4 811.359 35.1267 816.492 38.58C821.719 42.0333 825.172 47.26 826.852 54.26L819.992 51.88C822.419 46.28 826.432 41.8 832.032 38.44C837.632 35.08 844.119 33.4 851.492 33.4ZM967.792 109.98C959.485 109.98 952.205 108.347 945.952 105.08C939.792 101.72 934.985 97.1467 931.532 91.36C928.172 85.5733 926.492 78.9933 926.492 71.62C926.492 64.1533 928.125 57.5733 931.392 51.88C934.752 46.0933 939.325 41.5667 945.112 38.3C950.992 35.0333 957.665 33.4 965.132 33.4C972.412 33.4 978.899 34.9867 984.592 38.16C990.285 41.3333 994.765 45.8133 998.032 51.6C1001.3 57.3867 1002.93 64.2 1002.93 72.04C1002.93 72.7867 1002.89 73.6267 1002.79 74.56C1002.79 75.4933 1002.75 76.38 1002.65 77.22H940.352V65.6H993.412L986.552 69.24C986.645 64.9467 985.759 61.1667 983.892 57.9C982.025 54.6333 979.459 52.0667 976.192 50.2C973.019 48.3333 969.332 47.4 965.132 47.4C960.839 47.4 957.059 48.3333 953.792 50.2C950.619 52.0667 948.099 54.68 946.232 58.04C944.459 61.3067 943.572 65.18 943.572 69.66V72.46C943.572 76.94 944.599 80.9067 946.652 84.36C948.705 87.8133 951.599 90.4733 955.332 92.34C959.065 94.2067 963.359 95.14 968.212 95.14C972.412 95.14 976.192 94.4867 979.552 93.18C982.912 91.8733 985.899 89.82 988.512 87.02L997.892 97.8C994.532 101.72 990.285 104.753 985.152 106.9C980.112 108.953 974.325 109.98 967.792 109.98ZM1090.16 33.4C1096.14 33.4 1101.46 34.5667 1106.12 36.9C1110.88 39.2333 1114.62 42.8267 1117.32 47.68C1120.03 52.44 1121.38 58.6 1121.38 66.16V109H1103.88V68.4C1103.88 61.7733 1102.3 56.8267 1099.12 53.56C1096.04 50.2933 1091.7 48.66 1086.1 48.66C1082 48.66 1078.36 49.5 1075.18 51.18C1072.01 52.86 1069.54 55.38 1067.76 58.74C1066.08 62.0067 1065.24 66.16 1065.24 71.2V109H1047.74V34.24H1064.4V54.4L1061.46 48.24C1064.08 43.48 1067.86 39.84 1072.8 37.32C1077.84 34.7067 1083.63 33.4 1090.16 33.4ZM1199.72 109.98C1191.51 109.98 1185.16 107.88 1180.68 103.68C1176.2 99.3867 1173.96 93.0867 1173.96 84.78V17.72H1191.46V84.36C1191.46 87.9067 1192.35 90.66 1194.12 92.62C1195.99 94.58 1198.55 95.56 1201.82 95.56C1205.74 95.56 1209.01 94.5333 1211.62 92.48L1216.52 104.94C1214.47 106.62 1211.95 107.88 1208.96 108.72C1205.97 109.56 1202.89 109.98 1199.72 109.98ZM1161.64 48.8V34.8H1211.48V48.8H1161.64Z" fill="#F7F7F7"/>
</svg>
