<svg width="82" height="81" viewBox="0 0 82 81" fill="none" xmlns="http://www.w3.org/2000/svg">
<path d="M14.7246 26.5C13.7697 19.8914 15.417 17.1741 20.2241 14C20.4908 20.2987 20.2129 23.4595 15.2246 26.5M13.2241 35.5L22.7241 25M13.7241 35.3026C14.09 29.4597 17.1942 26.8098 22.7241 25C21.0643 31.2407 18.9287 34.3861 13.2241 36M18.7241 51C17.8743 44.7586 17.946 41.257 20.2241 35M18.4456 48.725C15.6951 42.8788 15.7558 38.4799 20.2241 35C21.0135 39.5972 21.6926 43.8076 18.389 48.1582" stroke="black" stroke-linecap="round"/>
<path d="M38.7241 63.5C-1.27588 49.5 16.7241 22.5 20.2241 14" stroke="black" stroke-linecap="round"/>
<path d="M9.72495 54.5L26.7249 58M24.2249 57.5C17.2249 59.5 14.6785 58.9223 9.72495 54.5C15.2249 51 24.7249 57.1125 24.2249 57M5.22495 42.5C7.22495 48 10.724 50 18.224 50.5C15.7832 48.9379 12.2249 47 11.4749 46.5C10.7249 46 5.22495 42.5 5.22495 42.5ZM5.22495 42.5C9.72495 43 11.7249 43.5 16.7249 49M13.7241 42.5L3.99984 31.5M12.7241 41C11.6498 36.2098 8.28018 33.454 3.99984 31.5C4.99984 36.5 7.49983 40 12.7249 41.6028M13.2249 34L6.72495 20.5M12.7249 32C12.9897 26.133 10.2486 24.1484 6.72495 20.5C6.69106 26.8131 8.57519 30.6184 13.2249 34.5M29.724 59.5C25.9609 53.3504 24.945 50.1686 23.724 43M19.724 64C22.4157 61.7535 26.7502 60.1631 36.2241 62.8051H36.5051C28.115 66.6551 24.2662 67.7674 19.724 64ZM19.724 64L35.724 63M27.9201 56C28.3646 50.9348 27.2164 46.7417 23.724 42.5C21.4593 50.2074 22.2523 53.1541 27.9201 56Z" stroke="black" stroke-linecap="round"/>
<path d="M66.7237 26.5C67.6785 19.8914 66.0313 17.1741 61.2241 14C60.9575 20.2987 61.2354 23.4595 66.2237 26.5M68.2241 35.5L58.7241 25M67.7241 35.3026C67.3582 29.4597 64.254 26.8098 58.7241 25C60.384 31.2407 62.5195 34.3861 68.2241 36M62.7241 51C63.574 44.7586 63.5023 41.257 61.2241 35M63.0026 48.725C65.7531 42.8788 65.6924 38.4799 61.2241 35C60.4347 39.5972 59.7557 43.8076 63.0592 48.1582" stroke="black" stroke-linecap="round"/>
<path d="M42.7241 63.5C82.7241 49.5 64.7241 22.5 61.2241 14" stroke="black" stroke-linecap="round"/>
<path d="M71.7233 54.5L54.7233 58M57.2233 57.5C64.2233 59.5 66.7697 58.9223 71.7233 54.5C66.2233 51 56.7233 57.1125 57.2233 57M76.2233 42.5C74.2233 48 70.7243 50 63.2243 50.5C65.6651 48.9379 69.2233 47 69.9733 46.5C70.7233 46 76.2233 42.5 76.2233 42.5ZM76.2233 42.5C71.7233 43 69.7233 43.5 64.7233 49M67.7241 42.5L77.4484 31.5M68.7241 41C69.7985 36.2098 73.1681 33.454 77.4484 31.5C76.4484 36.5 73.9484 40 68.7233 41.6028M68.2233 34L74.7233 20.5M68.7233 32C68.4585 26.133 71.1996 24.1484 74.7233 20.5C74.7572 26.8131 72.8731 30.6184 68.2233 34.5M51.7243 59.5C55.4873 53.3504 56.5032 50.1686 57.7243 43M61.7243 64C59.0326 61.7535 54.698 60.1631 45.2241 62.8051H44.9431C53.3332 66.6551 57.1821 67.7674 61.7243 64ZM61.7243 64L45.7243 63M53.5282 56C53.0837 50.9348 54.2318 46.7417 57.7243 42.5C59.9889 50.2074 59.1959 53.1541 53.5282 56Z" stroke="black" stroke-linecap="round"/>
</svg>
