<svg width="625" height="178" viewBox="0 0 625 178" fill="none" xmlns="http://www.w3.org/2000/svg">
<path d="M9.6 17.36C9.6 19.5467 10.1333 21.44 11.2 23.04C12.32 24.5867 13.7333 25.9467 15.44 27.12C17.1467 28.2933 18.96 29.4667 20.88 30.64C22.8533 31.76 24.7467 32.96 26.56 34.24C28.4267 35.52 29.9467 37.04 31.12 38.8C32.3467 40.56 32.96 42.72 32.96 45.28C32.96 47.84 32.32 50.16 31.04 52.24C29.76 54.2667 27.8933 55.8933 25.44 57.12C23.04 58.3467 20.0533 58.96 16.48 58.96C15.2 58.96 13.92 58.8533 12.64 58.64C11.4133 58.48 10.16 58.1867 8.88 57.76C7.65333 57.3333 6.42667 56.8 5.2 56.16C4.93333 56 4.74667 55.8133 4.64 55.6C4.58667 55.3333 4.53333 55.0133 4.48 54.64L3.44 43.76C3.38667 43.4933 3.49333 43.36 3.76 43.36C4.08 43.3067 4.26667 43.3867 4.32 43.6C4.69333 45.2 5.22667 46.8267 5.92 48.48C6.61333 50.1333 7.52 51.6533 8.64 53.04C9.76 54.4267 11.12 55.5467 12.72 56.4C14.32 57.2533 16.1867 57.68 18.32 57.68C19.8667 57.68 21.36 57.3867 22.8 56.8C24.2933 56.2133 25.4933 55.2533 26.4 53.92C27.36 52.5867 27.84 50.7733 27.84 48.48C27.84 45.8667 27.2533 43.7067 26.08 42C24.96 40.24 23.52 38.72 21.76 37.44C20 36.16 18.1333 34.96 16.16 33.84C14.2933 32.6667 12.48 31.4667 10.72 30.24C9.01333 29.0133 7.6 27.5733 6.48 25.92C5.41333 24.2133 4.88 22.1067 4.88 19.6C4.88 16.7733 5.6 14.4533 7.04 12.64C8.48 10.7733 10.3467 9.38666 12.64 8.48C14.9333 7.57333 17.3067 7.12 19.76 7.12C21.2533 7.12 22.8 7.28 24.4 7.6C26 7.86667 27.5733 8.34667 29.12 9.04C29.5467 9.2 29.84 9.41333 30 9.68C30.2133 9.89333 30.32 10.1333 30.32 10.4L30.88 19.52C30.88 19.7333 30.7467 19.8667 30.48 19.92C30.2133 19.92 30.0267 19.8133 29.92 19.6C29.8133 18.5333 29.52 17.36 29.04 16.08C28.56 14.7467 27.8667 13.4933 26.96 12.32C26.0533 11.1467 24.9067 10.1867 23.52 9.44C22.1333 8.69333 20.4533 8.32 18.48 8.32C16.4 8.32 14.6933 8.77333 13.36 9.68C12.08 10.5333 11.12 11.6533 10.48 13.04C9.89333 14.3733 9.6 15.8133 9.6 17.36ZM68.8169 58.48C68.6035 58.5867 68.3902 58.64 68.1769 58.64C67.4835 58.64 66.8169 58.08 66.1769 56.96C65.5369 55.7867 65.2169 54.1067 65.2169 51.92V37.6C65.2169 35.0933 64.9769 33.1467 64.4969 31.76C64.0702 30.3733 63.4569 29.4133 62.6569 28.88C61.9102 28.3467 61.0569 28.08 60.0969 28.08C58.7635 28.08 57.6702 28.4267 56.8169 29.12C55.9635 29.76 55.3235 30.5867 54.8969 31.6C54.4702 32.6133 54.1769 33.6267 54.0169 34.64C53.9635 35.3867 53.7235 36.08 53.2969 36.72C52.9235 37.36 52.1769 37.68 51.0569 37.68C50.2035 37.68 49.5369 37.4667 49.0569 37.04C48.5769 36.6133 48.3369 36.0267 48.3369 35.28C48.3369 34.32 48.8169 33.3333 49.7769 32.32C50.7369 31.2533 51.9369 30.2933 53.3769 29.44C54.8702 28.5333 56.4169 27.8133 58.0169 27.28C59.6702 26.6933 61.2169 26.4 62.6569 26.4C64.6835 26.4 66.3635 27.12 67.6969 28.56C69.0302 29.9467 69.6969 32.16 69.6969 35.2V49.36C69.6969 51.2267 69.9369 52.5867 70.4169 53.44C70.8969 54.2933 71.6702 54.72 72.7369 54.72C73.6969 54.72 75.0302 54.3733 76.7369 53.68C77.0035 53.5733 77.1902 53.68 77.2969 54C77.4035 54.2667 77.3235 54.4533 77.0569 54.56L68.8169 58.48ZM53.1369 58.56C51.4302 58.56 50.1502 58.1067 49.2969 57.2C48.4435 56.24 48.0169 55.1467 48.0169 53.92C48.0169 52.4267 48.6035 51.2533 49.7769 50.4C50.9502 49.4933 52.8702 48.5867 55.5369 47.68L66.0169 43.92L66.2569 44.8L56.9769 48.32C55.7502 48.8 54.8702 49.3333 54.3369 49.92C53.8569 50.5067 53.6169 51.2533 53.6169 52.16C53.6169 53.28 53.9369 54.16 54.5769 54.8C55.2169 55.3867 56.0435 55.68 57.0569 55.68C57.6435 55.68 58.2035 55.6267 58.7369 55.52C59.2702 55.36 59.8035 55.1467 60.3369 54.88L67.1369 51.44L67.2969 52.4L60.3369 56.16C58.7369 56.96 57.4035 57.5733 56.3369 58C55.2702 58.3733 54.2035 58.56 53.1369 58.56ZM117.155 27.12C117.262 27.12 117.315 27.28 117.315 27.6C117.315 27.92 117.262 28.08 117.155 28.08C115.822 28.08 114.675 28.5067 113.715 29.36C112.808 30.16 111.902 31.68 110.995 33.92L100.995 57.92C100.942 58.1333 100.648 58.24 100.115 58.24C99.635 58.24 99.3417 58.1333 99.235 57.92L88.035 33.76C86.915 31.36 85.9817 29.8133 85.235 29.12C84.5417 28.4267 83.6883 28.08 82.675 28.08C82.515 28.08 82.435 27.92 82.435 27.6C82.435 27.28 82.515 27.12 82.675 27.12C83.475 27.12 84.3283 27.1467 85.235 27.2C86.195 27.2533 87.1817 27.28 88.195 27.28C90.0083 27.28 91.5817 27.2533 92.915 27.2C94.2483 27.1467 95.475 27.12 96.595 27.12C96.755 27.12 96.835 27.28 96.835 27.6C96.835 27.92 96.755 28.08 96.595 28.08C94.9417 28.08 93.635 28.2933 92.675 28.72C91.715 29.0933 91.5283 29.92 92.115 31.2L102.355 52.96L100.035 56.24L109.395 33.52C110.195 31.6 110.115 30.2133 109.155 29.36C108.248 28.5067 106.408 28.08 103.635 28.08C103.528 28.08 103.475 27.92 103.475 27.6C103.475 27.28 103.528 27.12 103.635 27.12C104.915 27.12 106.115 27.1467 107.235 27.2C108.408 27.2533 109.902 27.28 111.715 27.28C112.835 27.28 113.742 27.2533 114.435 27.2C115.182 27.1467 116.088 27.12 117.155 27.12ZM142.242 59.04C139.096 59.04 136.349 58.2667 134.002 56.72C131.656 55.1733 129.842 53.12 128.562 50.56C127.282 47.9467 126.642 45.1467 126.642 42.16C126.642 39.3867 127.149 36.9867 128.162 34.96C129.176 32.9333 130.536 31.28 132.242 30C133.949 28.6667 135.789 27.68 137.762 27.04C139.789 26.4 141.762 26.08 143.682 26.08C146.936 26.08 149.709 26.88 152.002 28.48C154.349 30.08 156.136 32.1333 157.362 34.64C158.589 37.1467 159.202 39.7867 159.202 42.56C159.202 45.9733 158.429 48.9067 156.882 51.36C155.336 53.8133 153.282 55.7067 150.722 57.04C148.162 58.3733 145.336 59.04 142.242 59.04ZM144.562 57.52C147.389 57.52 149.629 56.5333 151.282 54.56C152.936 52.5333 153.762 49.28 153.762 44.8C153.762 41.44 153.202 38.48 152.082 35.92C151.016 33.3067 149.522 31.28 147.602 29.84C145.682 28.3467 143.496 27.6 141.042 27.6C138.216 27.6 136.002 28.64 134.402 30.72C132.802 32.8 132.002 35.7867 132.002 39.68C132.002 42.9333 132.536 45.92 133.602 48.64C134.669 51.36 136.136 53.52 138.002 55.12C139.922 56.72 142.109 57.52 144.562 57.52ZM179.884 36.32L179.564 35.44C181.537 33.04 183.164 31.2 184.444 29.92C185.724 28.5867 186.817 27.68 187.724 27.2C188.684 26.6667 189.59 26.4 190.444 26.4C191.564 26.4 192.657 26.72 193.724 27.36C194.844 28 195.404 28.7733 195.404 29.68C195.404 30.3733 195.164 30.96 194.684 31.44C194.257 31.92 193.617 32.16 192.764 32.16C192.07 32.16 191.484 31.9467 191.004 31.52C190.524 31.0933 190.017 30.6933 189.484 30.32C188.95 29.9467 188.257 29.76 187.404 29.76C186.924 29.76 186.417 29.8933 185.884 30.16C185.35 30.4267 184.63 31.04 183.724 32C182.817 32.9067 181.537 34.3467 179.884 36.32ZM172.044 58C171.884 58 171.804 57.84 171.804 57.52C171.804 57.2 171.884 57.04 172.044 57.04C174.124 57.04 175.457 56.6933 176.044 56C176.684 55.2533 177.004 53.76 177.004 51.52V35.68C177.004 33.92 176.79 32.64 176.364 31.84C175.99 30.9867 175.27 30.56 174.204 30.56C173.67 30.56 173.03 30.6667 172.284 30.88C171.59 31.0933 170.79 31.3867 169.884 31.76C169.67 31.8133 169.484 31.7067 169.324 31.44C169.217 31.1733 169.27 30.9867 169.484 30.88L178.764 26.48C178.924 26.4267 179.084 26.4 179.244 26.4C179.617 26.4 180.097 26.96 180.684 28.08C181.27 29.2 181.564 30.8267 181.564 32.96V51.52C181.564 53.0133 181.75 54.1867 182.124 55.04C182.497 55.84 183.244 56.3733 184.364 56.64C185.484 56.9067 187.137 57.04 189.324 57.04C189.537 57.04 189.644 57.2 189.644 57.52C189.644 57.84 189.537 58 189.324 58C188.044 58 186.524 57.9733 184.764 57.92C183.057 57.8667 181.244 57.84 179.324 57.84C177.937 57.84 176.604 57.8667 175.324 57.92C174.044 57.9733 172.95 58 172.044 58ZM244.174 58.96C242.894 58.96 241.668 58.7467 240.494 58.32C239.321 57.9467 238.361 57.28 237.614 56.32C236.868 55.36 236.494 54.0533 236.494 52.4V33.6C236.494 32.32 236.414 31.36 236.254 30.72C236.094 30.08 235.721 29.68 235.134 29.52C234.548 29.3067 233.641 29.2 232.414 29.2C232.201 29.2 232.094 29.04 232.094 28.72C232.094 28.3467 232.201 28.16 232.414 28.16C234.548 28.1067 236.281 27.52 237.614 26.4C239.001 25.28 239.774 23.84 239.934 22.08C239.934 21.92 240.121 21.84 240.494 21.84C240.921 21.84 241.134 21.92 241.134 22.08V49.68C241.134 51.8667 241.668 53.4933 242.734 54.56C243.854 55.6267 245.428 56.16 247.454 56.16C248.841 56.16 250.068 55.9467 251.134 55.52C252.254 55.04 253.161 54.5067 253.854 53.92C254.068 53.8133 254.254 53.8933 254.414 54.16C254.628 54.3733 254.628 54.56 254.414 54.72C252.441 56.2133 250.654 57.3067 249.054 58C247.508 58.64 245.881 58.96 244.174 58.96ZM251.934 31.04C249.854 30.5067 247.854 30.16 245.934 30C244.014 29.84 241.961 29.76 239.774 29.76V28C241.908 28 243.961 27.92 245.934 27.76C247.908 27.6 250.014 27.4133 252.254 27.2C252.361 27.2 252.468 27.3867 252.574 27.76C252.734 28.1333 252.814 28.5867 252.814 29.12C252.814 29.4933 252.708 29.92 252.494 30.4C252.334 30.88 252.148 31.0933 251.934 31.04ZM264.646 58C264.486 58 264.406 57.84 264.406 57.52C264.406 57.2 264.486 57.04 264.646 57.04C266.726 57.04 268.086 56.6933 268.726 56C269.366 55.2533 269.686 53.76 269.686 51.52V10.16C269.686 8.29333 269.499 6.93333 269.126 6.08C268.752 5.17333 268.086 4.72 267.126 4.72C266.326 4.72 265.099 5.09333 263.446 5.84C263.232 5.94666 263.046 5.86666 262.886 5.6C262.779 5.28 262.832 5.06666 263.046 4.96L273.206 -1.90735e-06C273.312 -1.90735e-06 273.366 -1.90735e-06 273.366 -1.90735e-06C273.366 -1.90735e-06 273.392 -1.90735e-06 273.446 -1.90735e-06C273.606 -1.90735e-06 273.766 0.0799971 273.926 0.239995C274.086 0.346663 274.166 0.479998 274.166 0.639999V51.52C274.166 53.76 274.486 55.2533 275.126 56C275.766 56.6933 277.126 57.04 279.206 57.04C279.366 57.04 279.446 57.2 279.446 57.52C279.446 57.84 279.366 58 279.206 58C278.246 58 277.152 57.9733 275.926 57.92C274.699 57.8667 273.366 57.84 271.926 57.84C270.539 57.84 269.206 57.8667 267.926 57.92C266.646 57.9733 265.552 58 264.646 58ZM286.166 58C286.006 58 285.926 57.84 285.926 57.52C285.926 57.2 286.006 57.04 286.166 57.04C288.246 57.04 289.606 56.6933 290.246 56C290.886 55.2533 291.206 53.76 291.206 51.52V38.8C291.206 32.56 288.752 29.44 283.846 29.44C281.872 29.44 279.872 30.08 277.846 31.36C275.819 32.5867 274.086 34.2667 272.646 36.4L272.326 35.44C274.672 32.24 276.992 29.92 279.286 28.48C281.632 27.04 284.032 26.32 286.486 26.32C289.419 26.32 291.686 27.1467 293.286 28.8C294.886 30.4 295.686 32.8 295.686 36V51.52C295.686 53.76 296.006 55.2533 296.646 56C297.286 56.6933 298.646 57.04 300.726 57.04C300.886 57.04 300.966 57.2 300.966 57.52C300.966 57.84 300.886 58 300.726 58C299.766 58 298.672 57.9733 297.446 57.92C296.219 57.8667 294.886 57.84 293.446 57.84C292.059 57.84 290.726 57.8667 289.446 57.92C288.166 57.9733 287.072 58 286.166 58ZM326.808 58.96C323.501 58.96 320.728 58.24 318.488 56.8C316.248 55.3067 314.568 53.3867 313.448 51.04C312.328 48.6933 311.768 46.2133 311.768 43.6C311.768 40.3467 312.514 37.44 314.008 34.88C315.554 32.2667 317.608 30.2133 320.168 28.72C322.781 27.1733 325.714 26.4 328.968 26.4C331.901 26.4 334.141 27.12 335.688 28.56C337.288 29.9467 338.088 31.8667 338.088 34.32C338.088 34.9067 338.034 35.36 337.928 35.68C337.821 36 337.554 36.16 337.128 36.16H332.488C332.701 33.5467 332.221 31.5467 331.048 30.16C329.928 28.72 328.328 28 326.248 28C323.261 28 320.968 29.12 319.368 31.36C317.821 33.6 317.048 36.64 317.048 40.48C317.048 43.52 317.528 46.2133 318.488 48.56C319.501 50.9067 320.941 52.7733 322.808 54.16C324.728 55.4933 326.994 56.16 329.608 56.16C330.994 56.16 332.408 55.9467 333.848 55.52C335.288 55.0933 336.648 54.4267 337.928 53.52C338.034 53.4133 338.168 53.4933 338.328 53.76C338.541 53.9733 338.594 54.16 338.488 54.32C336.568 55.9733 334.648 57.1733 332.728 57.92C330.808 58.6133 328.834 58.96 326.808 58.96ZM315.608 36.32L315.528 35.28L333.768 34.88V36.16L315.608 36.32ZM390.134 31.52L391.334 29.84H407.814L408.374 31.52H390.134ZM429.014 57.04C429.227 57.04 429.334 57.2 429.334 57.52C429.334 57.84 429.227 58 429.014 58C427.467 58 425.894 57.9467 424.294 57.84C422.694 57.7333 421.147 57.68 419.654 57.68C418 57.68 416.56 57.7333 415.334 57.84C414.107 57.9467 412.747 58 411.254 58C411.04 58 410.934 57.84 410.934 57.52C410.934 57.2 411.04 57.04 411.254 57.04C414.08 57.04 415.84 56.64 416.534 55.84C417.227 54.9867 417.04 53.4133 415.974 51.12L398.214 13.6L400.214 11.12L384.694 47.84C383.36 51.0933 383.28 53.44 384.454 54.88C385.627 56.32 387.947 57.04 391.414 57.04C391.68 57.04 391.814 57.2 391.814 57.52C391.814 57.84 391.68 58 391.414 58C389.814 58 388.347 57.9467 387.014 57.84C385.68 57.7333 384 57.68 381.974 57.68C380.054 57.68 378.507 57.7333 377.334 57.84C376.214 57.9467 374.827 58 373.174 58C372.96 58 372.854 57.84 372.854 57.52C372.854 57.2 372.96 57.04 373.174 57.04C374.614 57.04 375.867 56.7733 376.934 56.24C378 55.6533 378.987 54.6667 379.894 53.28C380.854 51.84 381.894 49.7867 383.014 47.12L399.894 7.28C400 7.12 400.187 7.04 400.454 7.04C400.72 7.04 400.88 7.12 400.934 7.28L419.814 47.04C421.04 49.6533 422.134 51.7067 423.094 53.2C424.054 54.64 424.987 55.6533 425.894 56.24C426.854 56.7733 427.894 57.04 429.014 57.04ZM447.106 36.32L446.786 35.44C448.759 33.04 450.386 31.2 451.666 29.92C452.946 28.5867 454.039 27.68 454.946 27.2C455.906 26.6667 456.812 26.4 457.666 26.4C458.786 26.4 459.879 26.72 460.946 27.36C462.066 28 462.626 28.7733 462.626 29.68C462.626 30.3733 462.386 30.96 461.906 31.44C461.479 31.92 460.839 32.16 459.986 32.16C459.292 32.16 458.706 31.9467 458.226 31.52C457.746 31.0933 457.239 30.6933 456.706 30.32C456.172 29.9467 455.479 29.76 454.626 29.76C454.146 29.76 453.639 29.8933 453.106 30.16C452.572 30.4267 451.852 31.04 450.946 32C450.039 32.9067 448.759 34.3467 447.106 36.32ZM439.266 58C439.106 58 439.026 57.84 439.026 57.52C439.026 57.2 439.106 57.04 439.266 57.04C441.346 57.04 442.679 56.6933 443.266 56C443.906 55.2533 444.226 53.76 444.226 51.52V35.68C444.226 33.92 444.012 32.64 443.586 31.84C443.212 30.9867 442.492 30.56 441.426 30.56C440.892 30.56 440.252 30.6667 439.506 30.88C438.812 31.0933 438.012 31.3867 437.106 31.76C436.892 31.8133 436.706 31.7067 436.546 31.44C436.439 31.1733 436.492 30.9867 436.706 30.88L445.986 26.48C446.146 26.4267 446.306 26.4 446.466 26.4C446.839 26.4 447.319 26.96 447.906 28.08C448.492 29.2 448.786 30.8267 448.786 32.96V51.52C448.786 53.0133 448.972 54.1867 449.346 55.04C449.719 55.84 450.466 56.3733 451.586 56.64C452.706 56.9067 454.359 57.04 456.546 57.04C456.759 57.04 456.866 57.2 456.866 57.52C456.866 57.84 456.759 58 456.546 58C455.266 58 453.746 57.9733 451.986 57.92C450.279 57.8667 448.466 57.84 446.546 57.84C445.159 57.84 443.826 57.8667 442.546 57.92C441.266 57.9733 440.172 58 439.266 58ZM486.246 58.96C484.966 58.96 483.74 58.7467 482.566 58.32C481.393 57.9467 480.433 57.28 479.686 56.32C478.94 55.36 478.566 54.0533 478.566 52.4V33.6C478.566 32.32 478.486 31.36 478.326 30.72C478.166 30.08 477.793 29.68 477.206 29.52C476.62 29.3067 475.713 29.2 474.486 29.2C474.273 29.2 474.166 29.04 474.166 28.72C474.166 28.3467 474.273 28.16 474.486 28.16C476.62 28.1067 478.353 27.52 479.686 26.4C481.073 25.28 481.846 23.84 482.006 22.08C482.006 21.92 482.193 21.84 482.566 21.84C482.993 21.84 483.206 21.92 483.206 22.08V49.68C483.206 51.8667 483.74 53.4933 484.806 54.56C485.926 55.6267 487.5 56.16 489.526 56.16C490.913 56.16 492.14 55.9467 493.206 55.52C494.326 55.04 495.233 54.5067 495.926 53.92C496.14 53.8133 496.326 53.8933 496.486 54.16C496.7 54.3733 496.7 54.56 496.486 54.72C494.513 56.2133 492.726 57.3067 491.126 58C489.58 58.64 487.953 58.96 486.246 58.96ZM494.006 31.04C491.926 30.5067 489.926 30.16 488.006 30C486.086 29.84 484.033 29.76 481.846 29.76V28C483.98 28 486.033 27.92 488.006 27.76C489.98 27.6 492.086 27.4133 494.326 27.2C494.433 27.2 494.54 27.3867 494.646 27.76C494.806 28.1333 494.886 28.5867 494.886 29.12C494.886 29.4933 494.78 29.92 494.566 30.4C494.406 30.88 494.22 31.0933 494.006 31.04ZM16.48 156.04C13.3333 156.04 10.5867 155.267 8.24 153.72C5.89333 152.173 4.08 150.12 2.8 147.56C1.52 144.947 0.88 142.147 0.88 139.16C0.88 136.387 1.38667 133.987 2.4 131.96C3.41333 129.933 4.77333 128.28 6.48 127C8.18667 125.667 10.0267 124.68 12 124.04C14.0267 123.4 16 123.08 17.92 123.08C21.1733 123.08 23.9467 123.88 26.24 125.48C28.5867 127.08 30.3733 129.133 31.6 131.64C32.8267 134.147 33.44 136.787 33.44 139.56C33.44 142.973 32.6667 145.907 31.12 148.36C29.5733 150.813 27.52 152.707 24.96 154.04C22.4 155.373 19.5733 156.04 16.48 156.04ZM18.8 154.52C21.6267 154.52 23.8667 153.533 25.52 151.56C27.1733 149.533 28 146.28 28 141.8C28 138.44 27.44 135.48 26.32 132.92C25.2533 130.307 23.76 128.28 21.84 126.84C19.92 125.347 17.7333 124.6 15.28 124.6C12.4533 124.6 10.24 125.64 8.64 127.72C7.04 129.8 6.24 132.787 6.24 136.68C6.24 139.933 6.77333 142.92 7.84 145.64C8.90667 148.36 10.3733 150.52 12.24 152.12C14.16 153.72 16.3467 154.52 18.8 154.52ZM45.2413 155C45.0813 155 45.0013 154.84 45.0013 154.52C45.0013 154.2 45.0813 154.04 45.2413 154.04C47.5346 154.04 49.0279 153.693 49.7213 153C50.4146 152.307 50.7613 150.813 50.7613 148.52V130.52C50.7613 129.24 50.6279 128.307 50.3613 127.72C50.0946 127.08 49.5613 126.68 48.7613 126.52C47.9613 126.307 46.6813 126.2 44.9213 126.2C44.7613 126.2 44.6813 126.04 44.6813 125.72C44.6813 125.347 44.7613 125.16 44.9213 125.16C47.1613 125.16 48.6546 124.893 49.4013 124.36C50.1479 123.827 50.5479 122.893 50.6013 121.56C50.8679 112.707 52.4946 106.387 55.4813 102.6C58.4679 98.8133 62.7079 96.92 68.2013 96.92C71.0279 96.92 73.2679 97.3467 74.9213 98.2C76.6279 99 77.4813 99.9867 77.4813 101.16C77.4813 102.013 77.1879 102.653 76.6013 103.08C76.0679 103.507 75.4279 103.72 74.6813 103.72C74.0413 103.72 73.4813 103.56 73.0013 103.24C72.5746 102.867 72.0946 102.333 71.5613 101.64C70.7613 100.573 69.8813 99.7467 68.9213 99.16C68.0146 98.5733 66.8413 98.28 65.4013 98.28C62.4679 98.28 60.0413 99.9867 58.1213 103.4C56.2546 106.813 55.3213 112.307 55.3213 119.88V148.52C55.3213 150.067 55.4813 151.24 55.8013 152.04C56.1746 152.84 56.9213 153.373 58.0413 153.64C59.1613 153.907 60.8679 154.04 63.1613 154.04C63.3213 154.04 63.4013 154.2 63.4013 154.52C63.4013 154.84 63.3213 155 63.1613 155C61.4013 155 59.6946 154.973 58.0413 154.92C56.3879 154.867 54.6813 154.84 52.9213 154.84C51.5346 154.84 50.1479 154.867 48.7613 154.92C47.4279 154.973 46.2546 155 45.2413 155ZM65.3213 128.04C63.2413 127.507 61.2413 127.16 59.3213 127C57.4546 126.84 55.4546 126.76 53.3213 126.76V125C55.4013 125 57.4013 124.92 59.3213 124.76C61.2946 124.6 63.3746 124.413 65.5613 124.2C65.7213 124.2 65.8546 124.387 65.9613 124.76C66.0679 125.133 66.1213 125.587 66.1213 126.12C66.1213 126.493 66.0413 126.92 65.8813 127.4C65.7213 127.88 65.5346 128.093 65.3213 128.04ZM101.966 155C101.86 155 101.806 154.84 101.806 154.52C101.806 154.2 101.86 154.04 101.966 154.04C103.94 154.04 105.406 153.907 106.366 153.64C107.38 153.373 108.046 152.84 108.366 152.04C108.74 151.24 108.926 150.067 108.926 148.52V111.48C108.926 109.933 108.74 108.787 108.366 108.04C108.046 107.24 107.406 106.707 106.446 106.44C105.486 106.12 104.02 105.96 102.046 105.96C101.94 105.96 101.886 105.8 101.886 105.48C101.886 105.16 101.94 105 102.046 105H134.206C134.686 105 134.926 105.24 134.926 105.72L135.086 115.56C135.086 115.72 134.926 115.827 134.606 115.88C134.34 115.88 134.206 115.8 134.206 115.64C134.046 112.76 133.166 110.547 131.566 109C130.02 107.453 127.993 106.68 125.486 106.68H120.606C117.94 106.68 116.18 107 115.326 107.64C114.473 108.28 114.046 109.587 114.046 111.56V148.2C114.046 149.8 114.26 151.027 114.686 151.88C115.166 152.68 116.1 153.24 117.486 153.56C118.926 153.88 121.033 154.04 123.806 154.04C123.966 154.04 124.046 154.2 124.046 154.52C124.046 154.84 123.966 155 123.806 155C122.046 155 120.153 154.973 118.126 154.92C116.153 154.867 113.94 154.84 111.486 154.84C109.726 154.84 108.02 154.867 106.366 154.92C104.713 154.973 103.246 155 101.966 155ZM130.126 137.32C130.126 134.973 129.486 133.293 128.206 132.28C126.98 131.267 124.9 130.76 121.966 130.76H111.646V129.08H122.206C125.033 129.08 127.033 128.627 128.206 127.72C129.433 126.813 130.046 125.4 130.046 123.48C130.046 123.373 130.206 123.32 130.526 123.32C130.846 123.32 131.006 123.373 131.006 123.48C131.006 125.08 130.98 126.333 130.926 127.24C130.926 128.093 130.926 129 130.926 129.96C130.926 131.187 130.953 132.387 131.006 133.56C131.06 134.733 131.086 135.987 131.086 137.32C131.086 137.427 130.926 137.48 130.606 137.48C130.286 137.48 130.126 137.427 130.126 137.32ZM157.149 133.32L156.829 132.44C158.803 130.04 160.429 128.2 161.709 126.92C162.989 125.587 164.083 124.68 164.989 124.2C165.949 123.667 166.856 123.4 167.709 123.4C168.829 123.4 169.923 123.72 170.989 124.36C172.109 125 172.669 125.773 172.669 126.68C172.669 127.373 172.429 127.96 171.949 128.44C171.523 128.92 170.883 129.16 170.029 129.16C169.336 129.16 168.749 128.947 168.269 128.52C167.789 128.093 167.283 127.693 166.749 127.32C166.216 126.947 165.523 126.76 164.669 126.76C164.189 126.76 163.683 126.893 163.149 127.16C162.616 127.427 161.896 128.04 160.989 129C160.083 129.907 158.803 131.347 157.149 133.32ZM149.309 155C149.149 155 149.069 154.84 149.069 154.52C149.069 154.2 149.149 154.04 149.309 154.04C151.389 154.04 152.723 153.693 153.309 153C153.949 152.253 154.269 150.76 154.269 148.52V132.68C154.269 130.92 154.056 129.64 153.629 128.84C153.256 127.987 152.536 127.56 151.469 127.56C150.936 127.56 150.296 127.667 149.549 127.88C148.856 128.093 148.056 128.387 147.149 128.76C146.936 128.813 146.749 128.707 146.589 128.44C146.483 128.173 146.536 127.987 146.749 127.88L156.029 123.48C156.189 123.427 156.349 123.4 156.509 123.4C156.883 123.4 157.363 123.96 157.949 125.08C158.536 126.2 158.829 127.827 158.829 129.96V148.52C158.829 150.013 159.016 151.187 159.389 152.04C159.763 152.84 160.509 153.373 161.629 153.64C162.749 153.907 164.403 154.04 166.589 154.04C166.803 154.04 166.909 154.2 166.909 154.52C166.909 154.84 166.803 155 166.589 155C165.309 155 163.789 154.973 162.029 154.92C160.323 154.867 158.509 154.84 156.589 154.84C155.203 154.84 153.869 154.867 152.589 154.92C151.309 154.973 150.216 155 149.309 155ZM198.233 155.96C194.926 155.96 192.153 155.24 189.913 153.8C187.673 152.307 185.993 150.387 184.873 148.04C183.753 145.693 183.193 143.213 183.193 140.6C183.193 137.347 183.939 134.44 185.433 131.88C186.979 129.267 189.033 127.213 191.593 125.72C194.206 124.173 197.139 123.4 200.393 123.4C203.326 123.4 205.566 124.12 207.113 125.56C208.713 126.947 209.513 128.867 209.513 131.32C209.513 131.907 209.459 132.36 209.353 132.68C209.246 133 208.979 133.16 208.553 133.16H203.913C204.126 130.547 203.646 128.547 202.473 127.16C201.353 125.72 199.753 125 197.673 125C194.686 125 192.393 126.12 190.793 128.36C189.246 130.6 188.473 133.64 188.473 137.48C188.473 140.52 188.953 143.213 189.913 145.56C190.926 147.907 192.366 149.773 194.233 151.16C196.153 152.493 198.419 153.16 201.033 153.16C202.419 153.16 203.833 152.947 205.273 152.52C206.713 152.093 208.073 151.427 209.353 150.52C209.459 150.413 209.593 150.493 209.753 150.76C209.966 150.973 210.019 151.16 209.913 151.32C207.993 152.973 206.073 154.173 204.153 154.92C202.233 155.613 200.259 155.96 198.233 155.96ZM187.033 133.32L186.953 132.28L205.193 131.88V133.16L187.033 133.32ZM244.489 155C244.329 155 244.249 154.84 244.249 154.52C244.249 154.2 244.329 154.04 244.489 154.04C246.569 154.04 247.902 153.693 248.489 153C249.129 152.253 249.449 150.76 249.449 148.52V135.56C249.449 132.36 248.862 130.04 247.689 128.6C246.515 127.107 244.649 126.36 242.089 126.36C240.169 126.36 238.195 126.973 236.169 128.2C234.142 129.427 232.409 131.107 230.969 133.24L230.649 132.28C232.995 129.133 235.315 126.813 237.609 125.32C239.955 123.827 242.329 123.08 244.729 123.08C247.662 123.08 249.929 123.907 251.529 125.56C253.182 127.16 254.009 129.587 254.009 132.84V148.52C254.009 150.76 254.302 152.253 254.889 153C255.529 153.693 256.889 154.04 258.969 154.04C259.129 154.04 259.209 154.2 259.209 154.52C259.209 154.84 259.129 155 258.969 155C258.062 155 256.969 154.973 255.689 154.92C254.462 154.867 253.155 154.84 251.769 154.84C250.382 154.84 249.049 154.867 247.769 154.92C246.489 154.973 245.395 155 244.489 155ZM222.969 155C222.809 155 222.729 154.84 222.729 154.52C222.729 154.2 222.809 154.04 222.969 154.04C225.049 154.04 226.382 153.693 226.969 153C227.609 152.253 227.929 150.76 227.929 148.52V132.68C227.929 130.92 227.715 129.64 227.289 128.84C226.915 127.987 226.195 127.56 225.129 127.56C224.595 127.56 223.955 127.667 223.209 127.88C222.515 128.093 221.715 128.387 220.809 128.76C220.595 128.813 220.409 128.707 220.249 128.44C220.142 128.173 220.195 127.987 220.409 127.88L229.689 123.48C229.849 123.427 230.009 123.4 230.169 123.4C230.542 123.4 231.022 123.96 231.609 125.08C232.195 126.2 232.489 127.827 232.489 129.96V148.52C232.489 150.76 232.782 152.253 233.369 153C234.009 153.693 235.369 154.04 237.449 154.04C237.609 154.04 237.689 154.2 237.689 154.52C237.689 154.84 237.609 155 237.449 155C236.542 155 235.449 154.973 234.169 154.92C232.942 154.867 231.635 154.84 230.249 154.84C228.862 154.84 227.529 154.867 226.249 154.92C224.969 154.973 223.875 155 222.969 155ZM285.577 155.96C281.95 155.96 278.99 155.187 276.697 153.64C274.404 152.04 272.697 150.04 271.577 147.64C270.51 145.187 269.977 142.707 269.977 140.2C269.977 137.533 270.484 135.16 271.497 133.08C272.564 131 273.95 129.24 275.657 127.8C277.364 126.36 279.257 125.267 281.337 124.52C283.417 123.773 285.444 123.4 287.417 123.4C288.964 123.4 290.43 123.613 291.817 124.04C293.257 124.413 294.43 124.973 295.337 125.72C296.297 126.467 296.777 127.32 296.777 128.28C296.777 128.973 296.537 129.587 296.057 130.12C295.577 130.6 294.884 130.84 293.977 130.84C293.124 130.84 292.404 130.573 291.817 130.04C291.284 129.507 290.83 128.893 290.457 128.2C289.87 127.24 289.177 126.467 288.377 125.88C287.577 125.293 286.377 125 284.777 125C281.737 125 279.39 126.2 277.737 128.6C276.084 130.947 275.257 134.013 275.257 137.8C275.257 140.52 275.71 143.053 276.617 145.4C277.577 147.747 279.044 149.64 281.017 151.08C282.99 152.467 285.55 153.16 288.697 153.16C290.137 153.16 291.55 152.973 292.937 152.6C294.324 152.227 295.63 151.533 296.857 150.52C296.964 150.413 297.097 150.467 297.257 150.68C297.47 150.893 297.524 151.053 297.417 151.16C295.55 152.813 293.684 154.04 291.817 154.84C289.95 155.587 287.87 155.96 285.577 155.96ZM308.468 155C308.308 155 308.228 154.84 308.228 154.52C308.228 154.2 308.308 154.04 308.468 154.04C310.548 154.04 311.908 153.693 312.548 153C313.188 152.253 313.508 150.76 313.508 148.52V107.16C313.508 105.293 313.321 103.933 312.948 103.08C312.574 102.173 311.908 101.72 310.948 101.72C310.148 101.72 308.921 102.093 307.268 102.84C307.054 102.947 306.868 102.867 306.708 102.6C306.601 102.28 306.654 102.067 306.868 101.96L317.028 97C317.134 97 317.188 97 317.188 97C317.188 97 317.214 97 317.268 97C317.428 97 317.588 97.08 317.748 97.24C317.908 97.3467 317.988 97.48 317.988 97.64V148.52C317.988 150.76 318.308 152.253 318.948 153C319.588 153.693 320.948 154.04 323.028 154.04C323.188 154.04 323.268 154.2 323.268 154.52C323.268 154.84 323.188 155 323.028 155C322.068 155 320.974 154.973 319.748 154.92C318.521 154.867 317.188 154.84 315.748 154.84C314.361 154.84 313.028 154.867 311.748 154.92C310.468 154.973 309.374 155 308.468 155ZM329.988 155C329.828 155 329.748 154.84 329.748 154.52C329.748 154.2 329.828 154.04 329.988 154.04C332.068 154.04 333.428 153.693 334.068 153C334.708 152.253 335.028 150.76 335.028 148.52V135.8C335.028 129.56 332.574 126.44 327.668 126.44C325.694 126.44 323.694 127.08 321.668 128.36C319.641 129.587 317.908 131.267 316.468 133.4L316.148 132.44C318.494 129.24 320.814 126.92 323.108 125.48C325.454 124.04 327.854 123.32 330.308 123.32C333.241 123.32 335.508 124.147 337.108 125.8C338.708 127.4 339.508 129.8 339.508 133V148.52C339.508 150.76 339.828 152.253 340.468 153C341.108 153.693 342.468 154.04 344.548 154.04C344.708 154.04 344.788 154.2 344.788 154.52C344.788 154.84 344.708 155 344.548 155C343.588 155 342.494 154.973 341.268 154.92C340.041 154.867 338.708 154.84 337.268 154.84C335.881 154.84 334.548 154.867 333.268 154.92C331.988 154.973 330.894 155 329.988 155ZM401.859 127.64L402.739 126.76C405.886 126.76 408.633 127.347 410.979 128.52C413.379 129.693 415.219 131.293 416.499 133.32C417.833 135.347 418.499 137.667 418.499 140.28C418.499 143.107 417.806 145.667 416.419 147.96C415.033 150.253 413.113 152.067 410.659 153.4C408.259 154.68 405.566 155.32 402.579 155.32C400.873 155.32 398.926 155.24 396.739 155.08C394.606 154.92 392.633 154.84 390.819 154.84C389.059 154.84 387.353 154.867 385.699 154.92C384.099 154.973 382.633 155 381.299 155C381.193 155 381.139 154.84 381.139 154.52C381.139 154.2 381.193 154.04 381.299 154.04C383.219 154.04 384.686 153.907 385.699 153.64C386.713 153.373 387.406 152.84 387.779 152.04C388.153 151.24 388.339 150.067 388.339 148.52V111.48C388.339 109.933 388.153 108.787 387.779 108.04C387.459 107.24 386.793 106.707 385.779 106.44C384.819 106.12 383.379 105.96 381.459 105.96C381.299 105.96 381.219 105.8 381.219 105.48C381.219 105.16 381.299 105 381.459 105C382.739 105 384.179 105.053 385.779 105.16C387.379 105.213 389.059 105.24 390.819 105.24C392.206 105.24 393.806 105.16 395.619 105C397.433 104.84 398.979 104.76 400.259 104.76C403.406 104.76 405.966 105.24 407.939 106.2C409.913 107.107 411.353 108.36 412.259 109.96C413.219 111.56 413.699 113.347 413.699 115.32C413.699 118.36 412.579 120.947 410.339 123.08C408.153 125.213 405.326 126.733 401.859 127.64ZM398.499 105.96C397.273 105.96 396.286 106.067 395.539 106.28C394.793 106.493 394.259 107 393.939 107.8C393.619 108.547 393.459 109.827 393.459 111.64V127.32L390.899 126.68C392.606 126.787 394.019 126.867 395.139 126.92C396.259 126.92 396.899 126.92 397.059 126.92C401.166 126.92 404.099 125.88 405.859 123.8C407.619 121.667 408.499 119.053 408.499 115.96C408.499 114.093 408.153 112.413 407.459 110.92C406.819 109.373 405.779 108.173 404.339 107.32C402.899 106.413 400.953 105.96 398.499 105.96ZM401.379 153.88C405.379 153.88 408.286 152.867 410.099 150.84C411.966 148.76 412.899 145.907 412.899 142.28C412.899 138.28 411.726 135 409.379 132.44C407.033 129.88 403.753 128.6 399.539 128.6C398.206 128.547 396.819 128.547 395.379 128.6C393.993 128.653 392.579 128.787 391.139 129L393.459 128.12V148.52C393.459 149.8 393.646 150.84 394.019 151.64C394.393 152.44 395.139 153.027 396.259 153.4C397.433 153.72 399.139 153.88 401.379 153.88ZM453.989 155.48C453.775 155.587 453.562 155.64 453.349 155.64C452.655 155.64 451.989 155.08 451.349 153.96C450.709 152.787 450.389 151.107 450.389 148.92V134.6C450.389 132.093 450.149 130.147 449.669 128.76C449.242 127.373 448.629 126.413 447.829 125.88C447.082 125.347 446.229 125.08 445.269 125.08C443.935 125.08 442.842 125.427 441.989 126.12C441.135 126.76 440.495 127.587 440.069 128.6C439.642 129.613 439.349 130.627 439.189 131.64C439.135 132.387 438.895 133.08 438.469 133.72C438.095 134.36 437.349 134.68 436.229 134.68C435.375 134.68 434.709 134.467 434.229 134.04C433.749 133.613 433.509 133.027 433.509 132.28C433.509 131.32 433.989 130.333 434.949 129.32C435.909 128.253 437.109 127.293 438.549 126.44C440.042 125.533 441.589 124.813 443.189 124.28C444.842 123.693 446.389 123.4 447.829 123.4C449.855 123.4 451.535 124.12 452.869 125.56C454.202 126.947 454.869 129.16 454.869 132.2V146.36C454.869 148.227 455.109 149.587 455.589 150.44C456.069 151.293 456.842 151.72 457.909 151.72C458.869 151.72 460.202 151.373 461.909 150.68C462.175 150.573 462.362 150.68 462.469 151C462.575 151.267 462.495 151.453 462.229 151.56L453.989 155.48ZM438.309 155.56C436.602 155.56 435.322 155.107 434.469 154.2C433.615 153.24 433.189 152.147 433.189 150.92C433.189 149.427 433.775 148.253 434.949 147.4C436.122 146.493 438.042 145.587 440.709 144.68L451.189 140.92L451.429 141.8L442.149 145.32C440.922 145.8 440.042 146.333 439.509 146.92C439.029 147.507 438.789 148.253 438.789 149.16C438.789 150.28 439.109 151.16 439.749 151.8C440.389 152.387 441.215 152.68 442.229 152.68C442.815 152.68 443.375 152.627 443.909 152.52C444.442 152.36 444.975 152.147 445.509 151.88L452.309 148.44L452.469 149.4L445.509 153.16C443.909 153.96 442.575 154.573 441.509 155C440.442 155.373 439.375 155.56 438.309 155.56ZM470.864 155C470.704 155 470.624 154.84 470.624 154.52C470.624 154.2 470.704 154.04 470.864 154.04C472.944 154.04 474.304 153.693 474.944 153C475.584 152.253 475.904 150.76 475.904 148.52V107.16C475.904 105.293 475.718 103.933 475.344 103.08C474.971 102.173 474.304 101.72 473.344 101.72C472.544 101.72 471.318 102.093 469.664 102.84C469.451 102.947 469.264 102.84 469.104 102.52C468.998 102.2 469.051 102.013 469.264 101.96L479.264 97.08C479.424 97.0267 479.558 97 479.664 97C479.824 97 479.984 97.08 480.144 97.24C480.304 97.3467 480.384 97.48 480.384 97.64V148.52C480.384 150.76 480.704 152.253 481.344 153C481.984 153.693 483.344 154.04 485.424 154.04C485.584 154.04 485.664 154.2 485.664 154.52C485.664 154.84 485.584 155 485.424 155C484.464 155 483.371 154.973 482.144 154.92C480.918 154.867 479.584 154.84 478.144 154.84C476.758 154.84 475.424 154.867 474.144 154.92C472.864 154.973 471.771 155 470.864 155ZM490.944 155C490.838 155 490.784 154.84 490.784 154.52C490.784 154.2 490.838 154.04 490.944 154.04C492.864 154.04 494.091 153.8 494.624 153.32C495.158 152.787 495.024 151.933 494.224 150.76L484.064 136.92L487.824 134.2L498.224 148.52C499.664 150.6 501.158 152.04 502.704 152.84C504.304 153.64 505.878 154.04 507.424 154.04C507.584 154.04 507.664 154.2 507.664 154.52C507.664 154.84 507.584 155 507.424 155C506.464 155 505.371 154.973 504.144 154.92C502.918 154.867 501.584 154.84 500.144 154.84C498.118 154.84 496.384 154.867 494.944 154.92C493.504 154.973 492.171 155 490.944 155ZM478.944 141.64L478.624 140.68L491.104 130.6C493.184 128.947 494.011 127.613 493.584 126.6C493.211 125.587 491.718 125.08 489.104 125.08C488.944 125.08 488.864 124.92 488.864 124.6C488.864 124.28 488.944 124.12 489.104 124.12C490.384 124.12 491.664 124.147 492.944 124.2C494.278 124.253 496.038 124.28 498.224 124.28C500.251 124.28 501.851 124.253 503.024 124.2C504.251 124.147 505.398 124.12 506.464 124.12C506.624 124.12 506.704 124.28 506.704 124.6C506.704 124.92 506.624 125.08 506.464 125.08C505.238 125.08 503.878 125.293 502.384 125.72C500.891 126.093 499.318 126.707 497.664 127.56C496.064 128.413 494.411 129.507 492.704 130.84L478.944 141.64ZM518.721 155C518.615 155 518.561 154.84 518.561 154.52C518.561 154.2 518.615 154.04 518.721 154.04C520.801 154.04 522.161 153.693 522.801 153C523.495 152.253 523.841 150.76 523.841 148.52V133.56C523.841 131.693 523.655 130.333 523.281 129.48C522.908 128.573 522.215 128.12 521.201 128.12C520.775 128.12 520.268 128.227 519.681 128.44C519.095 128.6 518.401 128.867 517.601 129.24C517.388 129.293 517.201 129.187 517.041 128.92C516.935 128.6 516.961 128.387 517.121 128.28L527.521 123.48C527.681 123.427 527.788 123.4 527.841 123.4C527.948 123.4 528.081 123.48 528.241 123.64C528.401 123.747 528.481 123.88 528.481 124.04C528.481 124.467 528.455 125.507 528.401 127.16C528.348 128.813 528.321 130.92 528.321 133.48V148.52C528.321 150.76 528.615 152.253 529.201 153C529.841 153.693 531.228 154.04 533.361 154.04C533.521 154.04 533.601 154.2 533.601 154.52C533.601 154.84 533.521 155 533.361 155C532.401 155 531.281 154.973 530.001 154.92C528.775 154.867 527.468 154.84 526.081 154.84C524.695 154.84 523.361 154.867 522.081 154.92C520.855 154.973 519.735 155 518.721 155ZM525.441 114.04C524.321 114.04 523.441 113.747 522.801 113.16C522.215 112.573 521.921 111.747 521.921 110.68C521.921 109.613 522.215 108.787 522.801 108.2C523.441 107.613 524.321 107.32 525.441 107.32C526.508 107.32 527.335 107.613 527.921 108.2C528.508 108.787 528.801 109.613 528.801 110.68C528.801 112.92 527.681 114.04 525.441 114.04ZM567.876 155C567.716 155 567.636 154.84 567.636 154.52C567.636 154.2 567.716 154.04 567.876 154.04C569.956 154.04 571.29 153.693 571.876 153C572.516 152.253 572.836 150.76 572.836 148.52V135.56C572.836 132.36 572.25 130.04 571.076 128.6C569.903 127.107 568.036 126.36 565.476 126.36C563.556 126.36 561.583 126.973 559.556 128.2C557.53 129.427 555.796 131.107 554.356 133.24L554.036 132.28C556.383 129.133 558.703 126.813 560.996 125.32C563.343 123.827 565.716 123.08 568.116 123.08C571.05 123.08 573.316 123.907 574.916 125.56C576.57 127.16 577.396 129.587 577.396 132.84V148.52C577.396 150.76 577.69 152.253 578.276 153C578.916 153.693 580.276 154.04 582.356 154.04C582.516 154.04 582.596 154.2 582.596 154.52C582.596 154.84 582.516 155 582.356 155C581.45 155 580.356 154.973 579.076 154.92C577.85 154.867 576.543 154.84 575.156 154.84C573.77 154.84 572.436 154.867 571.156 154.92C569.876 154.973 568.783 155 567.876 155ZM546.356 155C546.196 155 546.116 154.84 546.116 154.52C546.116 154.2 546.196 154.04 546.356 154.04C548.436 154.04 549.77 153.693 550.356 153C550.996 152.253 551.316 150.76 551.316 148.52V132.68C551.316 130.92 551.103 129.64 550.676 128.84C550.303 127.987 549.583 127.56 548.516 127.56C547.983 127.56 547.343 127.667 546.596 127.88C545.903 128.093 545.103 128.387 544.196 128.76C543.983 128.813 543.796 128.707 543.636 128.44C543.53 128.173 543.583 127.987 543.796 127.88L553.076 123.48C553.236 123.427 553.396 123.4 553.556 123.4C553.93 123.4 554.41 123.96 554.996 125.08C555.583 126.2 555.876 127.827 555.876 129.96V148.52C555.876 150.76 556.17 152.253 556.756 153C557.396 153.693 558.756 154.04 560.836 154.04C560.996 154.04 561.076 154.2 561.076 154.52C561.076 154.84 560.996 155 560.836 155C559.93 155 558.836 154.973 557.556 154.92C556.33 154.867 555.023 154.84 553.636 154.84C552.25 154.84 550.916 154.867 549.636 154.92C548.356 154.973 547.263 155 546.356 155ZM604.324 177.56C600.484 177.56 597.418 176.627 595.124 174.76C592.831 172.947 591.684 170.653 591.684 167.88C591.684 166.173 592.138 164.52 593.044 162.92C594.004 161.32 595.391 159.72 597.204 158.12C599.018 156.573 601.258 155 603.924 153.4L604.724 154.28C603.391 155.133 602.084 156.013 600.804 156.92C599.524 157.88 598.458 159 597.604 160.28C596.804 161.613 596.404 163.293 596.404 165.32C596.404 168.36 597.391 170.76 599.364 172.52C601.391 174.28 604.111 175.16 607.524 175.16C610.244 175.16 612.538 174.653 614.404 173.64C616.271 172.68 617.684 171.4 618.644 169.8C619.604 168.2 620.084 166.547 620.084 164.84C620.084 163.133 619.658 161.773 618.804 160.76C617.951 159.747 616.831 158.947 615.444 158.36C614.058 157.827 612.511 157.427 610.804 157.16C609.151 156.893 607.498 156.653 605.844 156.44C604.191 156.227 602.564 155.907 600.964 155.48C599.364 155.107 598.031 154.493 596.964 153.64C595.898 152.787 595.364 151.587 595.364 150.04C595.364 148.333 596.004 146.707 597.284 145.16C598.618 143.613 600.191 142.307 602.004 141.24L602.564 141.8C601.498 142.44 600.644 143.24 600.004 144.2C599.418 145.16 599.124 146.173 599.124 147.24C599.124 148.467 599.551 149.427 600.404 150.12C601.311 150.813 602.458 151.32 603.844 151.64C605.284 151.96 606.751 152.227 608.244 152.44C610.111 152.707 611.978 153 613.844 153.32C615.711 153.64 617.418 154.12 618.964 154.76C620.564 155.347 621.844 156.2 622.804 157.32C623.764 158.493 624.244 160.067 624.244 162.04C624.244 163.853 623.711 165.667 622.644 167.48C621.631 169.293 620.218 170.947 618.404 172.44C616.591 173.987 614.458 175.213 612.004 176.12C609.604 177.08 607.044 177.56 604.324 177.56ZM606.164 142.6C603.658 142.6 601.551 142.173 599.844 141.32C598.191 140.413 596.911 139.213 596.004 137.72C595.098 136.227 594.644 134.653 594.644 133C594.644 131.133 595.178 129.507 596.244 128.12C597.311 126.68 598.778 125.56 600.644 124.76C602.564 123.96 604.698 123.56 607.044 123.56C609.764 123.56 611.951 124.04 613.604 125C615.258 125.907 616.431 127.053 617.124 128.44C617.871 129.773 618.244 131.16 618.244 132.6C618.244 134.413 617.738 136.093 616.724 137.64C615.764 139.133 614.378 140.333 612.564 141.24C610.751 142.147 608.618 142.6 606.164 142.6ZM607.844 141.48C609.284 141.48 610.538 140.947 611.604 139.88C612.724 138.76 613.284 136.867 613.284 134.2C613.284 131.32 612.431 129.027 610.724 127.32C609.071 125.613 607.178 124.76 605.044 124.76C603.551 124.76 602.271 125.267 601.204 126.28C600.138 127.293 599.604 128.973 599.604 131.32C599.604 133.453 600.004 135.267 600.804 136.76C601.604 138.253 602.644 139.427 603.924 140.28C605.204 141.08 606.511 141.48 607.844 141.48ZM613.684 129.56L613.764 126.92C615.364 125.853 616.938 125.027 618.484 124.44C620.084 123.8 621.844 123.48 623.764 123.48C623.871 123.48 623.951 123.667 624.004 124.04C624.111 124.413 624.164 124.813 624.164 125.24C624.164 125.827 624.084 126.467 623.924 127.16C623.818 127.8 623.658 128.067 623.444 127.96C622.911 127.747 622.191 127.507 621.284 127.24C620.378 126.92 619.338 126.76 618.164 126.76C617.471 126.76 616.804 126.813 616.164 126.92C615.578 127.027 614.991 127.16 614.404 127.32L613.684 129.56Z" fill="white"/>
</svg>
