<svg width="163" height="44" viewBox="0 0 163 44" fill="none" xmlns="http://www.w3.org/2000/svg">
<path d="M4.272 20.936C3.92 20.936 3.512 20.896 3.048 20.816C2.6 20.752 2.16 20.632 1.728 20.456C1.312 20.28 0.96 20.032 0.672 19.712C0.4 19.376 0.264 18.96 0.264 18.464C0.264 17.872 0.528 17.336 1.056 16.856C1.584 16.36 2.328 16.112 3.288 16.112C3.992 16.112 4.648 16.232 5.256 16.472C5.864 16.696 6.456 16.976 7.032 17.312C7.624 17.632 8.232 17.952 8.856 18.272C9.656 17.504 10.384 16.552 11.04 15.416C11.712 14.28 12.376 13.064 13.032 11.768C13.704 10.456 14.424 9.144 15.192 7.832C15.976 6.52 16.88 5.288 17.904 4.136L19.296 2.576C18.704 2.48 18.088 2.408 17.448 2.36C16.808 2.296 16.144 2.264 15.456 2.264C14.512 2.264 13.48 2.344 12.36 2.504C11.256 2.664 10.152 2.912 9.048 3.248C7.96 3.584 6.96 4.008 6.048 4.52C5.152 5.032 4.432 5.64 3.888 6.344C3.344 7.048 3.072 7.856 3.072 8.768C3.072 9.392 3.208 9.888 3.48 10.256C3.768 10.624 4.12 10.896 4.536 11.072C4.968 11.232 5.4 11.312 5.832 11.312C6.552 11.312 7.16 11.152 7.656 10.832C8.152 10.496 8.52 10.112 8.76 9.68C9.016 9.248 9.144 8.864 9.144 8.528C9.144 8.416 9.224 8.36 9.384 8.36C9.544 8.36 9.624 8.488 9.624 8.744C9.624 9.4 9.424 9.968 9.024 10.448C8.624 10.928 8.12 11.296 7.512 11.552C6.92 11.808 6.32 11.936 5.712 11.936C5.152 11.936 4.576 11.8 3.984 11.528C3.408 11.256 2.928 10.848 2.544 10.304C2.16 9.76 1.968 9.088 1.968 8.288C1.968 7.328 2.24 6.48 2.784 5.744C3.328 4.992 4.056 4.352 4.968 3.824C5.88 3.296 6.896 2.864 8.016 2.528C9.136 2.176 10.264 1.92 11.4 1.76C12.552 1.6 13.632 1.52 14.64 1.52C15.568 1.52 16.472 1.568 17.352 1.664C18.248 1.744 19.088 1.872 19.872 2.048C20.096 1.856 20.32 1.688 20.544 1.544C20.784 1.4 21 1.288 21.192 1.208C21.368 1.128 21.512 1.088 21.624 1.088C21.752 1.088 21.816 1.136 21.816 1.232C21.816 1.28 21.728 1.368 21.552 1.496C21.344 1.656 21.16 1.808 21 1.952C20.856 2.08 20.768 2.176 20.736 2.24C22.368 2.656 23.688 3.232 24.696 3.968C25.72 4.688 26.232 5.544 26.232 6.536C26.232 7.352 25.952 8.072 25.392 8.696C24.832 9.304 24.096 9.784 23.184 10.136C22.288 10.488 21.328 10.688 20.304 10.736C21.744 11.2 22.888 11.8 23.736 12.536C24.6 13.272 25.032 14.208 25.032 15.344C25.032 16.192 24.784 16.96 24.288 17.648C23.808 18.336 23.16 18.928 22.344 19.424C21.544 19.904 20.664 20.272 19.704 20.528C18.744 20.8 17.792 20.936 16.848 20.936C15.36 20.936 14.04 20.784 12.888 20.48C11.752 20.176 10.568 19.744 9.336 19.184C7.784 20.352 6.096 20.936 4.272 20.936ZM16.512 20.24C17.504 20.24 18.408 20.088 19.224 19.784C20.04 19.48 20.744 19.08 21.336 18.584C21.944 18.088 22.408 17.536 22.728 16.928C23.064 16.32 23.232 15.72 23.232 15.128C23.232 14.568 23.064 14.032 22.728 13.52C22.392 12.992 21.864 12.552 21.144 12.2C20.216 11.736 19.4 11.416 18.696 11.24C17.992 11.048 17.432 10.872 17.016 10.712C16.856 10.632 16.752 10.576 16.704 10.544C16.656 10.512 16.632 10.48 16.632 10.448C16.632 10.288 16.712 10.16 16.872 10.064C17.032 9.968 17.216 9.92 17.424 9.92C17.744 9.92 18.088 9.944 18.456 9.992C18.824 10.04 19.216 10.064 19.632 10.064C20.672 10.064 21.568 9.856 22.32 9.44C23.072 9.024 23.648 8.504 24.048 7.88C24.464 7.256 24.672 6.64 24.672 6.032C24.672 5.344 24.368 4.744 23.76 4.232C23.152 3.704 22.048 3.232 20.448 2.816C19.648 3.92 18.848 5.16 18.048 6.536C17.248 7.896 16.448 9.28 15.648 10.688C14.848 12.08 14.04 13.4 13.224 14.648C12.408 15.896 11.592 16.968 10.776 17.864C10.584 18.072 10.432 18.232 10.32 18.344C10.208 18.44 10.056 18.576 9.864 18.752C10.824 19.152 11.88 19.504 13.032 19.808C14.184 20.096 15.344 20.24 16.512 20.24ZM3.792 20.192C4.688 20.24 5.504 20.136 6.24 19.88C6.992 19.608 7.688 19.232 8.328 18.752C7.944 18.56 7.456 18.312 6.864 18.008C6.272 17.704 5.672 17.44 5.064 17.216C4.456 16.976 3.928 16.856 3.48 16.856C2.888 16.856 2.44 17.016 2.136 17.336C1.832 17.64 1.68 17.992 1.68 18.392C1.68 18.808 1.856 19.208 2.208 19.592C2.56 19.96 3.088 20.16 3.792 20.192ZM28.0279 20C27.3719 20 26.8839 19.768 26.5639 19.304C26.2599 18.824 26.1079 18.248 26.1079 17.576C26.1079 16.952 26.2279 16.304 26.4679 15.632C26.7239 14.896 27.0759 14.224 27.5239 13.616C27.9879 13.008 28.4919 12.52 29.0359 12.152C29.5959 11.768 30.1479 11.576 30.6919 11.576C31.3479 11.576 31.8279 11.8 32.1319 12.248C32.4519 12.696 32.6119 13.264 32.6119 13.952C32.6119 14.432 32.5319 14.936 32.3719 15.464C32.2119 15.992 31.9959 16.512 31.7239 17.024C31.9319 17.232 32.2279 17.336 32.6119 17.336C33.0599 17.336 33.4439 17.192 33.7639 16.904C34.0839 16.616 34.3959 16.104 34.6999 15.368C34.8919 15.368 34.9879 15.44 34.9879 15.584C34.6839 16.32 34.3319 16.864 33.9319 17.216C33.5479 17.552 33.0519 17.712 32.4439 17.696C32.0759 17.696 31.7719 17.592 31.5319 17.384C31.0839 18.12 30.5479 18.744 29.9239 19.256C29.3159 19.752 28.6839 20 28.0279 20ZM28.3639 19.472C28.7319 19.472 29.0999 19.32 29.4679 19.016C29.8359 18.696 30.1719 18.336 30.4759 17.936C30.7799 17.536 30.9959 17.192 31.1239 16.904C30.8679 16.44 30.7159 16.096 30.6679 15.872C30.6359 15.632 30.6199 15.456 30.6199 15.344C30.6199 15.04 30.6999 14.808 30.8599 14.648C31.0199 14.488 31.1799 14.408 31.3399 14.408C31.5639 14.408 31.7559 14.504 31.9159 14.696C31.9479 14.52 31.9719 14.36 31.9879 14.216C32.0039 14.056 32.0119 13.904 32.0119 13.76C32.0119 13.344 31.9319 13.008 31.7719 12.752C31.6279 12.48 31.3959 12.344 31.0759 12.344C30.7399 12.344 30.3879 12.488 30.0199 12.776C29.6519 13.064 29.2999 13.448 28.9639 13.928C28.6439 14.408 28.3639 14.944 28.1239 15.536C27.9159 16.032 27.7559 16.504 27.6439 16.952C27.5319 17.384 27.4759 17.784 27.4759 18.152C27.4759 18.552 27.5479 18.872 27.6919 19.112C27.8359 19.352 28.0599 19.472 28.3639 19.472ZM35.3933 20C35.2173 20 35.0013 19.96 34.7453 19.88C34.5053 19.8 34.2893 19.656 34.0973 19.448C33.9213 19.224 33.8333 18.896 33.8333 18.464C33.8333 18.048 33.9693 17.568 34.2413 17.024C34.5133 16.48 34.7533 16 34.9613 15.584C34.7853 15.584 34.6973 15.512 34.6973 15.368C34.7133 15.32 34.7853 15.168 34.9133 14.912C35.0413 14.656 35.1933 14.352 35.3693 14C35.5453 13.648 35.7133 13.312 35.8733 12.992C36.0493 12.656 36.1853 12.4 36.2812 12.224C36.4733 11.872 36.7773 11.696 37.1933 11.696H38.6813C38.4093 11.904 38.1613 12.136 37.9373 12.392C37.7293 12.632 37.4653 13.08 37.1453 13.736C37.1453 13.736 37.0893 13.848 36.9773 14.072C36.8653 14.296 36.7213 14.584 36.5453 14.936C36.3853 15.272 36.2173 15.616 36.0413 15.968C35.8813 16.32 35.7453 16.616 35.6333 16.856C35.4253 17.304 35.2893 17.664 35.2253 17.936C35.1613 18.192 35.1293 18.432 35.1293 18.656C35.1293 19.184 35.3053 19.448 35.6573 19.448C36.0413 19.448 36.5053 19.136 37.0493 18.512C37.4973 17.984 37.9373 17.352 38.3693 16.616C38.8013 15.88 39.2093 15.12 39.5933 14.336C39.9933 13.552 40.3453 12.848 40.6493 12.224C40.8253 11.872 41.1373 11.696 41.5853 11.696H42.9053C42.5533 11.984 42.1933 12.416 41.8253 12.992C41.4733 13.568 41.0813 14.304 40.6493 15.2C40.5373 15.44 40.3933 15.744 40.2173 16.112C40.0413 16.48 39.8813 16.872 39.7373 17.288C39.6093 17.704 39.5453 18.12 39.5453 18.536C39.5453 19.096 39.7453 19.376 40.1453 19.376C40.6893 19.376 41.2173 19 41.7293 18.248C42.2413 17.496 42.7453 16.536 43.2413 15.368C43.3693 15.368 43.4413 15.376 43.4573 15.392C43.4893 15.408 43.5133 15.472 43.5293 15.584C43.3533 16.016 43.1373 16.488 42.8813 17C42.6413 17.496 42.3613 17.976 42.0413 18.44C41.7373 18.904 41.3933 19.28 41.0093 19.568C40.6413 19.856 40.2333 20 39.7853 20C39.3853 20 39.0573 19.856 38.8013 19.568C38.5453 19.264 38.4173 18.84 38.4173 18.296C38.4173 17.864 38.4973 17.4 38.6573 16.904C38.3853 17.384 38.0733 17.864 37.7213 18.344C37.3693 18.824 36.9933 19.224 36.5933 19.544C36.1933 19.848 35.7933 20 35.3933 20ZM44.3799 20.072C43.7879 20.072 43.3479 19.896 43.0599 19.544C42.7879 19.176 42.6519 18.744 42.6519 18.248C42.6519 17.736 42.7239 17.208 42.8679 16.664C43.0119 16.12 43.1399 15.664 43.2519 15.296C43.5079 14.4 43.8279 13.448 44.2119 12.44C44.6119 11.416 45.0439 10.416 45.5079 9.44C45.9879 8.448 46.4599 7.56 46.9239 6.776C47.2919 6.152 47.6839 5.688 48.0999 5.384C48.5319 5.064 48.9079 4.904 49.2279 4.904C49.4839 4.904 49.6839 5 49.8279 5.192C49.9879 5.368 50.0679 5.64 50.0679 6.008C50.0679 6.264 50.0199 6.568 49.9239 6.92C49.8439 7.272 49.6999 7.672 49.4919 8.12C48.9319 9.368 48.2599 10.616 47.4759 11.864C46.7079 13.112 45.7319 14.28 44.5479 15.368C44.3559 15.816 44.1959 16.296 44.0679 16.808C43.9399 17.32 43.8759 17.736 43.8759 18.056C43.8759 19.048 44.2119 19.544 44.8839 19.544C45.3959 19.544 45.9639 19.176 46.5879 18.44C47.2119 17.688 47.8039 16.664 48.3639 15.368C48.4279 15.368 48.4919 15.384 48.5559 15.416C48.6199 15.432 48.6519 15.488 48.6519 15.584C48.4759 16.016 48.2519 16.496 47.9799 17.024C47.7239 17.536 47.4199 18.024 47.0679 18.488C46.7319 18.952 46.3399 19.336 45.8919 19.64C45.4439 19.928 44.9399 20.072 44.3799 20.072ZM44.7399 14.6C45.3159 14.008 45.8759 13.328 46.4199 12.56C46.9639 11.776 47.4679 10.968 47.9319 10.136C48.4119 9.288 48.8119 8.488 49.1319 7.736C49.2439 7.496 49.3319 7.232 49.3959 6.944C49.4759 6.656 49.5159 6.416 49.5159 6.224C49.5159 6 49.4599 5.888 49.3479 5.888C49.2839 5.888 49.1879 5.952 49.0599 6.08C48.9319 6.192 48.7639 6.392 48.5559 6.68C48.2519 7.08 47.9159 7.624 47.5479 8.312C47.1959 9 46.8359 9.736 46.4679 10.52C46.0999 11.304 45.7639 12.064 45.4599 12.8C45.1559 13.52 44.9159 14.12 44.7399 14.6ZM53.5693 20.072C53.2013 20.072 52.8733 19.968 52.5853 19.76C52.3133 19.552 52.1773 19.128 52.1773 18.488C52.1773 18.216 52.1933 17.96 52.2253 17.72C52.2733 17.48 52.3293 17.224 52.3933 16.952C52.2493 17.192 52.0493 17.488 51.7933 17.84C51.5373 18.192 51.2493 18.536 50.9293 18.872C50.6253 19.208 50.3053 19.488 49.9693 19.712C49.6493 19.936 49.3453 20.048 49.0573 20.048C48.6413 20.048 48.3053 19.864 48.0493 19.496C47.7933 19.112 47.6653 18.616 47.6653 18.008C47.6653 17.352 47.8173 16.648 48.1213 15.896C48.4253 15.144 48.8413 14.424 49.3693 13.736C49.8973 13.048 50.5053 12.488 51.1933 12.056C51.8813 11.624 52.6013 11.408 53.3533 11.408C53.7213 11.408 54.0733 11.472 54.4093 11.6C54.7453 11.712 55.0413 11.904 55.2973 12.176C55.4093 12.288 55.4653 12.416 55.4653 12.56C55.4653 12.656 55.4253 12.736 55.3453 12.8C55.2653 12.864 55.1613 12.88 55.0333 12.848C54.8573 12.288 54.4813 12.008 53.9053 12.008C53.6333 12.008 53.3213 12.096 52.9693 12.272C52.5373 12.496 52.0733 12.856 51.5773 13.352C51.0973 13.832 50.6413 14.384 50.2093 15.008C49.7933 15.616 49.4493 16.232 49.1773 16.856C48.9053 17.48 48.7693 18.048 48.7693 18.56C48.7693 19.088 48.9693 19.352 49.3693 19.352C49.7213 19.352 50.0813 19.184 50.4493 18.848C50.8333 18.512 51.1933 18.096 51.5293 17.6C51.8813 17.088 52.2013 16.584 52.4893 16.088C52.7773 15.592 53.0013 15.192 53.1613 14.888C53.4013 14.456 53.6253 14.096 53.8333 13.808C54.0413 13.52 54.3373 13.376 54.7213 13.376C54.8973 13.376 55.0733 13.4 55.2493 13.448C55.4253 13.496 55.6093 13.504 55.8013 13.472C55.3213 13.952 54.8973 14.52 54.5293 15.176C54.1773 15.832 53.9053 16.48 53.7133 17.12C53.5213 17.744 53.4253 18.272 53.4253 18.704C53.4253 19.184 53.5853 19.424 53.9053 19.424C54.1613 19.424 54.4333 19.28 54.7213 18.992C55.0253 18.704 55.3133 18.344 55.5853 17.912C55.8733 17.464 56.1373 17.016 56.3773 16.568C56.6173 16.104 56.8093 15.704 56.9533 15.368C57.0333 15.368 57.0973 15.376 57.1453 15.392C57.2093 15.408 57.2413 15.472 57.2413 15.584C57.2253 15.648 57.1933 15.72 57.1453 15.8C57.1133 15.864 57.0573 15.984 56.9773 16.16C56.8493 16.416 56.6733 16.76 56.4493 17.192C56.2253 17.624 55.9613 18.064 55.6573 18.512C55.3533 18.944 55.0253 19.312 54.6733 19.616C54.3213 19.92 53.9533 20.072 53.5693 20.072ZM54.6589 20.192C55.2349 19.024 55.7869 17.872 56.3149 16.736C56.8429 15.584 57.3869 14.488 57.9469 13.448C58.2669 12.872 58.5389 12.472 58.7629 12.248C58.9869 12.008 59.2829 11.888 59.6509 11.888C59.7789 11.888 59.9149 11.912 60.0589 11.96C60.2029 11.992 60.3469 12.008 60.4909 12.008C60.5869 12.008 60.6589 12 60.7069 11.984C60.4829 12.112 60.1869 12.432 59.8189 12.944C59.4669 13.44 59.1069 14.016 58.7389 14.672C58.3709 15.328 58.0429 15.944 57.7549 16.52C58.0589 16.152 58.3789 15.784 58.7149 15.416C59.0509 15.048 59.4189 14.696 59.8189 14.36C60.2029 14.024 60.6589 13.68 61.1869 13.328C61.7309 12.96 62.2589 12.656 62.7709 12.416C63.2829 12.176 63.6909 12.056 63.9949 12.056C64.1069 12.056 64.1869 12.064 64.2349 12.08C64.2349 12.08 64.1469 12.24 63.9709 12.56C63.7949 12.864 63.5709 13.272 63.2989 13.784C63.0429 14.28 62.7789 14.816 62.5069 15.392C62.2349 15.952 61.9869 16.496 61.7629 17.024C61.5549 17.536 61.4189 17.968 61.3549 18.32C61.3069 18.528 61.2829 18.72 61.2829 18.896C61.2829 19.152 61.3309 19.32 61.4269 19.4C61.5229 19.48 61.6269 19.52 61.7389 19.52C62.0429 19.52 62.3549 19.384 62.6749 19.112C62.9949 18.84 63.2989 18.496 63.5869 18.08C63.8909 17.648 64.1709 17.192 64.4269 16.712C64.6829 16.232 64.8989 15.784 65.0749 15.368C65.2669 15.368 65.3629 15.44 65.3629 15.584C65.1869 16.016 64.9629 16.496 64.6909 17.024C64.4349 17.536 64.1389 18.024 63.8029 18.488C63.4829 18.952 63.1229 19.336 62.7229 19.64C62.3229 19.944 61.8909 20.096 61.4269 20.096C61.1069 20.096 60.7709 19.984 60.4189 19.76C60.0829 19.536 59.9149 19.12 59.9149 18.512C59.9149 18.336 59.9309 18.152 59.9629 17.96C59.9949 17.752 60.0509 17.528 60.1309 17.288C60.2589 16.968 60.4109 16.624 60.5869 16.256C60.7629 15.888 61.0509 15.384 61.4509 14.744C61.5629 14.568 61.6269 14.432 61.6429 14.336C61.6749 14.24 61.6909 14.16 61.6909 14.096C61.6909 13.904 61.6029 13.808 61.4269 13.808C61.2829 13.808 61.0669 13.888 60.7789 14.048C60.5069 14.208 60.1629 14.488 59.7469 14.888C59.3469 15.272 58.8669 15.816 58.3069 16.52C57.7629 17.224 57.1309 18.264 56.4109 19.64C56.2989 19.848 56.1709 19.96 56.0269 19.976C55.8989 19.992 55.7149 20.008 55.4749 20.024C55.3149 20.04 55.1629 20.048 55.0189 20.048C54.8749 20.064 54.7549 20.112 54.6589 20.192ZM63.4162 27.656C61.8962 27.656 61.1362 27.032 61.1362 25.784C61.1362 25.192 61.3442 24.664 61.7602 24.2C62.1762 23.736 62.6722 23.336 63.2482 23C64.0482 22.52 64.8322 22.136 65.6003 21.848C66.3683 21.56 67.1043 21.304 67.8083 21.08C68.5123 20.872 69.1683 20.64 69.7763 20.384C69.9203 19.968 70.0403 19.512 70.1363 19.016C70.2323 18.504 70.3043 18.008 70.3523 17.528C70.4003 17.048 70.4243 16.632 70.4243 16.28C70.4243 15.912 70.4003 15.672 70.3523 15.56C70.1763 15.896 69.9363 16.312 69.6323 16.808C69.3443 17.304 69.0003 17.8 68.6003 18.296C68.2163 18.776 67.8083 19.176 67.3763 19.496C66.9443 19.816 66.5043 19.976 66.0563 19.976C65.8963 19.976 65.7443 19.952 65.6003 19.904C65.1523 19.712 64.8243 19.44 64.6163 19.088C64.4243 18.736 64.3283 18.336 64.3283 17.888C64.3283 17.168 64.5363 16.392 64.9523 15.56C65.3683 14.728 65.8643 13.968 66.4403 13.28C66.9043 12.72 67.4483 12.272 68.0723 11.936C68.6963 11.6 69.3283 11.432 69.9683 11.432C70.7043 11.432 71.3923 11.68 72.0323 12.176C72.2723 12.368 72.3923 12.576 72.3923 12.8C72.3923 13.04 72.2963 13.16 72.1043 13.16C71.9443 13.16 71.8323 13.056 71.7683 12.848C71.5443 12.256 71.1843 11.96 70.6883 11.96C70.2883 11.96 69.8323 12.136 69.3203 12.488C68.8083 12.824 68.3283 13.248 67.8803 13.76C67.4963 14.192 67.1203 14.688 66.7523 15.248C66.4003 15.808 66.1043 16.36 65.8643 16.904C65.6403 17.448 65.5283 17.92 65.5283 18.32C65.5283 18.592 65.5923 18.824 65.7203 19.016C65.8483 19.208 66.0483 19.304 66.3203 19.304C66.6883 19.304 67.0723 19.128 67.4723 18.776C67.8883 18.424 68.2803 17.992 68.6483 17.48C69.0323 16.968 69.3603 16.448 69.6323 15.92C69.9203 15.392 70.1203 14.952 70.2323 14.6C70.3443 14.232 70.4963 14.008 70.6883 13.928C70.8803 13.832 71.0723 13.784 71.2643 13.784C71.4563 13.784 71.6163 13.736 71.7443 13.64C71.8083 13.992 71.8483 14.352 71.8643 14.72C71.8963 15.072 71.9123 15.432 71.9123 15.8C71.9123 16.536 71.8643 17.208 71.7683 17.816C71.6883 18.424 71.5443 19.072 71.3363 19.76C71.9123 19.408 72.4083 18.968 72.8243 18.44C73.2563 17.896 73.6083 17.352 73.8803 16.808C74.1683 16.248 74.4003 15.768 74.5763 15.368C74.7683 15.368 74.8643 15.44 74.8643 15.584C74.6563 16.016 74.3923 16.544 74.0723 17.168C73.7683 17.792 73.3763 18.4 72.8963 18.992C72.4323 19.568 71.8483 20.016 71.1443 20.336C70.8723 21.104 70.4803 21.912 69.9683 22.76C69.4723 23.608 68.8803 24.4 68.1923 25.136C67.5043 25.888 66.7523 26.496 65.9363 26.96C65.1203 27.424 64.2803 27.656 63.4162 27.656ZM62.8402 27.176C63.1922 27.176 63.5602 27.096 63.9443 26.936C64.3443 26.792 64.7203 26.616 65.0723 26.408C65.4243 26.2 65.6963 26.024 65.8883 25.88C66.2563 25.592 66.6323 25.232 67.0163 24.8C67.4003 24.368 67.7363 23.952 68.0243 23.552C68.2963 23.168 68.5763 22.76 68.8643 22.328C69.1523 21.912 69.3843 21.496 69.5603 21.08L68.5763 21.392C68.0483 21.552 67.4643 21.744 66.8242 21.968C66.2003 22.208 65.5763 22.472 64.9523 22.76C64.3283 23.048 63.7603 23.36 63.2482 23.696C62.8002 24 62.4322 24.4 62.1442 24.896C61.8402 25.392 61.6882 25.824 61.6882 26.192C61.6882 26.464 61.7842 26.696 61.9762 26.888C62.1522 27.08 62.4402 27.176 62.8402 27.176ZM76.3159 20.096C75.7239 20.096 75.1879 19.904 74.7079 19.52C74.2439 19.136 74.0119 18.552 74.0119 17.768C74.0119 17.112 74.1559 16.416 74.4439 15.68C74.7479 14.944 75.1399 14.256 75.6199 13.616C76.1159 12.96 76.6599 12.432 77.2519 12.032C77.8599 11.616 78.4679 11.408 79.0759 11.408C79.3799 11.408 79.6759 11.496 79.9639 11.672C80.2519 11.848 80.3959 12.152 80.3959 12.584C80.3959 12.984 80.2439 13.424 79.9399 13.904C79.6359 14.384 79.2039 14.832 78.6439 15.248C78.4039 15.424 78.0999 15.592 77.7319 15.752C77.3639 15.912 76.9959 16.048 76.6279 16.16C76.2599 16.256 75.9559 16.304 75.7159 16.304C75.6359 16.496 75.5559 16.752 75.4759 17.072C75.4119 17.392 75.3799 17.72 75.3799 18.056C75.3799 18.456 75.4599 18.816 75.6199 19.136C75.7799 19.456 76.0759 19.616 76.5079 19.616C77.0359 19.616 77.5239 19.464 77.9719 19.16C78.4359 18.856 78.8439 18.472 79.1959 18.008C79.5639 17.544 79.8759 17.072 80.1319 16.592C80.3879 16.112 80.5879 15.704 80.7319 15.368C80.9239 15.368 81.0199 15.44 81.0199 15.584C80.8119 16.032 80.5719 16.52 80.2999 17.048C80.0439 17.576 79.7319 18.072 79.3639 18.536C79.0119 18.984 78.5799 19.36 78.0679 19.664C77.5719 19.952 76.9879 20.096 76.3159 20.096ZM75.8839 15.872C76.1079 15.872 76.4839 15.792 77.0119 15.632C77.5399 15.456 78.0199 15.184 78.4519 14.816C78.8679 14.448 79.1879 14.048 79.4119 13.616C79.6359 13.168 79.7479 12.792 79.7479 12.488C79.7479 12.136 79.6199 11.96 79.3639 11.96C79.1719 11.96 78.9079 12.088 78.5719 12.344C78.2359 12.6 77.8199 13.032 77.3239 13.64C77.0199 14.024 76.7319 14.44 76.4599 14.888C76.1879 15.336 75.9959 15.664 75.8839 15.872ZM80.7525 15.296C80.8805 15.024 81.0485 14.592 81.2565 14C81.4645 13.392 81.6805 12.72 81.9045 11.984C82.1285 11.248 82.2965 10.552 82.4085 9.896C82.4565 9.64 82.5445 9.456 82.6725 9.344C82.8005 9.216 82.9365 9.152 83.0805 9.152C83.2885 9.152 83.4805 9.256 83.6565 9.464C83.8325 9.656 83.9205 9.936 83.9205 10.304C83.9205 10.752 83.7845 11.136 83.5125 11.456C83.2565 11.776 82.9365 12.08 82.5525 12.368C82.7125 12.384 82.8805 12.4 83.0565 12.416C83.2325 12.416 83.4245 12.416 83.6325 12.416C84.3845 12.416 85.1285 12.368 85.8645 12.272C85.8965 12.368 85.9125 12.44 85.9125 12.488C85.9125 12.696 85.8485 12.96 85.7205 13.28C85.6085 13.6 85.4885 13.888 85.3605 14.144C85.2965 14.288 85.1685 14.552 84.9765 14.936C84.7845 15.304 84.5765 15.728 84.3525 16.208C84.1285 16.672 83.9365 17.136 83.7765 17.6C83.6325 18.048 83.5605 18.432 83.5605 18.752C83.5605 19.168 83.7205 19.376 84.0405 19.376C84.3445 19.376 84.7685 19.024 85.3125 18.32C85.8565 17.6 86.4005 16.616 86.9445 15.368C87.1365 15.368 87.2325 15.44 87.2325 15.584C87.0565 16.016 86.8325 16.488 86.5605 17C86.3045 17.512 86.0165 18 85.6965 18.464C85.3765 18.912 85.0325 19.288 84.6645 19.592C84.2965 19.88 83.9125 20.024 83.5125 20.024C83.2085 20.024 82.9045 19.904 82.6005 19.664C82.2965 19.408 82.1445 19 82.1445 18.44C82.1445 17.944 82.2405 17.464 82.4325 17C82.6245 16.52 82.8405 16.072 83.0805 15.656C83.3205 15.24 83.5365 14.872 83.7285 14.552C83.9205 14.232 84.0165 13.976 84.0165 13.784C84.0165 13.496 83.8325 13.288 83.4645 13.16C83.1125 13.032 82.6485 12.96 82.0725 12.944C81.7845 13.68 81.5685 14.224 81.4245 14.576C81.2805 14.928 81.1445 15.264 81.0165 15.584C80.7605 15.584 80.6725 15.488 80.7525 15.296ZM87.6114 20C87.0194 20 86.6034 19.832 86.3634 19.496C86.1234 19.144 86.0034 18.744 86.0034 18.296C86.0034 18.056 86.0274 17.816 86.0754 17.576C86.1394 17.32 86.2114 17.088 86.2914 16.88L87.8994 12.776C87.9474 12.648 87.9714 12.536 87.9714 12.44C87.9714 12.28 87.9314 12.144 87.8514 12.032C87.7714 11.904 87.7154 11.816 87.6834 11.768L89.0034 11.72C89.2434 11.704 89.4114 11.736 89.5074 11.816C89.6194 11.88 89.6754 11.96 89.6754 12.056C89.6754 12.152 89.6194 12.328 89.5074 12.584C89.3474 12.968 89.1314 13.448 88.8594 14.024C88.5874 14.6 88.3154 15.192 88.0434 15.8C87.7874 16.408 87.5634 16.976 87.3714 17.504C87.1954 18.032 87.1074 18.44 87.1074 18.728C87.1074 18.936 87.1554 19.112 87.2514 19.256C87.3634 19.4 87.5474 19.472 87.8034 19.472C88.1394 19.472 88.4674 19.344 88.7874 19.088C89.1234 18.816 89.4354 18.472 89.7234 18.056C90.0114 17.64 90.2754 17.192 90.5154 16.712C90.7714 16.232 90.9874 15.784 91.1634 15.368C91.3554 15.368 91.4514 15.44 91.4514 15.584C91.2914 15.984 91.0834 16.44 90.8274 16.952C90.5714 17.464 90.2754 17.952 89.9394 18.416C89.6194 18.864 89.2594 19.24 88.8594 19.544C88.4754 19.848 88.0594 20 87.6114 20ZM89.7474 10.232C89.5394 10.232 89.3554 10.152 89.1954 9.992C89.0514 9.832 88.9794 9.64 88.9794 9.416C88.9794 9.144 89.0914 8.904 89.3154 8.696C89.5394 8.472 89.7874 8.36 90.0594 8.36C90.2834 8.36 90.4754 8.432 90.6354 8.576C90.7954 8.72 90.8754 8.904 90.8754 9.128C90.8754 9.416 90.7634 9.672 90.5394 9.896C90.3154 10.12 90.0514 10.232 89.7474 10.232ZM92.8862 20.096C92.2942 20.096 91.7582 19.904 91.2782 19.52C90.8142 19.136 90.5822 18.552 90.5822 17.768C90.5822 17.112 90.7262 16.416 91.0142 15.68C91.3182 14.944 91.7102 14.256 92.1902 13.616C92.6862 12.96 93.2302 12.432 93.8222 12.032C94.4302 11.616 95.0382 11.408 95.6462 11.408C95.9502 11.408 96.2462 11.496 96.5342 11.672C96.8222 11.848 96.9662 12.152 96.9662 12.584C96.9662 12.984 96.8142 13.424 96.5102 13.904C96.2062 14.384 95.7742 14.832 95.2142 15.248C94.9742 15.424 94.6702 15.592 94.3022 15.752C93.9342 15.912 93.5662 16.048 93.1982 16.16C92.8302 16.256 92.5262 16.304 92.2862 16.304C92.2062 16.496 92.1262 16.752 92.0462 17.072C91.9822 17.392 91.9502 17.72 91.9502 18.056C91.9502 18.456 92.0302 18.816 92.1902 19.136C92.3502 19.456 92.6462 19.616 93.0782 19.616C93.6062 19.616 94.0942 19.464 94.5422 19.16C95.0062 18.856 95.4142 18.472 95.7662 18.008C96.1342 17.544 96.4462 17.072 96.7022 16.592C96.9582 16.112 97.1582 15.704 97.3022 15.368C97.4942 15.368 97.5902 15.44 97.5902 15.584C97.3822 16.032 97.1422 16.52 96.8702 17.048C96.6142 17.576 96.3022 18.072 95.9342 18.536C95.5822 18.984 95.1502 19.36 94.6382 19.664C94.1422 19.952 93.5582 20.096 92.8862 20.096ZM92.4542 15.872C92.6782 15.872 93.0542 15.792 93.5822 15.632C94.1102 15.456 94.5902 15.184 95.0222 14.816C95.4382 14.448 95.7582 14.048 95.9822 13.616C96.2062 13.168 96.3182 12.792 96.3182 12.488C96.3182 12.136 96.1902 11.96 95.9342 11.96C95.7422 11.96 95.4782 12.088 95.1422 12.344C94.8062 12.6 94.3902 13.032 93.8942 13.64C93.5902 14.024 93.3022 14.44 93.0302 14.888C92.7582 15.336 92.5662 15.664 92.4542 15.872ZM113.064 21.536C112.36 21.536 111.864 21.256 111.576 20.696C111.288 20.152 111.144 19.512 111.144 18.776C111.144 18.12 111.232 17.472 111.408 16.832C111.6 16.192 111.824 15.704 112.08 15.368C111.648 15.88 111.112 16.464 110.472 17.12C109.832 17.776 109.128 18.408 108.36 19.016C107.592 19.624 106.8 20.128 105.984 20.528C105.168 20.928 104.36 21.128 103.56 21.128C102.504 21.128 101.712 20.792 101.184 20.12C100.672 19.448 100.416 18.528 100.416 17.36C100.416 16.448 100.568 15.472 100.872 14.432C101.192 13.376 101.656 12.304 102.264 11.216C102.552 10.688 102.872 10.168 103.224 9.656C103.592 9.128 103.984 8.632 104.4 8.168C103.904 7.928 103.424 7.664 102.96 7.376C102.496 7.072 102.12 6.712 101.832 6.296C101.544 5.88 101.4 5.384 101.4 4.808C101.4 4.504 101.464 4.232 101.592 3.992C101.736 3.736 101.888 3.608 102.048 3.608C102.192 3.608 102.264 3.696 102.264 3.872C102.264 3.984 102.232 4.104 102.168 4.232C102.088 4.44 102.048 4.632 102.048 4.808C102.048 5.24 102.2 5.648 102.504 6.032C102.808 6.4 103.176 6.72 103.608 6.992C104.04 7.264 104.44 7.48 104.808 7.64C105.832 6.52 106.952 5.488 108.168 4.544C109.4 3.584 110.72 2.816 112.128 2.24C113.536 1.664 115.016 1.376 116.568 1.376C117.864 1.376 118.88 1.664 119.616 2.24C120.352 2.8 120.72 3.528 120.72 4.424C120.72 5.224 120.488 5.912 120.024 6.488C119.576 7.048 118.984 7.52 118.248 7.904C117.512 8.272 116.712 8.568 115.848 8.792C115 9 114.16 9.152 113.328 9.248C112.496 9.328 111.768 9.368 111.144 9.368C110.232 9.368 109.344 9.312 108.48 9.2C107.632 9.088 106.784 8.912 105.936 8.672C105.52 9.264 105.064 9.952 104.568 10.736C104.088 11.504 103.624 12.32 103.176 13.184C102.744 14.032 102.384 14.88 102.096 15.728C101.824 16.56 101.688 17.336 101.688 18.056C101.688 18.84 101.872 19.432 102.24 19.832C102.608 20.216 103.104 20.408 103.728 20.408C104.48 20.408 105.272 20.184 106.104 19.736C106.952 19.272 107.8 18.672 108.648 17.936C109.496 17.2 110.304 16.4 111.072 15.536C111.84 14.672 112.528 13.816 113.136 12.968C113.744 12.12 114.224 11.368 114.576 10.712C114.848 10.2 115.112 9.84 115.368 9.632C115.624 9.408 115.84 9.296 116.016 9.296C116.192 9.296 116.328 9.368 116.424 9.512C116.52 9.64 116.568 9.816 116.568 10.04C116.568 10.488 116.368 10.936 115.968 11.384C115.424 12.008 114.896 12.768 114.384 13.664C113.872 14.544 113.456 15.472 113.136 16.448C112.816 17.408 112.656 18.312 112.656 19.16C112.656 19.752 112.744 20.176 112.92 20.432C113.112 20.688 113.36 20.816 113.664 20.816C114.128 20.816 114.592 20.656 115.056 20.336C115.536 20.032 115.992 19.616 116.424 19.088C116.856 18.56 117.256 17.976 117.624 17.336C117.992 16.68 118.312 16.024 118.584 15.368C118.664 15.368 118.728 15.376 118.776 15.392C118.84 15.408 118.872 15.472 118.872 15.584C118.6 16.272 118.272 16.968 117.888 17.672C117.52 18.376 117.096 19.024 116.616 19.616C116.136 20.192 115.6 20.656 115.008 21.008C114.416 21.36 113.768 21.536 113.064 21.536ZM110.928 8.792C111.568 8.792 112.28 8.76 113.064 8.696C113.848 8.616 114.624 8.48 115.392 8.288C116.176 8.096 116.896 7.824 117.552 7.472C118.208 7.12 118.736 6.672 119.136 6.128C119.536 5.584 119.736 4.92 119.736 4.136C119.736 3.432 119.44 2.896 118.848 2.528C118.272 2.16 117.536 1.976 116.64 1.976C115.152 1.976 113.792 2.272 112.56 2.864C111.344 3.44 110.224 4.2 109.2 5.144C108.192 6.088 107.232 7.104 106.32 8.192C107.024 8.4 107.744 8.552 108.48 8.648C109.232 8.744 110.048 8.792 110.928 8.792ZM116.252 20.12C116.844 18.984 117.404 17.848 117.932 16.712C118.46 15.56 118.996 14.472 119.54 13.448C119.86 12.872 120.124 12.472 120.332 12.248C120.556 12.008 120.852 11.888 121.22 11.888C121.348 11.888 121.484 11.912 121.628 11.96C121.772 11.992 121.916 12.008 122.06 12.008C122.156 12.008 122.228 12 122.276 11.984C122.052 12.112 121.764 12.432 121.412 12.944C121.06 13.44 120.7 14.016 120.332 14.672C119.964 15.328 119.636 15.944 119.348 16.52C119.652 16.152 119.964 15.784 120.284 15.416C120.62 15.048 120.988 14.696 121.388 14.36C121.74 14.056 122.108 13.728 122.492 13.376C122.892 13.008 123.284 12.696 123.668 12.44C124.052 12.184 124.388 12.056 124.676 12.056C124.788 12.056 124.86 12.064 124.892 12.08C125.196 12.208 125.348 12.416 125.348 12.704C125.348 12.8 125.308 12.944 125.228 13.136C125.02 13.68 124.748 14.24 124.412 14.816C124.092 15.376 123.788 15.944 123.5 16.52C123.74 16.232 124.036 15.88 124.388 15.464C124.756 15.048 125.124 14.68 125.492 14.36C125.844 14.04 126.292 13.704 126.836 13.352C127.38 13 127.916 12.696 128.444 12.44C128.972 12.184 129.396 12.056 129.716 12.056C129.828 12.056 129.908 12.064 129.956 12.08C129.956 12.08 129.868 12.24 129.692 12.56C129.516 12.864 129.292 13.272 129.02 13.784C128.764 14.28 128.5 14.816 128.228 15.392C127.956 15.952 127.708 16.496 127.484 17.024C127.276 17.536 127.14 17.968 127.076 18.32C127.028 18.528 127.004 18.72 127.004 18.896C127.004 19.152 127.052 19.32 127.148 19.4C127.244 19.48 127.348 19.52 127.46 19.52C127.78 19.52 128.092 19.384 128.396 19.112C128.716 18.84 129.028 18.496 129.332 18.08C129.636 17.648 129.908 17.192 130.148 16.712C130.404 16.232 130.62 15.784 130.796 15.368C130.988 15.368 131.084 15.44 131.084 15.584C130.908 16.016 130.684 16.496 130.412 17.024C130.156 17.536 129.86 18.024 129.524 18.488C129.188 18.952 128.82 19.336 128.42 19.64C128.02 19.944 127.588 20.096 127.124 20.096C126.788 20.096 126.468 19.984 126.164 19.76C125.876 19.536 125.732 19.12 125.732 18.512C125.732 17.856 125.884 17.2 126.188 16.544C126.508 15.888 126.836 15.288 127.172 14.744C127.332 14.472 127.412 14.256 127.412 14.096C127.412 13.904 127.316 13.808 127.124 13.808C126.964 13.808 126.74 13.888 126.452 14.048C126.18 14.208 125.836 14.488 125.42 14.888C125.164 15.128 124.86 15.464 124.508 15.896C124.172 16.312 123.828 16.768 123.476 17.264C123.124 17.76 122.82 18.248 122.564 18.728C122.308 19.208 122.14 19.632 122.06 20C121.82 20 121.628 19.904 121.484 19.712C121.34 19.504 121.268 19.264 121.268 18.992C121.268 18.944 121.268 18.896 121.268 18.848C121.268 18.8 121.276 18.744 121.292 18.68C121.372 18.184 121.5 17.768 121.676 17.432C121.852 17.08 122.052 16.672 122.276 16.208C122.388 16 122.516 15.76 122.66 15.488C122.804 15.2 122.932 14.928 123.044 14.672C123.156 14.4 123.212 14.176 123.212 14C123.212 13.84 123.148 13.76 123.02 13.76C122.876 13.76 122.684 13.832 122.444 13.976C122.22 14.12 122.004 14.288 121.796 14.48C121.588 14.656 121.428 14.792 121.316 14.888C120.916 15.272 120.428 15.824 119.852 16.544C119.292 17.264 118.676 18.288 118.004 19.616C117.908 19.792 117.796 19.904 117.668 19.952C117.54 19.984 117.34 20 117.068 20C116.892 20 116.748 20 116.636 20C116.508 20.016 116.38 20.056 116.252 20.12ZM135.999 20.072C135.631 20.072 135.303 19.968 135.015 19.76C134.743 19.552 134.607 19.128 134.607 18.488C134.607 18.216 134.623 17.96 134.655 17.72C134.703 17.48 134.759 17.224 134.823 16.952C134.679 17.192 134.479 17.488 134.223 17.84C133.967 18.192 133.679 18.536 133.359 18.872C133.055 19.208 132.735 19.488 132.399 19.712C132.079 19.936 131.775 20.048 131.487 20.048C131.071 20.048 130.735 19.864 130.479 19.496C130.223 19.112 130.095 18.616 130.095 18.008C130.095 17.352 130.247 16.648 130.551 15.896C130.855 15.144 131.271 14.424 131.799 13.736C132.327 13.048 132.935 12.488 133.623 12.056C134.311 11.624 135.031 11.408 135.783 11.408C136.151 11.408 136.503 11.472 136.839 11.6C137.175 11.712 137.471 11.904 137.727 12.176C137.839 12.288 137.895 12.416 137.895 12.56C137.895 12.656 137.855 12.736 137.775 12.8C137.695 12.864 137.591 12.88 137.463 12.848C137.287 12.288 136.911 12.008 136.335 12.008C136.063 12.008 135.751 12.096 135.399 12.272C134.967 12.496 134.503 12.856 134.007 13.352C133.527 13.832 133.071 14.384 132.639 15.008C132.223 15.616 131.879 16.232 131.607 16.856C131.335 17.48 131.199 18.048 131.199 18.56C131.199 19.088 131.399 19.352 131.799 19.352C132.151 19.352 132.511 19.184 132.879 18.848C133.263 18.512 133.623 18.096 133.959 17.6C134.311 17.088 134.631 16.584 134.919 16.088C135.207 15.592 135.431 15.192 135.591 14.888C135.831 14.456 136.055 14.096 136.263 13.808C136.471 13.52 136.767 13.376 137.151 13.376C137.327 13.376 137.503 13.4 137.679 13.448C137.855 13.496 138.039 13.504 138.231 13.472C137.751 13.952 137.327 14.52 136.959 15.176C136.607 15.832 136.335 16.48 136.143 17.12C135.951 17.744 135.855 18.272 135.855 18.704C135.855 19.184 136.015 19.424 136.335 19.424C136.591 19.424 136.863 19.28 137.151 18.992C137.455 18.704 137.743 18.344 138.015 17.912C138.303 17.464 138.567 17.016 138.807 16.568C139.047 16.104 139.239 15.704 139.383 15.368C139.463 15.368 139.527 15.376 139.575 15.392C139.639 15.408 139.671 15.472 139.671 15.584C139.655 15.648 139.623 15.72 139.575 15.8C139.543 15.864 139.487 15.984 139.407 16.16C139.279 16.416 139.103 16.76 138.879 17.192C138.655 17.624 138.391 18.064 138.087 18.512C137.783 18.944 137.455 19.312 137.103 19.616C136.751 19.92 136.383 20.072 135.999 20.072ZM137.089 20.192C137.665 19.024 138.217 17.872 138.745 16.736C139.273 15.584 139.817 14.488 140.377 13.448C140.697 12.872 140.969 12.472 141.193 12.248C141.417 12.008 141.713 11.888 142.081 11.888C142.209 11.888 142.345 11.912 142.489 11.96C142.633 11.992 142.777 12.008 142.921 12.008C143.017 12.008 143.089 12 143.137 11.984C142.913 12.112 142.617 12.432 142.249 12.944C141.897 13.44 141.537 14.016 141.169 14.672C140.801 15.328 140.473 15.944 140.185 16.52C140.489 16.152 140.809 15.784 141.145 15.416C141.481 15.048 141.849 14.696 142.249 14.36C142.633 14.024 143.089 13.68 143.617 13.328C144.161 12.96 144.689 12.656 145.201 12.416C145.713 12.176 146.121 12.056 146.425 12.056C146.537 12.056 146.617 12.064 146.665 12.08C146.665 12.08 146.577 12.24 146.401 12.56C146.225 12.864 146.001 13.272 145.729 13.784C145.473 14.28 145.209 14.816 144.937 15.392C144.665 15.952 144.417 16.496 144.193 17.024C143.985 17.536 143.849 17.968 143.785 18.32C143.737 18.528 143.713 18.72 143.713 18.896C143.713 19.152 143.761 19.32 143.857 19.4C143.953 19.48 144.057 19.52 144.169 19.52C144.473 19.52 144.785 19.384 145.105 19.112C145.425 18.84 145.729 18.496 146.017 18.08C146.321 17.648 146.601 17.192 146.857 16.712C147.113 16.232 147.329 15.784 147.505 15.368C147.697 15.368 147.793 15.44 147.793 15.584C147.617 16.016 147.393 16.496 147.121 17.024C146.865 17.536 146.569 18.024 146.233 18.488C145.913 18.952 145.553 19.336 145.153 19.64C144.753 19.944 144.321 20.096 143.857 20.096C143.537 20.096 143.201 19.984 142.849 19.76C142.513 19.536 142.345 19.12 142.345 18.512C142.345 18.336 142.361 18.152 142.393 17.96C142.425 17.752 142.481 17.528 142.561 17.288C142.689 16.968 142.841 16.624 143.017 16.256C143.193 15.888 143.481 15.384 143.881 14.744C143.993 14.568 144.057 14.432 144.073 14.336C144.105 14.24 144.121 14.16 144.121 14.096C144.121 13.904 144.033 13.808 143.857 13.808C143.713 13.808 143.497 13.888 143.209 14.048C142.937 14.208 142.593 14.488 142.177 14.888C141.777 15.272 141.297 15.816 140.737 16.52C140.193 17.224 139.561 18.264 138.841 19.64C138.729 19.848 138.601 19.96 138.457 19.976C138.329 19.992 138.145 20.008 137.905 20.024C137.745 20.04 137.593 20.048 137.449 20.048C137.305 20.064 137.185 20.112 137.089 20.192ZM152.998 20C152.454 20 152.054 19.816 151.798 19.448C151.542 19.08 151.414 18.648 151.414 18.152C151.414 18.008 151.422 17.864 151.438 17.72C151.454 17.56 151.486 17.4 151.534 17.24C151.31 17.592 151.046 17.984 150.742 18.416C150.454 18.832 150.118 19.2 149.734 19.52C149.366 19.824 148.95 19.976 148.486 19.976C148.278 19.976 148.038 19.928 147.766 19.832C147.51 19.736 147.278 19.552 147.07 19.28C146.878 19.008 146.782 18.608 146.782 18.08C146.782 17.392 146.934 16.664 147.238 15.896C147.542 15.128 147.958 14.408 148.486 13.736C149.014 13.048 149.614 12.496 150.286 12.08C150.958 11.648 151.654 11.432 152.374 11.432C152.95 11.432 153.494 11.584 154.006 11.888C154.246 11.44 154.502 10.944 154.774 10.4C155.046 9.84 155.318 9.288 155.59 8.744C155.862 8.2 156.102 7.704 156.31 7.256C156.518 6.792 156.678 6.44 156.79 6.2C157.03 5.64 157.254 5.288 157.462 5.144C157.686 4.984 157.95 4.904 158.254 4.904C158.43 4.904 158.622 4.928 158.83 4.976C159.054 5.008 159.27 5.016 159.478 5C159.398 5.08 159.214 5.344 158.926 5.792C158.638 6.24 158.286 6.824 157.87 7.544C157.454 8.248 157.006 9.024 156.526 9.872C156.062 10.72 155.598 11.592 155.134 12.488C154.686 13.368 154.27 14.216 153.886 15.032C153.502 15.848 153.198 16.568 152.974 17.192C152.75 17.816 152.638 18.288 152.638 18.608C152.638 18.816 152.686 19 152.782 19.16C152.878 19.304 153.038 19.376 153.262 19.376C153.566 19.376 153.878 19.224 154.198 18.92C154.518 18.616 154.822 18.24 155.11 17.792C155.414 17.328 155.678 16.88 155.902 16.448C156.142 16 156.318 15.64 156.43 15.368C156.622 15.368 156.718 15.44 156.718 15.584C156.574 15.92 156.382 16.336 156.142 16.832C155.902 17.328 155.622 17.816 155.302 18.296C154.982 18.776 154.622 19.184 154.222 19.52C153.838 19.84 153.43 20 152.998 20ZM148.654 19.28C148.878 19.28 149.158 19.16 149.494 18.92C149.83 18.664 150.19 18.264 150.574 17.72C151.022 17.08 151.534 16.28 152.11 15.32C152.686 14.36 153.254 13.344 153.814 12.272C153.702 12.176 153.582 12.104 153.454 12.056C153.326 12.008 153.15 11.984 152.926 11.984C152.558 11.984 152.15 12.144 151.702 12.464C151.27 12.768 150.83 13.168 150.382 13.664C149.95 14.16 149.55 14.696 149.182 15.272C148.83 15.848 148.542 16.408 148.318 16.952C148.11 17.48 148.006 17.936 148.006 18.32C148.006 18.96 148.222 19.28 148.654 19.28ZM158.16 20.096C157.568 20.096 157.032 19.904 156.552 19.52C156.088 19.136 155.856 18.552 155.856 17.768C155.856 17.112 156 16.416 156.288 15.68C156.592 14.944 156.984 14.256 157.464 13.616C157.96 12.96 158.504 12.432 159.096 12.032C159.704 11.616 160.312 11.408 160.92 11.408C161.224 11.408 161.52 11.496 161.808 11.672C162.096 11.848 162.24 12.152 162.24 12.584C162.24 12.984 162.088 13.424 161.784 13.904C161.48 14.384 161.048 14.832 160.488 15.248C160.248 15.424 159.944 15.592 159.576 15.752C159.208 15.912 158.84 16.048 158.472 16.16C158.104 16.256 157.8 16.304 157.56 16.304C157.48 16.496 157.4 16.752 157.32 17.072C157.256 17.392 157.224 17.72 157.224 18.056C157.224 18.456 157.304 18.816 157.464 19.136C157.624 19.456 157.92 19.616 158.352 19.616C158.88 19.616 159.368 19.464 159.816 19.16C160.28 18.856 160.688 18.472 161.04 18.008C161.408 17.544 161.72 17.072 161.976 16.592C162.232 16.112 162.432 15.704 162.576 15.368C162.768 15.368 162.864 15.44 162.864 15.584C162.656 16.032 162.416 16.52 162.144 17.048C161.888 17.576 161.576 18.072 161.208 18.536C160.856 18.984 160.424 19.36 159.912 19.664C159.416 19.952 158.832 20.096 158.16 20.096ZM157.728 15.872C157.952 15.872 158.328 15.792 158.856 15.632C159.384 15.456 159.864 15.184 160.296 14.816C160.712 14.448 161.032 14.048 161.256 13.616C161.48 13.168 161.592 12.792 161.592 12.488C161.592 12.136 161.464 11.96 161.208 11.96C161.016 11.96 160.752 12.088 160.416 12.344C160.08 12.6 159.664 13.032 159.168 13.64C158.864 14.024 158.576 14.44 158.304 14.888C158.032 15.336 157.84 15.664 157.728 15.872Z" fill="white"/>
<path d="M14.46 30.808C14.46 31.128 14.296 31.288 13.968 31.288C13.744 31.288 13.596 31.184 13.524 30.976L13.416 30.616C13.344 30.368 13.2 30.12 12.984 29.872C12.768 29.632 12.66 29.496 12.66 29.464C12.66 29.352 12.732 29.296 12.876 29.296C12.908 29.296 12.948 29.304 12.996 29.32C13.972 29.856 14.46 30.352 14.46 30.808ZM12.936 31.18C12.936 31.46 12.804 31.6 12.54 31.6C12.268 31.6 12.096 31.496 12.024 31.288L11.916 30.928C11.836 30.656 11.688 30.404 11.472 30.172C11.256 29.94 11.148 29.808 11.148 29.776V29.752C11.148 29.64 11.244 29.584 11.436 29.584C11.468 29.584 11.508 29.6 11.556 29.632C12.404 30.144 12.86 30.6 12.924 31C12.932 31.064 12.936 31.124 12.936 31.18ZM5.808 33.52C5.152 32.912 4.816 32.504 4.8 32.296C4.784 32.096 4.796 31.996 4.836 31.996C4.876 31.996 4.908 32.008 4.932 32.032C5.26 32.304 5.508 32.468 5.676 32.524C5.764 32.556 5.976 32.608 6.312 32.68L7.572 32.524C9.876 32.284 11.104 32.136 11.256 32.08C11.488 31.864 11.64 31.756 11.712 31.756C11.784 31.756 11.896 31.796 12.048 31.876L12.168 31.948C12.448 32.1 12.664 32.256 12.816 32.416C12.856 32.488 12.876 32.536 12.876 32.56C12.876 32.592 12.868 32.608 12.852 32.608C12.828 32.608 12.812 32.608 12.804 32.608C12.82 32.616 12.828 32.64 12.828 32.68C12.828 32.72 12.748 32.812 12.588 32.956L12.456 33.064C12.4 33.112 12.372 33.144 12.372 33.16C11.86 36.48 10.06 38.772 6.972 40.036C6.836 40.092 6.7 40.12 6.564 40.12C6.452 40.12 6.356 40.036 6.276 39.868C6.268 39.852 6.264 39.824 6.264 39.784C6.264 39.672 6.396 39.568 6.66 39.472C9.436 38.416 11.008 36.18 11.376 32.764L11.112 32.788C9.456 32.94 8.136 33.152 7.152 33.424L6.24 33.676C6.104 33.676 5.96 33.624 5.808 33.52ZM21.744 35.488L21.036 35.524C19.876 35.58 18.8 35.792 17.808 36.16C17.576 36.168 17.396 36.132 17.268 36.052C16.836 35.732 16.576 35.512 16.488 35.392C16.304 35.112 16.208 34.912 16.2 34.792C16.2 34.704 16.26 34.656 16.38 34.648C16.444 34.648 16.484 34.66 16.5 34.684C16.524 34.7 16.588 34.76 16.692 34.864C16.956 35.128 17.988 35.212 19.788 35.116C22.26 34.988 23.824 34.76 24.48 34.432C24.504 34.416 24.564 34.4 24.66 34.384C24.708 34.376 24.828 34.412 25.02 34.492C25.484 34.692 25.732 34.88 25.764 35.056C25.772 35.12 25.688 35.22 25.512 35.356C25.336 35.492 25.156 35.564 24.972 35.572C24.02 35.452 22.944 35.424 21.744 35.488ZM31.176 32.56C31.048 32.504 30.852 32.364 30.588 32.14C30.324 31.916 30.192 31.704 30.192 31.504C30.192 31.384 30.252 31.324 30.372 31.324C30.436 31.324 30.476 31.336 30.492 31.36C30.62 31.512 30.724 31.616 30.804 31.672C30.868 31.72 31.02 31.74 31.26 31.732C31.644 31.732 32.08 31.668 32.568 31.54C32.992 31.436 33.416 31.328 33.84 31.216C34.056 31.192 34.28 31.12 34.512 31C34.584 30.976 34.64 30.964 34.68 30.964C34.888 30.964 35.148 31.044 35.46 31.204C35.772 31.364 35.944 31.468 35.976 31.516C36 31.572 36.012 31.624 36.012 31.672C36.012 31.752 35.928 31.848 35.76 31.96C35.584 32.072 35.428 32.128 35.292 32.128C34.564 32 34.044 31.936 33.732 31.936C33.412 31.936 33.012 32.008 32.532 32.152C32.044 32.304 31.7 32.468 31.5 32.644C31.404 32.644 31.296 32.616 31.176 32.56ZM31.152 40.264H31.116C30.868 40.264 30.74 40.168 30.732 39.976C30.732 39.888 30.868 39.804 31.14 39.724C33.732 38.34 35.26 36.636 35.724 34.612C34.972 34.676 34.352 34.728 33.864 34.768C33.376 34.816 32.664 34.956 31.728 35.188L30.372 35.524C30.02 35.524 29.8 35.48 29.712 35.392C29.088 34.728 28.776 34.316 28.776 34.156C28.776 34.076 28.812 34.036 28.884 34.036C28.948 34.044 29.008 34.056 29.064 34.072C29.36 34.256 29.596 34.424 29.772 34.576C29.836 34.632 29.928 34.648 30.048 34.624C30.504 34.568 30.968 34.512 31.44 34.456C33.928 34.184 35.332 33.992 35.652 33.88C35.948 33.6 36.12 33.46 36.168 33.46C36.216 33.46 36.368 33.524 36.624 33.652C37.104 33.892 37.34 34.132 37.332 34.372C37.332 34.476 37.204 34.636 36.948 34.852C36.892 34.9 36.86 34.936 36.852 34.96C36.236 36.96 34.336 38.728 31.152 40.264ZM49.38 32.32C49.444 32.312 49.476 32.38 49.476 32.524C49.476 32.676 49.468 32.776 49.452 32.824C48.148 35.656 46.44 37.904 44.328 39.568L43.968 39.772C43.712 39.924 43.544 40 43.464 40C43.384 40 43.3 39.984 43.212 39.952C42.892 39.808 42.624 39.608 42.408 39.352C42.192 39.096 42.032 38.848 41.928 38.608C41.832 38.376 41.788 38.228 41.796 38.164V38.044C41.852 37.924 41.924 37.864 42.012 37.864C42.1 37.864 42.148 37.888 42.156 37.936C42.156 37.992 42.204 38.108 42.3 38.284C42.476 38.636 42.76 38.812 43.152 38.812C43.408 38.812 43.62 38.764 43.788 38.668C46.06 37.108 47.8 35.124 49.008 32.716C49.144 32.452 49.268 32.32 49.38 32.32ZM44.484 33.796C44.484 34.244 44.336 34.468 44.04 34.468C43.8 34.468 43.624 34.352 43.512 34.12C43.176 33.328 42.568 32.764 41.688 32.428C41.552 32.404 41.484 32.332 41.484 32.212C41.476 32.1 41.548 32.044 41.7 32.044L41.916 32.068C42.34 32.164 42.716 32.288 43.044 32.44C43.676 32.736 44.104 33.012 44.328 33.268C44.432 33.388 44.484 33.564 44.484 33.796ZM62.028 31.648C62.028 31.968 61.864 32.128 61.536 32.128C61.312 32.128 61.164 32.024 61.092 31.816L60.984 31.456C60.912 31.208 60.768 30.96 60.552 30.712C60.336 30.472 60.228 30.336 60.228 30.304C60.228 30.192 60.3 30.136 60.444 30.136C60.476 30.136 60.516 30.144 60.564 30.16C61.54 30.696 62.028 31.192 62.028 31.648ZM60.504 32.02C60.504 32.3 60.372 32.44 60.108 32.44C59.836 32.44 59.664 32.336 59.592 32.128L59.484 31.768C59.404 31.496 59.256 31.244 59.04 31.012C58.824 30.78 58.716 30.648 58.716 30.616V30.592C58.716 30.48 58.812 30.424 59.004 30.424C59.036 30.424 59.076 30.44 59.124 30.472C59.972 30.984 60.428 31.44 60.492 31.84C60.5 31.904 60.504 31.964 60.504 32.02ZM55.668 35.032C55.668 35.52 55.52 35.764 55.224 35.764C54.992 35.764 54.812 35.648 54.684 35.416C54.444 34.96 54.256 34.64 54.12 34.456C53.976 34.272 53.6 34.092 52.992 33.916C52.912 33.908 52.856 33.884 52.824 33.844C52.784 33.804 52.764 33.772 52.764 33.748V33.7C52.764 33.588 52.844 33.532 53.004 33.532H53.076L53.22 33.544C53.78 33.592 54.404 33.824 55.092 34.24C55.276 34.352 55.42 34.46 55.524 34.564C55.62 34.676 55.668 34.832 55.668 35.032ZM56.988 32.752C56.988 33.24 56.84 33.484 56.544 33.484C56.312 33.484 56.136 33.364 56.016 33.124C55.776 32.668 55.588 32.348 55.452 32.164C55.308 31.98 54.928 31.8 54.312 31.624C54.168 31.608 54.096 31.536 54.096 31.408C54.104 31.296 54.184 31.24 54.336 31.24H54.408L54.54 31.252C55.116 31.308 55.744 31.54 56.424 31.948C56.608 32.06 56.748 32.172 56.844 32.284C56.94 32.396 56.988 32.552 56.988 32.752ZM53.772 38.188C53.86 38.18 53.912 38.196 53.928 38.236C53.944 38.276 54.016 38.408 54.144 38.632C54.272 38.856 54.428 38.968 54.612 38.968C54.956 38.968 55.192 38.928 55.32 38.848C58.264 37.208 60.228 35.144 61.212 32.656C61.3 32.44 61.38 32.332 61.452 32.332C61.588 32.332 61.66 32.408 61.668 32.56C61.668 32.656 61.656 32.744 61.632 32.824C60.704 35.472 58.776 37.764 55.848 39.7C55.736 39.732 55.588 39.816 55.404 39.952C55.212 40.096 55.072 40.168 54.984 40.168C54.984 40.248 54.96 40.288 54.912 40.288C54.792 40.288 54.54 40.076 54.156 39.652C53.764 39.228 53.568 38.832 53.568 38.464C53.568 38.304 53.636 38.212 53.772 38.188ZM71.652 34.936L71.46 34.924C70.724 34.924 69.96 34.988 69.168 35.116C69.416 35.276 69.54 35.408 69.54 35.512C69.54 35.616 69.5 35.7 69.42 35.764C69.3 35.852 69.208 36.42 69.144 37.468C69.136 37.604 69.132 37.768 69.132 37.96C69.132 38.152 69.16 38.396 69.216 38.692C69.664 38.644 70.108 38.6 70.548 38.56H70.968L71.796 38.44C72.172 38.44 72.544 38.64 72.912 39.04C73.08 39.224 73.164 39.372 73.164 39.484C73.164 39.62 73.016 39.688 72.72 39.688C72.656 39.688 72.584 39.684 72.504 39.676C72.088 39.412 71.288 39.276 70.104 39.268C69.992 39.268 69.868 39.268 69.732 39.268C68.98 39.268 68.292 39.336 67.668 39.472C67.084 39.592 66.644 39.728 66.348 39.88C66.164 39.88 65.952 39.828 65.712 39.724C65.264 39.54 64.968 39.276 64.824 38.932C64.792 38.86 64.776 38.8 64.776 38.752C64.776 38.624 64.84 38.56 64.968 38.56C65.024 38.56 65.076 38.588 65.124 38.644L65.232 38.788C65.352 38.94 65.516 39.016 65.724 39.016C65.74 39.016 66.216 38.956 67.152 38.836L68.388 38.716C68.476 38.348 68.52 37.772 68.52 36.988V36.232C68.52 35.776 68.428 35.424 68.244 35.176C68.204 35.176 67.932 35.244 67.428 35.38C66.924 35.516 66.672 35.588 66.672 35.596C66.528 35.596 66.38 35.556 66.228 35.476C66.068 35.396 65.892 35.22 65.7 34.948C65.508 34.676 65.412 34.484 65.412 34.372C65.412 34.268 65.472 34.216 65.592 34.216C65.648 34.216 65.688 34.228 65.712 34.252C65.752 34.284 65.796 34.328 65.844 34.384C65.956 34.528 66.16 34.636 66.456 34.708C66.744 34.78 67.012 34.812 67.26 34.804C67.508 34.804 68.06 34.72 68.916 34.552C69.764 34.384 70.232 34.284 70.32 34.252C70.4 34.22 70.548 34.148 70.764 34.036C70.972 33.924 71.112 33.868 71.184 33.868C71.256 33.868 71.376 33.912 71.544 34C72.008 34.224 72.24 34.4 72.24 34.528C72.24 34.664 72.156 34.764 71.988 34.828C71.836 34.9 71.724 34.936 71.652 34.936ZM78.876 35.044L78.996 34.144C78.972 33.288 78.936 32.708 78.888 32.404C78.84 32.108 78.72 31.904 78.528 31.792C78.472 31.76 78.432 31.732 78.408 31.708C78.392 31.676 78.384 31.648 78.384 31.624C78.384 31.52 78.44 31.468 78.552 31.468C78.656 31.468 78.84 31.512 79.104 31.6C79.728 31.824 80.04 32.008 80.04 32.152C80.04 32.232 79.96 32.352 79.8 32.512L79.764 33.172C79.74 33.404 79.728 33.672 79.728 33.976V34.528C79.728 34.824 79.752 35.076 79.8 35.284C79.84 35.5 79.86 35.696 79.86 35.872C79.86 36.056 79.804 36.256 79.692 36.472C79.572 36.696 79.456 36.808 79.344 36.808C79.232 36.808 79.128 36.772 79.032 36.7C78.848 36.564 78.756 36.344 78.756 36.04C78.756 36.008 78.796 35.676 78.876 35.044ZM82.752 34.66L82.728 31.648C82.728 31.44 82.624 31.284 82.416 31.18C82.32 31.132 82.272 31.08 82.272 31.024C82.272 30.904 82.36 30.844 82.536 30.844C82.544 30.844 82.716 30.892 83.052 30.988C83.388 31.092 83.696 31.256 83.976 31.48C84.064 31.552 84.112 31.616 84.12 31.672C84.12 31.736 84.104 31.784 84.072 31.816C84.04 31.856 83.972 31.916 83.868 31.996C83.756 32.076 83.7 32.196 83.7 32.356C83.7 32.404 83.704 32.456 83.712 32.512V34.504C83.712 37.592 82.388 39.588 79.74 40.492C79.716 40.484 79.668 40.472 79.596 40.456C79.524 40.448 79.468 40.404 79.428 40.324C79.404 40.3 79.392 40.268 79.392 40.228C79.392 39.98 79.52 39.852 79.776 39.844C81.76 38.996 82.752 37.268 82.752 34.66ZM93.744 35.488L93.036 35.524C91.876 35.58 90.8 35.792 89.808 36.16C89.576 36.168 89.396 36.132 89.268 36.052C88.836 35.732 88.576 35.512 88.488 35.392C88.304 35.112 88.208 34.912 88.2 34.792C88.2 34.704 88.26 34.656 88.38 34.648C88.444 34.648 88.484 34.66 88.5 34.684C88.524 34.7 88.588 34.76 88.692 34.864C88.956 35.128 89.988 35.212 91.788 35.116C94.26 34.988 95.824 34.76 96.48 34.432C96.504 34.416 96.564 34.4 96.66 34.384C96.708 34.376 96.828 34.412 97.02 34.492C97.484 34.692 97.732 34.88 97.764 35.056C97.772 35.12 97.688 35.22 97.512 35.356C97.336 35.492 97.156 35.564 96.972 35.572C96.02 35.452 94.944 35.424 93.744 35.488ZM116.424 34.852C116.44 34.764 116.448 34.684 116.448 34.612C116.448 34.348 116.368 34.176 116.208 34.096C116.104 34.032 116.052 33.972 116.052 33.916C116.052 33.868 116.08 33.82 116.136 33.772C116.184 33.732 116.272 33.712 116.4 33.712C116.52 33.712 116.708 33.756 116.964 33.844C117.38 34.012 117.596 34.18 117.612 34.348C117.596 34.452 117.556 34.56 117.492 34.672C117.42 34.792 117.38 34.904 117.372 35.008C117.204 37.528 116.076 39.216 113.988 40.072H113.94C113.916 40.072 113.884 40.052 113.844 40.012C113.812 39.972 113.796 39.94 113.796 39.916C113.796 39.804 113.916 39.68 114.156 39.544C115.628 38.68 116.384 37.116 116.424 34.852ZM120.756 31.408L120.912 31.432L121.692 32.284C121.692 32.38 121.64 32.464 121.536 32.536C121.232 32.704 121.072 32.792 121.056 32.8L119.844 34.096L118.416 35.416C118.328 35.496 118.252 35.536 118.188 35.536C118.116 35.536 118.06 35.512 118.02 35.464C117.972 35.424 117.948 35.372 117.948 35.308C117.948 35.252 117.996 35.18 118.092 35.092C119.26 33.932 119.968 32.984 120.216 32.248C118.24 32.344 116.272 32.6 114.312 33.016C114.176 33.048 114.04 33.112 113.904 33.208C113.768 33.304 113.652 33.352 113.556 33.352C113.452 33.36 113.332 33.324 113.196 33.244C113.06 33.164 112.9 33.008 112.716 32.776C112.532 32.552 112.436 32.36 112.428 32.2V32.188C112.42 31.964 112.492 31.848 112.644 31.84C112.724 31.84 112.78 31.86 112.812 31.9L112.932 32.056C113.036 32.184 113.38 32.236 113.964 32.212C117.692 31.836 119.88 31.612 120.528 31.54C120.576 31.452 120.652 31.408 120.756 31.408ZM126.444 36.16C126.444 36.024 126.528 35.956 126.696 35.956C126.856 35.956 126.968 35.968 127.032 35.992L129.036 36.7C129.916 36.068 130.828 35.04 131.772 33.616C131.548 33.616 131.18 33.616 130.668 33.616C130.012 33.616 128.496 33.816 126.12 34.216H126.108C125.828 34.216 125.504 34.044 125.136 33.7C124.76 33.356 124.572 33.088 124.572 32.896C124.572 32.848 124.588 32.8 124.62 32.752C124.652 32.712 124.7 32.692 124.764 32.692C124.828 32.692 124.948 32.776 125.124 32.944C125.404 33.208 125.832 33.344 126.408 33.352L131.604 32.776L131.868 32.716C132.092 32.516 132.216 32.412 132.24 32.404C132.264 32.404 132.308 32.404 132.372 32.404C132.452 32.404 132.56 32.444 132.696 32.524L132.816 32.596C133.352 32.916 133.624 33.128 133.632 33.232C133.632 33.296 133.6 33.36 133.536 33.424C133.488 33.512 133.408 33.6 133.296 33.688C133.136 33.816 133.04 33.892 133.008 33.916L129.456 37.012C130.368 37.484 130.936 37.904 131.16 38.272C131.256 38.424 131.304 38.6 131.304 38.8C131.304 39.288 131.14 39.532 130.812 39.532C130.676 39.532 130.544 39.488 130.416 39.4C130.28 39.312 130.176 39.196 130.104 39.052C129.784 38.34 129.256 37.76 128.52 37.312C127.912 36.936 127.312 36.644 126.72 36.436C126.544 36.34 126.452 36.248 126.444 36.16ZM145.38 32.32C145.444 32.312 145.476 32.38 145.476 32.524C145.476 32.676 145.468 32.776 145.452 32.824C144.148 35.656 142.44 37.904 140.328 39.568L139.968 39.772C139.712 39.924 139.544 40 139.464 40C139.384 40 139.3 39.984 139.212 39.952C138.892 39.808 138.624 39.608 138.408 39.352C138.192 39.096 138.032 38.848 137.928 38.608C137.832 38.376 137.788 38.228 137.796 38.164V38.044C137.852 37.924 137.924 37.864 138.012 37.864C138.1 37.864 138.148 37.888 138.156 37.936C138.156 37.992 138.204 38.108 138.3 38.284C138.476 38.636 138.76 38.812 139.152 38.812C139.408 38.812 139.62 38.764 139.788 38.668C142.06 37.108 143.8 35.124 145.008 32.716C145.144 32.452 145.268 32.32 145.38 32.32ZM140.484 33.796C140.484 34.244 140.336 34.468 140.04 34.468C139.8 34.468 139.624 34.352 139.512 34.12C139.176 33.328 138.568 32.764 137.688 32.428C137.552 32.404 137.484 32.332 137.484 32.212C137.476 32.1 137.548 32.044 137.7 32.044L137.916 32.068C138.34 32.164 138.716 32.288 139.044 32.44C139.676 32.736 140.104 33.012 140.328 33.268C140.432 33.388 140.484 33.564 140.484 33.796ZM157.608 32.152C157.608 32.472 157.444 32.632 157.116 32.632C156.892 32.632 156.744 32.528 156.672 32.32L156.564 31.96C156.492 31.712 156.348 31.464 156.132 31.216C155.916 30.976 155.808 30.84 155.808 30.808C155.808 30.696 155.88 30.64 156.024 30.64C156.056 30.64 156.096 30.648 156.144 30.664C157.12 31.2 157.608 31.696 157.608 32.152ZM156.084 32.524C156.084 32.804 155.952 32.944 155.688 32.944C155.416 32.944 155.244 32.84 155.172 32.632L155.064 32.272C154.984 32 154.836 31.748 154.62 31.516C154.404 31.284 154.296 31.152 154.296 31.12V31.096C154.296 30.984 154.392 30.928 154.584 30.928C154.616 30.928 154.656 30.944 154.704 30.976C155.552 31.488 156.008 31.944 156.072 32.344C156.08 32.408 156.084 32.468 156.084 32.524ZM150.912 31.432C150.688 31.4 150.58 31.336 150.588 31.24C150.588 31.152 150.768 31.108 151.128 31.108C151.488 31.108 151.832 31.204 152.16 31.396C152.488 31.596 152.652 31.752 152.652 31.864C152.652 31.944 152.576 32.04 152.424 32.152C152.264 32.264 152.18 32.392 152.172 32.536C152.14 32.84 152.124 33.488 152.124 34.48C152.868 34.56 153.628 34.74 154.404 35.02C155.18 35.3 155.772 35.596 156.18 35.908C156.356 36.044 156.444 36.304 156.444 36.688C156.436 37.072 156.284 37.264 155.988 37.264C155.764 37.256 155.58 37.164 155.436 36.988C154.82 36.252 154.316 35.768 153.924 35.536C153.532 35.312 152.932 35.112 152.124 34.936C152.132 37.616 152.172 39.08 152.244 39.328C152.316 39.576 152.352 39.768 152.352 39.904C152.352 40.208 152.256 40.436 152.064 40.588C151.992 40.644 151.904 40.668 151.8 40.66C151.688 40.66 151.572 40.588 151.452 40.444C151.244 40.22 151.14 39.876 151.14 39.412C151.14 39.268 151.152 39.132 151.176 39.004C151.232 38.652 151.272 37.552 151.296 35.704C151.32 34.112 151.292 32.844 151.212 31.9C151.188 31.612 151.088 31.456 150.912 31.432Z" fill="white"/>
</svg>
