<svg width="32" height="32" viewBox="0 0 32 32" fill="none" xmlns="http://www.w3.org/2000/svg">
<mask id="mask0_262_723" style="mask-type:alpha" maskUnits="userSpaceOnUse" x="0" y="0" width="32" height="32">
<rect width="32" height="32" fill="#D9D9D9"/>
</mask>
<g mask="url(#mask0_262_723)">
<path d="M16.0052 29.331C13.6497 29.331 11.7274 28.9588 10.2385 28.2143C8.74965 27.4699 8.00521 26.5088 8.00521 25.331C8.00521 24.7976 8.16632 24.3032 8.48854 23.8476C8.81076 23.3921 9.26076 22.9976 9.83854 22.6643L11.9385 24.631C11.7385 24.7199 11.5219 24.8199 11.2885 24.931C11.0552 25.0421 10.8719 25.1754 10.7385 25.331C11.0274 25.6865 11.6941 25.9976 12.7385 26.2643C13.783 26.531 14.8719 26.6643 16.0052 26.6643C17.1385 26.6643 18.233 26.531 19.2885 26.2643C20.3441 25.9976 21.0163 25.6865 21.3052 25.331C21.1497 25.1532 20.9497 25.0088 20.7052 24.8976C20.4608 24.7865 20.2274 24.6865 20.0052 24.5976L22.0719 22.5976C22.6941 22.9532 23.1719 23.3588 23.5052 23.8143C23.8385 24.2699 24.0052 24.7754 24.0052 25.331C24.0052 26.5088 23.2608 27.4699 21.7719 28.2143C20.283 28.9588 18.3608 29.331 16.0052 29.331ZM16.0385 21.9976C18.2385 20.3754 19.8941 18.7476 21.0052 17.1143C22.1163 15.481 22.6719 13.8421 22.6719 12.1976C22.6719 9.93097 21.9497 8.21986 20.5052 7.06431C19.0608 5.90875 17.5608 5.33097 16.0052 5.33097C14.4497 5.33097 12.9497 5.90875 11.5052 7.06431C10.0608 8.21986 9.33854 9.93097 9.33854 12.1976C9.33854 13.6865 9.88299 15.2365 10.9719 16.8476C12.0608 18.4588 13.7497 20.1754 16.0385 21.9976ZM16.0052 25.331C12.8719 23.0199 10.533 20.7754 8.98854 18.5976C7.4441 16.4199 6.67188 14.2865 6.67188 12.1976C6.67188 10.6199 6.95521 9.23653 7.52188 8.04764C8.08854 6.85875 8.81632 5.86431 9.70521 5.06431C10.5941 4.26431 11.5941 3.66431 12.7052 3.26431C13.8163 2.86431 14.9163 2.66431 16.0052 2.66431C17.0941 2.66431 18.1941 2.86431 19.3052 3.26431C20.4163 3.66431 21.4163 4.26431 22.3052 5.06431C23.1941 5.86431 23.9219 6.85875 24.4885 8.04764C25.0552 9.23653 25.3385 10.6199 25.3385 12.1976C25.3385 14.2865 24.5663 16.4199 23.0219 18.5976C21.4774 20.7754 19.1385 23.0199 16.0052 25.331ZM16.0052 14.6643C16.7385 14.6643 17.3663 14.4032 17.8885 13.881C18.4108 13.3588 18.6719 12.731 18.6719 11.9976C18.6719 11.2643 18.4108 10.6365 17.8885 10.1143C17.3663 9.59209 16.7385 9.33097 16.0052 9.33097C15.2719 9.33097 14.6441 9.59209 14.1219 10.1143C13.5997 10.6365 13.3385 11.2643 13.3385 11.9976C13.3385 12.731 13.5997 13.3588 14.1219 13.881C14.6441 14.4032 15.2719 14.6643 16.0052 14.6643Z" fill="white"/>
</g>
</svg>
