<svg width="71" height="82" viewBox="0 0 71 82" fill="none" xmlns="http://www.w3.org/2000/svg">
<path d="M23.688 81.144C22.216 81.144 21.128 80.632 20.424 79.608C17.416 80.12 14.504 80.536 11.688 80.856C8.872 81.176 6.376 81.336 4.2 81.336C2.792 81.336 1.8 81.048 1.224 80.472C0.648 79.896 0.36 79 0.36 77.784C0.36 76.44 1.928 75.032 5.064 73.56C8.2 72.024 13.256 70.84 20.232 70.008C20.68 67 21.384 63.256 22.344 58.776C23.304 54.232 24.36 49.4 25.512 44.28C26.728 39.096 27.912 34.072 29.064 29.208C26.824 31.64 24.488 33.944 22.056 36.12C19.624 38.232 17.32 39.96 15.144 41.304C12.968 42.584 11.08 43.224 9.48 43.224C7.944 43.224 7.176 42.264 7.176 40.344C7.176 39.576 7.88 38.488 9.288 37.08C10.76 35.672 12.616 33.912 14.856 31.8C17.16 29.688 19.624 27.224 22.248 24.408C24.872 21.592 27.432 18.424 29.928 14.904C32.424 11.384 34.536 7.48 36.264 3.192C36.84 1.848 37.448 1.016 38.088 0.695995C38.728 0.375996 39.272 0.215996 39.72 0.215996C40.68 0.215996 41.544 0.663996 42.312 1.56C43.08 2.392 43.464 4.12 43.464 6.744C43.464 7.192 43.144 8.856 42.504 11.736C41.864 14.552 41 18.2 39.912 22.68C38.888 27.16 37.704 32.088 36.36 37.464C35.08 42.84 33.8 48.28 32.52 53.784C31.24 59.288 30.056 64.472 28.968 69.336C32.104 69.144 35.4 69.048 38.856 69.048C41.416 69.048 43.208 69.176 44.232 69.432C45.32 69.624 45.96 69.912 46.152 70.296C46.408 70.616 46.536 71 46.536 71.448C46.536 72.088 45.608 72.824 43.752 73.656C41.896 74.424 39.464 75.224 36.456 76.056C33.448 76.888 30.184 77.688 26.664 78.456C25.896 80.248 24.904 81.144 23.688 81.144ZM62.8898 76.44C61.4818 76.44 60.1058 75.992 58.7617 75.096C57.4818 74.2 56.8418 72.728 56.8418 70.68C56.8418 69.016 57.2578 67.672 58.0898 66.648C58.9218 65.624 59.8818 64.888 60.9698 64.44C62.0578 63.928 63.0178 63.672 63.8498 63.672C64.6818 63.672 65.6098 63.864 66.6338 64.248C67.7218 64.632 68.6498 65.304 69.4178 66.264C70.1858 67.16 70.5698 68.504 70.5698 70.296C70.5698 72.088 69.8018 73.56 68.2657 74.712C66.7298 75.864 64.9378 76.44 62.8898 76.44Z" fill="#FAB03A"/>
</svg>
