<svg width="84" height="79" viewBox="0 0 84 79" fill="none" xmlns="http://www.w3.org/2000/svg">
<path d="M6.584 78.744C4.6 78.744 3.16 78.232 2.264 77.208C1.368 76.248 0.92 75.192 0.92 74.04C0.92 72.76 1.144 71.736 1.592 70.968C2.104 70.2 3.064 69.624 4.472 69.24C5.944 68.856 8.088 68.632 10.904 68.568C14.424 66.776 17.976 64.568 21.56 61.944C25.208 59.256 28.696 56.28 32.024 53.016C35.352 49.752 38.328 46.328 40.952 42.744C43.576 39.16 45.656 35.544 47.192 31.896C48.728 28.248 49.496 24.696 49.496 21.24C49.496 17.976 48.472 15.448 46.424 13.656C44.44 11.8 41.496 10.872 37.592 10.872C33.88 10.872 30.584 11.352 27.704 12.312C24.888 13.208 22.584 14.104 20.792 15C19.064 15.896 17.848 16.344 17.144 16.344C15.416 16.344 14.552 15.192 14.552 12.888C14.552 12.056 15.16 10.968 16.376 9.62399C17.656 8.28 19.384 6.936 21.56 5.592C23.736 4.18399 26.264 3.03199 29.144 2.13599C32.024 1.17599 35.096 0.695995 38.36 0.695995C43.864 0.695995 48.344 2.456 51.8 5.976C55.256 9.432 56.984 14.68 56.984 21.72C56.984 26.776 55.928 31.576 53.816 36.12C51.768 40.664 49.048 44.952 45.656 48.984C42.264 52.952 38.552 56.664 34.52 60.12C30.488 63.512 26.52 66.552 22.616 69.24C27.672 69.176 31.832 69.016 35.096 68.76C38.36 68.44 41.016 68.12 43.064 67.8C45.112 67.416 46.84 67.128 48.248 66.936C49.656 66.68 51.064 66.552 52.472 66.552C54.072 66.552 55.224 67 55.928 67.896C56.696 68.728 57.08 69.752 57.08 70.968C57.08 71.992 56.824 72.92 56.312 73.752C55.864 74.52 54.904 75.16 53.432 75.672C51.96 76.248 49.72 76.664 46.712 76.92C43.704 77.24 39.672 77.4 34.616 77.4C31.16 77.4 27.576 77.368 23.864 77.304C20.216 77.24 16.664 77.144 13.208 77.016C10.008 78.168 7.8 78.744 6.584 78.744ZM75.7648 76.44C74.3568 76.44 72.9808 75.992 71.6367 75.096C70.3568 74.2 69.7168 72.728 69.7168 70.68C69.7168 69.016 70.1328 67.672 70.9648 66.648C71.7968 65.624 72.7568 64.888 73.8448 64.44C74.9328 63.928 75.8928 63.672 76.7248 63.672C77.5568 63.672 78.4848 63.864 79.5088 64.248C80.5968 64.632 81.5248 65.304 82.2928 66.264C83.0608 67.16 83.4448 68.504 83.4448 70.296C83.4448 72.088 82.6768 73.56 81.1407 74.712C79.6048 75.864 77.8128 76.44 75.7648 76.44Z" fill="#FAB03A"/>
</svg>
