<svg width="43" height="40" viewBox="0 0 43 40" fill="none" xmlns="http://www.w3.org/2000/svg">
<path d="M3.792 39.872C2.8 39.872 2.08 39.616 1.632 39.104C1.184 38.624 0.96 38.096 0.96 37.52C0.96 36.88 1.072 36.368 1.296 35.984C1.552 35.6 2.032 35.312 2.736 35.12C3.472 34.928 4.544 34.816 5.952 34.784C7.712 33.888 9.488 32.784 11.28 31.472C13.104 30.128 14.848 28.64 16.512 27.008C18.176 25.376 19.664 23.664 20.976 21.872C22.288 20.08 23.328 18.272 24.096 16.448C24.864 14.624 25.248 12.848 25.248 11.12C25.248 9.488 24.736 8.224 23.712 7.328C22.72 6.4 21.248 5.936 19.296 5.936C17.44 5.936 15.792 6.176 14.352 6.656C12.944 7.104 11.792 7.552 10.896 8C10.032 8.448 9.424 8.672 9.072 8.672C8.208 8.672 7.776 8.096 7.776 6.944C7.776 6.528 8.08 5.984 8.688 5.312C9.328 4.64 10.192 3.968 11.28 3.296C12.368 2.592 13.632 2.016 15.072 1.568C16.512 1.088 18.048 0.847998 19.68 0.847998C22.432 0.847998 24.672 1.728 26.4 3.488C28.128 5.216 28.992 7.84 28.992 11.36C28.992 13.888 28.464 16.288 27.408 18.56C26.384 20.832 25.024 22.976 23.328 24.992C21.632 26.976 19.776 28.832 17.76 30.56C15.744 32.256 13.76 33.776 11.808 35.12C14.336 35.088 16.416 35.008 18.048 34.88C19.68 34.72 21.008 34.56 22.032 34.4C23.056 34.208 23.92 34.064 24.624 33.968C25.328 33.84 26.032 33.776 26.736 33.776C27.536 33.776 28.112 34 28.464 34.448C28.848 34.864 29.04 35.376 29.04 35.984C29.04 36.496 28.912 36.96 28.656 37.376C28.432 37.76 27.952 38.08 27.216 38.336C26.48 38.624 25.36 38.832 23.856 38.96C22.352 39.12 20.336 39.2 17.808 39.2C16.08 39.2 14.288 39.184 12.432 39.152C10.608 39.12 8.832 39.072 7.104 39.008C5.504 39.584 4.4 39.872 3.792 39.872ZM38.3824 38.72C37.6784 38.72 36.9904 38.496 36.3184 38.048C35.6784 37.6 35.3584 36.864 35.3584 35.84C35.3584 35.008 35.5664 34.336 35.9824 33.824C36.3984 33.312 36.8784 32.944 37.4224 32.72C37.9664 32.464 38.4464 32.336 38.8624 32.336C39.2784 32.336 39.7424 32.432 40.2544 32.624C40.7984 32.816 41.2624 33.152 41.6464 33.632C42.0304 34.08 42.2224 34.752 42.2224 35.648C42.2224 36.544 41.8384 37.28 41.0704 37.856C40.3024 38.432 39.4064 38.72 38.3824 38.72Z" fill="#FAB03A"/>
</svg>
