<svg width="84" height="82" viewBox="0 0 84 82" fill="none" xmlns="http://www.w3.org/2000/svg">
<path d="M34.728 81.144C33.704 81.144 32.776 80.664 31.944 79.704C31.112 78.808 30.696 77.368 30.696 75.384C30.696 74.36 30.984 72.28 31.56 69.144C32.2 66.008 32.968 62.296 33.864 58.008C30.536 58.328 27.144 58.648 23.688 58.968C20.296 59.224 16.904 59.416 13.512 59.544C11.784 61.144 10.408 62.168 9.384 62.616C8.424 63 7.336 63.192 6.12 63.192C3.88 63.192 2.344 62.84 1.512 62.136C0.68 61.368 0.264 60.376 0.264 59.16C0.264 57.624 0.936 56.312 2.28 55.224C3.624 54.072 5.768 53.304 8.712 52.92C11.912 48.824 15.272 44.856 18.792 41.016C22.376 37.112 25.896 33.208 29.352 29.304C32.872 25.336 36.104 21.208 39.048 16.92C41.992 12.632 44.488 8.056 46.536 3.192C47.112 1.848 47.752 1.016 48.456 0.695995C49.224 0.311996 50.088 0.151997 51.048 0.215996C52.136 0.279995 53 0.791996 53.64 1.752C54.28 2.712 54.6 4.216 54.6 6.264C54.6 6.904 54.312 8.536 53.736 11.16C53.16 13.784 52.392 17.144 51.432 21.24C50.472 25.272 49.416 29.752 48.264 34.68C47.112 39.544 45.928 44.568 44.712 49.752C49.768 49.24 54.216 48.792 58.056 48.408C61.896 48.024 64.296 47.832 65.256 47.832C66.856 47.832 67.912 48.024 68.424 48.408C68.936 48.728 69.192 49.336 69.192 50.232C69.192 50.68 68.104 51.32 65.928 52.152C63.752 52.92 60.712 53.752 56.808 54.648C52.904 55.48 48.328 56.248 43.08 56.952C42.248 60.408 41.448 63.768 40.68 67.032C39.912 70.232 39.24 73.24 38.664 76.056C38.28 77.912 37.768 79.224 37.128 79.992C36.552 80.76 35.752 81.144 34.728 81.144ZM41.352 25.272C38.92 28.472 36.392 31.736 33.768 35.064C31.208 38.392 28.616 41.592 25.992 44.664C23.432 47.736 20.936 50.456 18.504 52.824C21.192 52.504 23.944 52.184 26.76 51.864C29.576 51.48 32.456 51.128 35.4 50.808L41.352 25.272ZM76.1085 76.44C74.7005 76.44 73.3245 75.992 71.9805 75.096C70.7005 74.2 70.0605 72.728 70.0605 70.68C70.0605 69.016 70.4765 67.672 71.3085 66.648C72.1405 65.624 73.1005 64.888 74.1885 64.44C75.2765 63.928 76.2365 63.672 77.0685 63.672C77.9005 63.672 78.8285 63.864 79.8525 64.248C80.9405 64.632 81.8685 65.304 82.6365 66.264C83.4045 67.16 83.7885 68.504 83.7885 70.296C83.7885 72.088 83.0205 73.56 81.4845 74.712C79.9485 75.864 78.1565 76.44 76.1085 76.44Z" fill="#FAB03A"/>
</svg>
