<svg width="36" height="42" viewBox="0 0 36 42" fill="none" xmlns="http://www.w3.org/2000/svg">
<path d="M12.344 41.072C11.608 41.072 11.064 40.816 10.712 40.304C9.208 40.56 7.752 40.768 6.344 40.928C4.936 41.088 3.688 41.168 2.6 41.168C1.896 41.168 1.4 41.024 1.112 40.736C0.824 40.448 0.68 40 0.68 39.392C0.68 38.72 1.464 38.016 3.032 37.28C4.6 36.512 7.128 35.92 10.616 35.504C10.84 34 11.192 32.128 11.672 29.888C12.152 27.616 12.68 25.2 13.256 22.64C13.864 20.048 14.456 17.536 15.032 15.104C13.912 16.32 12.744 17.472 11.528 18.56C10.312 19.616 9.16 20.48 8.072 21.152C6.984 21.792 6.04 22.112 5.24 22.112C4.472 22.112 4.088 21.632 4.088 20.672C4.088 20.288 4.44 19.744 5.144 19.04C5.88 18.336 6.808 17.456 7.928 16.4C9.08 15.344 10.312 14.112 11.624 12.704C12.936 11.296 14.216 9.712 15.464 7.952C16.712 6.192 17.768 4.24 18.632 2.096C18.92 1.424 19.224 1.008 19.544 0.847998C19.864 0.687998 20.136 0.607998 20.36 0.607998C20.84 0.607998 21.272 0.831998 21.656 1.28C22.04 1.696 22.232 2.56 22.232 3.872C22.232 4.096 22.072 4.928 21.752 6.368C21.432 7.776 21 9.6 20.456 11.84C19.944 14.08 19.352 16.544 18.68 19.232C18.04 21.92 17.4 24.64 16.76 27.392C16.12 30.144 15.528 32.736 14.984 35.168C16.552 35.072 18.2 35.024 19.928 35.024C21.208 35.024 22.104 35.088 22.616 35.216C23.16 35.312 23.48 35.456 23.576 35.648C23.704 35.808 23.768 36 23.768 36.224C23.768 36.544 23.304 36.912 22.376 37.328C21.448 37.712 20.232 38.112 18.728 38.528C17.224 38.944 15.592 39.344 13.832 39.728C13.448 40.624 12.952 41.072 12.344 41.072ZM31.9449 38.72C31.2409 38.72 30.5529 38.496 29.8809 38.048C29.2409 37.6 28.9209 36.864 28.9209 35.84C28.9209 35.008 29.1289 34.336 29.5449 33.824C29.9609 33.312 30.4409 32.944 30.9849 32.72C31.5289 32.464 32.0089 32.336 32.4249 32.336C32.8409 32.336 33.3049 32.432 33.8169 32.624C34.3609 32.816 34.8249 33.152 35.2089 33.632C35.5929 34.08 35.7849 34.752 35.7849 35.648C35.7849 36.544 35.4009 37.28 34.6329 37.856C33.8649 38.432 32.9689 38.72 31.9449 38.72Z" fill="#FAB03A"/>
</svg>
