<svg width="38" height="41" viewBox="0 0 38 41" fill="none" xmlns="http://www.w3.org/2000/svg">
<path d="M25.128 23.272C25.128 24.552 24.664 25.864 23.736 27.208C22.84 28.552 21.656 29.88 20.184 31.192C18.712 32.504 17.112 33.736 15.384 34.888C13.688 36.04 12.008 37.048 10.344 37.912C8.68 38.808 7.208 39.496 5.928 39.976C4.648 40.488 3.736 40.744 3.192 40.744C2.264 40.744 1.56 40.536 1.08 40.12C0.632 39.736 0.408 39.384 0.408 39.064C0.408 38.712 0.488 38.36 0.648 38.008C0.84 37.688 1.272 37.384 1.944 37.096C3.8 36.264 5.672 35.336 7.56 34.312C9.448 33.256 11.224 32.184 12.888 31.096C14.584 30.008 16.088 28.92 17.4 27.832C18.712 26.744 19.752 25.736 20.52 24.808C21.288 23.848 21.672 23.016 21.672 22.312C21.672 21.256 21.128 20.472 20.04 19.96C18.984 19.416 17.224 19.144 14.76 19.144C13.32 19.144 12.12 19.208 11.16 19.336C10.2 19.464 9.368 19.592 8.664 19.72C7.992 19.816 7.368 19.864 6.792 19.864C5.768 19.864 5.256 19.336 5.256 18.28C5.256 17.8 5.416 17.304 5.736 16.792C6.056 16.28 6.568 15.912 7.272 15.688C10.792 14.568 13.592 13.224 15.672 11.656C17.752 10.056 18.792 8.28 18.792 6.328C18.792 5.144 17.768 4.552 15.72 4.552C14.76 4.552 13.672 4.648 12.456 4.84C11.24 5.032 10.056 5.272 8.904 5.56C7.784 5.816 6.824 6.04 6.024 6.232C5.224 6.424 4.728 6.52 4.536 6.52C4.216 6.52 3.976 6.424 3.816 6.232C3.656 6.008 3.576 5.784 3.576 5.56C3.576 5.272 3.816 4.84 4.296 4.264C4.776 3.688 5.464 3.096 6.36 2.488C7.256 1.848 8.328 1.32 9.576 0.903998C10.856 0.455998 12.28 0.231998 13.848 0.231998C15.448 0.231998 16.856 0.551998 18.072 1.192C19.288 1.8 20.248 2.648 20.952 3.736C21.656 4.824 22.008 6.072 22.008 7.48C22.008 8.888 21.56 10.28 20.664 11.656C19.768 13.032 18.68 14.184 17.4 15.112C18.936 15.368 20.28 15.896 21.432 16.696C22.616 17.464 23.528 18.424 24.168 19.576C24.808 20.696 25.128 21.928 25.128 23.272ZM34.1168 37.72C33.4128 37.72 32.7248 37.496 32.0527 37.048C31.4128 36.6 31.0928 35.864 31.0928 34.84C31.0928 34.008 31.3008 33.336 31.7168 32.824C32.1328 32.312 32.6128 31.944 33.1568 31.72C33.7008 31.464 34.1808 31.336 34.5968 31.336C35.0128 31.336 35.4768 31.432 35.9888 31.624C36.5328 31.816 36.9968 32.152 37.3808 32.632C37.7648 33.08 37.9568 33.752 37.9568 34.648C37.9568 35.544 37.5728 36.28 36.8047 36.856C36.0368 37.432 35.1408 37.72 34.1168 37.72Z" fill="#FAB03A"/>
</svg>
