<svg width="43" height="42" viewBox="0 0 43 42" fill="none" xmlns="http://www.w3.org/2000/svg">
<path d="M17.864 41.072C17.352 41.072 16.888 40.832 16.472 40.352C16.056 39.904 15.848 39.184 15.848 38.192C15.848 37.68 15.992 36.64 16.28 35.072C16.6 33.504 16.984 31.648 17.432 29.504C15.768 29.664 14.072 29.824 12.344 29.984C10.648 30.112 8.952 30.208 7.256 30.272C6.392 31.072 5.704 31.584 5.192 31.808C4.712 32 4.168 32.096 3.56 32.096C2.44 32.096 1.672 31.92 1.256 31.568C0.84 31.184 0.632 30.688 0.632 30.08C0.632 29.312 0.968 28.656 1.64 28.112C2.312 27.536 3.384 27.152 4.856 26.96C6.456 24.912 8.136 22.928 9.896 21.008C11.688 19.056 13.448 17.104 15.176 15.152C16.936 13.168 18.552 11.104 20.024 8.96C21.496 6.816 22.744 4.528 23.768 2.096C24.056 1.424 24.376 1.008 24.728 0.847998C25.112 0.655998 25.544 0.575998 26.024 0.607998C26.568 0.639997 27 0.895998 27.32 1.376C27.64 1.856 27.8 2.608 27.8 3.632C27.8 3.952 27.656 4.768 27.368 6.08C27.08 7.392 26.696 9.072 26.216 11.12C25.736 13.136 25.208 15.376 24.632 17.84C24.056 20.272 23.464 22.784 22.856 25.376C25.384 25.12 27.608 24.896 29.528 24.704C31.448 24.512 32.648 24.416 33.128 24.416C33.928 24.416 34.456 24.512 34.712 24.704C34.968 24.864 35.096 25.168 35.096 25.616C35.096 25.84 34.552 26.16 33.464 26.576C32.376 26.96 30.856 27.376 28.904 27.824C26.952 28.24 24.664 28.624 22.04 28.976C21.624 30.704 21.224 32.384 20.84 34.016C20.456 35.616 20.12 37.12 19.832 38.528C19.64 39.456 19.384 40.112 19.064 40.496C18.776 40.88 18.376 41.072 17.864 41.072ZM21.176 13.136C19.96 14.736 18.696 16.368 17.384 18.032C16.104 19.696 14.808 21.296 13.496 22.832C12.216 24.368 10.968 25.728 9.752 26.912C11.096 26.752 12.472 26.592 13.88 26.432C15.288 26.24 16.728 26.064 18.2 25.904L21.176 13.136ZM38.5543 38.72C37.8503 38.72 37.1623 38.496 36.4902 38.048C35.8503 37.6 35.5303 36.864 35.5303 35.84C35.5303 35.008 35.7383 34.336 36.1543 33.824C36.5703 33.312 37.0503 32.944 37.5943 32.72C38.1383 32.464 38.6183 32.336 39.0343 32.336C39.4503 32.336 39.9143 32.432 40.4263 32.624C40.9703 32.816 41.4343 33.152 41.8183 33.632C42.2023 34.08 42.3943 34.752 42.3943 35.648C42.3943 36.544 42.0103 37.28 41.2422 37.856C40.4743 38.432 39.5783 38.72 38.5543 38.72Z" fill="#FAB03A"/>
</svg>
