<svg width="76" height="82" viewBox="0 0 76 82" fill="none" xmlns="http://www.w3.org/2000/svg">
<path d="M50.256 46.544C50.256 49.104 49.328 51.728 47.472 54.416C45.68 57.104 43.312 59.76 40.368 62.384C37.424 65.008 34.224 67.472 30.768 69.776C27.376 72.08 24.016 74.096 20.688 75.824C17.36 77.616 14.416 78.992 11.856 79.952C9.296 80.976 7.472 81.488 6.384 81.488C4.528 81.488 3.12 81.072 2.16 80.24C1.264 79.472 0.816 78.768 0.816 78.128C0.816 77.424 0.976 76.72 1.296 76.016C1.68 75.376 2.544 74.768 3.888 74.192C7.6 72.528 11.344 70.672 15.12 68.624C18.896 66.512 22.448 64.368 25.776 62.192C29.168 60.016 32.176 57.84 34.8 55.664C37.424 53.488 39.504 51.472 41.04 49.616C42.576 47.696 43.344 46.032 43.344 44.624C43.344 42.512 42.256 40.944 40.08 39.92C37.968 38.832 34.448 38.288 29.52 38.288C26.64 38.288 24.24 38.416 22.32 38.672C20.4 38.928 18.736 39.184 17.328 39.44C15.984 39.632 14.736 39.728 13.584 39.728C11.536 39.728 10.512 38.672 10.512 36.56C10.512 35.6 10.832 34.608 11.472 33.584C12.112 32.56 13.136 31.824 14.544 31.376C21.584 29.136 27.184 26.448 31.344 23.312C35.504 20.112 37.584 16.56 37.584 12.656C37.584 10.288 35.536 9.10399 31.44 9.10399C29.52 9.10399 27.344 9.296 24.912 9.68C22.48 10.064 20.112 10.544 17.808 11.12C15.568 11.632 13.648 12.08 12.048 12.464C10.448 12.848 9.456 13.04 9.072 13.04C8.432 13.04 7.952 12.848 7.632 12.464C7.312 12.016 7.152 11.568 7.152 11.12C7.152 10.544 7.632 9.68 8.592 8.528C9.552 7.376 10.928 6.192 12.72 4.976C14.512 3.696 16.656 2.64 19.152 1.808C21.712 0.911997 24.56 0.463997 27.696 0.463997C30.896 0.463997 33.712 1.104 36.144 2.384C38.576 3.59999 40.496 5.296 41.904 7.472C43.312 9.648 44.016 12.144 44.016 14.96C44.016 17.776 43.12 20.56 41.328 23.312C39.536 26.064 37.36 28.368 34.8 30.224C37.872 30.736 40.56 31.792 42.864 33.392C45.232 34.928 47.056 36.848 48.336 39.152C49.616 41.392 50.256 43.856 50.256 46.544ZM68.2335 75.44C66.8255 75.44 65.4495 74.992 64.1055 74.096C62.8255 73.2 62.1855 71.728 62.1855 69.68C62.1855 68.016 62.6015 66.672 63.4335 65.648C64.2655 64.624 65.2255 63.888 66.3135 63.44C67.4015 62.928 68.3615 62.672 69.1935 62.672C70.0255 62.672 70.9535 62.864 71.9775 63.248C73.0655 63.632 73.9935 64.304 74.7615 65.264C75.5295 66.16 75.9135 67.504 75.9135 69.296C75.9135 71.088 75.1455 72.56 73.6095 73.712C72.0735 74.864 70.2815 75.44 68.2335 75.44Z" fill="#FAB03A"/>
</svg>
