<svg width="47" height="47" viewBox="0 0 47 47" fill="none" xmlns="http://www.w3.org/2000/svg">
<path d="M1.272 7.456C1.464 7.792 1.664 8.088 1.872 8.344C2.088 8.6 2.328 8.8 2.592 8.944C2.856 9.088 3.156 9.16 3.492 9.16C3.94 9.16 4.3 9.036 4.572 8.788C4.844 8.54 4.98 8.224 4.98 7.84C4.98 7.464 4.892 7.164 4.716 6.94C4.54 6.716 4.308 6.536 4.02 6.4C3.74 6.256 3.44 6.128 3.12 6.016C2.912 5.944 2.68 5.852 2.424 5.74C2.168 5.62 1.924 5.472 1.692 5.296C1.46 5.112 1.268 4.888 1.116 4.624C0.972 4.36 0.9 4.036 0.9 3.652C0.9 3.236 1.004 2.864 1.212 2.536C1.42 2.208 1.708 1.952 2.076 1.768C2.444 1.576 2.864 1.48 3.336 1.48C3.792 1.48 4.188 1.568 4.524 1.744C4.868 1.912 5.16 2.132 5.4 2.404C5.64 2.668 5.828 2.948 5.964 3.244L5.088 3.748C4.984 3.54 4.852 3.336 4.692 3.136C4.532 2.936 4.336 2.772 4.104 2.644C3.88 2.516 3.604 2.452 3.276 2.452C2.82 2.452 2.488 2.564 2.28 2.788C2.072 3.004 1.968 3.248 1.968 3.52C1.968 3.752 2.028 3.968 2.148 4.168C2.268 4.36 2.468 4.544 2.748 4.72C3.036 4.888 3.424 5.056 3.912 5.224C4.136 5.304 4.372 5.408 4.62 5.536C4.868 5.664 5.096 5.828 5.304 6.028C5.52 6.22 5.696 6.456 5.832 6.736C5.968 7.008 6.036 7.336 6.036 7.72C6.036 8.088 5.964 8.42 5.82 8.716C5.684 9.012 5.492 9.264 5.244 9.472C5.004 9.68 4.728 9.84 4.416 9.952C4.112 10.064 3.792 10.12 3.456 10.12C3 10.12 2.576 10.024 2.184 9.832C1.8 9.632 1.46 9.372 1.164 9.052C0.876 8.724 0.64 8.376 0.456 8.008L1.272 7.456ZM9.09422 5.8C9.09422 6.448 9.23822 7.02 9.52622 7.516C9.82222 8.012 10.2062 8.4 10.6782 8.68C11.1502 8.96 11.6622 9.1 12.2142 9.1C12.6142 9.1 12.9782 9.048 13.3062 8.944C13.6422 8.84 13.9462 8.696 14.2182 8.512C14.4902 8.32 14.7222 8.1 14.9142 7.852V9.196C14.5622 9.508 14.1782 9.74 13.7622 9.892C13.3462 10.044 12.8302 10.12 12.2142 10.12C11.6302 10.12 11.0822 10.016 10.5702 9.808C10.0662 9.592 9.62222 9.292 9.23822 8.908C8.85422 8.516 8.55422 8.056 8.33822 7.528C8.12222 7 8.01422 6.424 8.01422 5.8C8.01422 5.176 8.12222 4.6 8.33822 4.072C8.55422 3.544 8.85422 3.088 9.23822 2.704C9.62222 2.312 10.0662 2.012 10.5702 1.804C11.0822 1.588 11.6302 1.48 12.2142 1.48C12.8302 1.48 13.3462 1.556 13.7622 1.708C14.1782 1.86 14.5622 2.092 14.9142 2.404V3.748C14.7222 3.5 14.4902 3.284 14.2182 3.1C13.9462 2.908 13.6422 2.76 13.3062 2.656C12.9782 2.552 12.6142 2.5 12.2142 2.5C11.6622 2.5 11.1502 2.64 10.6782 2.92C10.2062 3.2 9.82222 3.588 9.52622 4.084C9.23822 4.572 9.09422 5.144 9.09422 5.8ZM19.1691 5.86H20.3091L23.3091 10H22.0491L19.1691 5.86ZM17.6691 1.6H18.6891V10H17.6691V1.6ZM18.2331 2.5V1.6H19.9491C20.4931 1.6 20.9771 1.704 21.4011 1.912C21.8331 2.112 22.1731 2.4 22.4211 2.776C22.6771 3.152 22.8051 3.6 22.8051 4.12C22.8051 4.632 22.6771 5.08 22.4211 5.464C22.1731 5.84 21.8331 6.132 21.4011 6.34C20.9771 6.54 20.4931 6.64 19.9491 6.64H18.2331V5.74H19.9491C20.3091 5.74 20.6251 5.676 20.8971 5.548C21.1771 5.42 21.3931 5.236 21.5451 4.996C21.7051 4.756 21.7851 4.464 21.7851 4.12C21.7851 3.776 21.7051 3.484 21.5451 3.244C21.3931 3.004 21.1771 2.82 20.8971 2.692C20.6251 2.564 20.3091 2.5 19.9491 2.5H18.2331ZM25.9439 5.8C25.9439 6.432 26.0799 6.996 26.3519 7.492C26.6319 7.988 27.0119 8.38 27.4919 8.668C27.9719 8.956 28.5159 9.1 29.1239 9.1C29.7399 9.1 30.2839 8.956 30.7559 8.668C31.2359 8.38 31.6119 7.988 31.8839 7.492C32.1639 6.996 32.3039 6.432 32.3039 5.8C32.3039 5.168 32.1639 4.604 31.8839 4.108C31.6119 3.612 31.2359 3.22 30.7559 2.932C30.2839 2.644 29.7399 2.5 29.1239 2.5C28.5159 2.5 27.9719 2.644 27.4919 2.932C27.0119 3.22 26.6319 3.612 26.3519 4.108C26.0799 4.604 25.9439 5.168 25.9439 5.8ZM24.8639 5.8C24.8639 5.184 24.9679 4.616 25.1759 4.096C25.3919 3.568 25.6919 3.112 26.0759 2.728C26.4599 2.336 26.9119 2.032 27.4319 1.816C27.9519 1.592 28.5159 1.48 29.1239 1.48C29.7399 1.48 30.3039 1.592 30.8159 1.816C31.3359 2.032 31.7879 2.336 32.1719 2.728C32.5559 3.112 32.8519 3.568 33.0599 4.096C33.2759 4.616 33.3839 5.184 33.3839 5.8C33.3839 6.408 33.2759 6.976 33.0599 7.504C32.8519 8.032 32.5559 8.492 32.1719 8.884C31.7879 9.268 31.3359 9.572 30.8159 9.796C30.3039 10.012 29.7399 10.12 29.1239 10.12C28.5159 10.12 27.9519 10.012 27.4319 9.796C26.9119 9.572 26.4599 9.268 26.0759 8.884C25.6919 8.492 25.3919 8.032 25.1759 7.504C24.9679 6.976 24.8639 6.408 24.8639 5.8ZM35.7844 1.6H36.8044V9.04H40.1044V10H35.7844V1.6ZM42.1467 1.6H43.1667V9.04H46.4667V10H42.1467V1.6Z" fill="white"/>
<path d="M24 22C24 21.7239 23.7761 21.5 23.5 21.5C23.2239 21.5 23 21.7239 23 22H23.5H24ZM23.1464 46.3536C23.3417 46.5488 23.6583 46.5488 23.8536 46.3536L27.0355 43.1716C27.2308 42.9763 27.2308 42.6597 27.0355 42.4645C26.8403 42.2692 26.5237 42.2692 26.3284 42.4645L23.5 45.2929L20.6716 42.4645C20.4763 42.2692 20.1597 42.2692 19.9645 42.4645C19.7692 42.6597 19.7692 42.9763 19.9645 43.1716L23.1464 46.3536ZM23.5 22H23V46H23.5H24V22H23.5Z" fill="white"/>
</svg>
