<svg width="1301" height="111" viewBox="0 0 1301 111" fill="none" xmlns="http://www.w3.org/2000/svg">
<path d="M53.08 110.4C45.4267 110.4 38.38 109.14 31.94 106.62C25.5 104.1 19.9 100.6 15.14 96.12C10.38 91.5467 6.69333 86.2267 4.08 80.16C1.46667 74 0.16 67.28 0.16 60C0.16 52.72 1.46667 46.0467 4.08 39.98C6.69333 33.82 10.38 28.5 15.14 24.02C19.9 19.4467 25.5 15.9 31.94 13.38C38.38 10.86 45.38 9.59999 52.94 9.59999C60.5933 9.59999 67.5933 10.86 73.94 13.38C80.38 15.9 85.98 19.4467 90.74 24.02C95.5 28.5 99.1867 33.82 101.8 39.98C104.413 46.0467 105.72 52.72 105.72 60C105.72 67.28 104.413 74 101.8 80.16C99.1867 86.32 95.5 91.64 90.74 96.12C85.98 100.6 80.38 104.1 73.94 106.62C67.5933 109.14 60.64 110.4 53.08 110.4ZM52.94 94.44C57.8867 94.44 62.46 93.6 66.66 91.92C70.86 90.24 74.5 87.86 77.58 84.78C80.66 81.6067 83.04 77.9667 84.72 73.86C86.4933 69.66 87.38 65.04 87.38 60C87.38 54.96 86.4933 50.3867 84.72 46.28C83.04 42.08 80.66 38.44 77.58 35.36C74.5 32.1867 70.86 29.76 66.66 28.08C62.46 26.4 57.8867 25.56 52.94 25.56C47.9933 25.56 43.42 26.4 39.22 28.08C35.1133 29.76 31.4733 32.1867 28.3 35.36C25.22 38.44 22.7933 42.08 21.02 46.28C19.34 50.3867 18.5 54.96 18.5 60C18.5 64.9467 19.34 69.52 21.02 73.72C22.7933 77.92 25.22 81.6067 28.3 84.78C31.38 87.86 35.02 90.24 39.22 91.92C43.42 93.6 47.9933 94.44 52.94 94.44ZM182.972 109.98C176.625 109.98 171.025 108.813 166.172 106.48C161.318 104.053 157.538 100.413 154.832 95.56C152.125 90.6133 150.772 84.4067 150.772 76.94V34.24H168.272V74.56C168.272 81.28 169.765 86.32 172.752 89.68C175.832 92.9467 180.172 94.58 185.772 94.58C189.878 94.58 193.425 93.74 196.412 92.06C199.492 90.38 201.872 87.86 203.552 84.5C205.325 81.14 206.212 76.9867 206.212 72.04V34.24H223.712V109H207.052V88.84L209.992 95C207.472 99.8533 203.785 103.587 198.932 106.2C194.078 108.72 188.758 109.98 182.972 109.98ZM274.625 109V34.24H291.285V54.82L289.325 48.8C291.565 43.76 295.065 39.9333 299.825 37.32C304.678 34.7067 310.698 33.4 317.885 33.4V50.06C317.138 49.8733 316.438 49.78 315.785 49.78C315.131 49.6867 314.478 49.64 313.825 49.64C307.198 49.64 301.925 51.6 298.005 55.52C294.085 59.3467 292.125 65.0867 292.125 72.74V109H274.625ZM460.165 110.4C452.512 110.4 445.185 109.327 438.185 107.18C431.185 104.94 425.632 102.093 421.525 98.64L427.825 84.5C431.745 87.58 436.598 90.1467 442.385 92.2C448.172 94.2533 454.098 95.28 460.165 95.28C465.298 95.28 469.452 94.72 472.625 93.6C475.798 92.48 478.132 90.9867 479.625 89.12C481.118 87.16 481.865 84.9667 481.865 82.54C481.865 79.5533 480.792 77.1733 478.645 75.4C476.498 73.5333 473.698 72.0867 470.245 71.06C466.885 69.94 463.105 68.9133 458.905 67.98C454.798 67.0467 450.645 65.9733 446.445 64.76C442.338 63.4533 438.558 61.82 435.105 59.86C431.745 57.8067 428.992 55.1 426.845 51.74C424.698 48.38 423.625 44.0867 423.625 38.86C423.625 33.54 425.025 28.6867 427.825 24.3C430.718 19.82 435.058 16.2733 440.845 13.66C446.725 10.9533 454.145 9.59999 463.105 9.59999C468.985 9.59999 474.818 10.3467 480.605 11.84C486.392 13.3333 491.432 15.48 495.725 18.28L489.985 32.42C485.598 29.8067 481.072 27.8933 476.405 26.68C471.738 25.3733 467.258 24.72 462.965 24.72C457.925 24.72 453.818 25.3267 450.645 26.54C447.565 27.7533 445.278 29.34 443.785 31.3C442.385 33.26 441.685 35.5 441.685 38.02C441.685 41.0067 442.712 43.4333 444.765 45.3C446.912 47.0733 449.665 48.4733 453.025 49.5C456.478 50.5267 460.305 51.5533 464.505 52.58C468.705 53.5133 472.858 54.5867 476.965 55.8C481.165 57.0133 484.945 58.6 488.305 60.56C491.758 62.52 494.512 65.18 496.565 68.54C498.712 71.9 499.785 76.1467 499.785 81.28C499.785 86.5067 498.338 91.36 495.445 95.84C492.645 100.227 488.305 103.773 482.425 106.48C476.545 109.093 469.125 110.4 460.165 110.4ZM579.292 109.98C570.985 109.98 563.705 108.347 557.452 105.08C551.292 101.72 546.485 97.1467 543.032 91.36C539.672 85.5733 537.992 78.9933 537.992 71.62C537.992 64.1533 539.625 57.5733 542.892 51.88C546.252 46.0933 550.825 41.5667 556.612 38.3C562.492 35.0333 569.165 33.4 576.632 33.4C583.912 33.4 590.399 34.9867 596.092 38.16C601.785 41.3333 606.265 45.8133 609.532 51.6C612.799 57.3867 614.432 64.2 614.432 72.04C614.432 72.7867 614.385 73.6267 614.292 74.56C614.292 75.4933 614.245 76.38 614.152 77.22H551.852V65.6H604.912L598.052 69.24C598.145 64.9467 597.259 61.1667 595.392 57.9C593.525 54.6333 590.959 52.0667 587.692 50.2C584.519 48.3333 580.832 47.4 576.632 47.4C572.339 47.4 568.559 48.3333 565.292 50.2C562.119 52.0667 559.599 54.68 557.732 58.04C555.959 61.3067 555.072 65.18 555.072 69.66V72.46C555.072 76.94 556.099 80.9067 558.152 84.36C560.205 87.8133 563.099 90.4733 566.832 92.34C570.565 94.2067 574.859 95.14 579.712 95.14C583.912 95.14 587.692 94.4867 591.052 93.18C594.412 91.8733 597.399 89.82 600.012 87.02L609.392 97.8C606.032 101.72 601.785 104.753 596.652 106.9C591.612 108.953 585.825 109.98 579.292 109.98ZM659.242 109V5.11999H676.742V109H659.242ZM762.85 109.98C754.544 109.98 747.264 108.347 741.01 105.08C734.85 101.72 730.044 97.1467 726.59 91.36C723.23 85.5733 721.55 78.9933 721.55 71.62C721.55 64.1533 723.184 57.5733 726.45 51.88C729.81 46.0933 734.384 41.5667 740.17 38.3C746.05 35.0333 752.724 33.4 760.19 33.4C767.47 33.4 773.957 34.9867 779.65 38.16C785.344 41.3333 789.824 45.8133 793.09 51.6C796.357 57.3867 797.99 64.2 797.99 72.04C797.99 72.7867 797.944 73.6267 797.85 74.56C797.85 75.4933 797.804 76.38 797.71 77.22H735.41V65.6H788.47L781.61 69.24C781.704 64.9467 780.817 61.1667 778.95 57.9C777.084 54.6333 774.517 52.0667 771.25 50.2C768.077 48.3333 764.39 47.4 760.19 47.4C755.897 47.4 752.117 48.3333 748.85 50.2C745.677 52.0667 743.157 54.68 741.29 58.04C739.517 61.3067 738.63 65.18 738.63 69.66V72.46C738.63 76.94 739.657 80.9067 741.71 84.36C743.764 87.8133 746.657 90.4733 750.39 92.34C754.124 94.2067 758.417 95.14 763.27 95.14C767.47 95.14 771.25 94.4867 774.61 93.18C777.97 91.8733 780.957 89.82 783.57 87.02L792.95 97.8C789.59 101.72 785.344 104.753 780.21 106.9C775.17 108.953 769.384 109.98 762.85 109.98ZM877.1 109.98C869.26 109.98 862.26 108.347 856.1 105.08C850.034 101.72 845.274 97.1467 841.82 91.36C838.367 85.5733 836.64 78.9933 836.64 71.62C836.64 64.1533 838.367 57.5733 841.82 51.88C845.274 46.0933 850.034 41.5667 856.1 38.3C862.26 35.0333 869.26 33.4 877.1 33.4C884.38 33.4 890.774 34.8933 896.28 37.88C901.88 40.7733 906.127 45.0667 909.02 50.76L895.58 58.6C893.34 55.0533 890.587 52.44 887.32 50.76C884.147 49.08 880.694 48.24 876.96 48.24C872.667 48.24 868.794 49.1733 865.34 51.04C861.887 52.9067 859.18 55.6133 857.22 59.16C855.26 62.6133 854.28 66.7667 854.28 71.62C854.28 76.4733 855.26 80.6733 857.22 84.22C859.18 87.6733 861.887 90.3333 865.34 92.2C868.794 94.0667 872.667 95 876.96 95C880.694 95 884.147 94.16 887.32 92.48C890.587 90.8 893.34 88.1867 895.58 84.64L909.02 92.48C906.127 98.08 901.88 102.42 896.28 105.5C890.774 108.487 884.38 109.98 877.1 109.98ZM981.245 109.98C973.032 109.98 966.685 107.88 962.205 103.68C957.725 99.3867 955.485 93.0867 955.485 84.78V17.72H972.985V84.36C972.985 87.9067 973.872 90.66 975.645 92.62C977.512 94.58 980.078 95.56 983.345 95.56C987.265 95.56 990.532 94.5333 993.145 92.48L998.045 104.94C995.992 106.62 993.472 107.88 990.485 108.72C987.498 109.56 984.418 109.98 981.245 109.98ZM943.165 48.8V34.8H993.005V48.8H943.165ZM1040.44 109V34.24H1057.94V109H1040.44ZM1049.26 21.92C1045.99 21.92 1043.29 20.8933 1041.14 18.84C1039.09 16.7867 1038.06 14.3133 1038.06 11.42C1038.06 8.43333 1039.09 5.95999 1041.14 3.99999C1043.29 1.94666 1045.99 0.919998 1049.26 0.919998C1052.53 0.919998 1055.19 1.9 1057.24 3.85999C1059.39 5.72666 1060.46 8.10666 1060.46 11C1060.46 14.08 1059.43 16.6933 1057.38 18.84C1055.33 20.8933 1052.62 21.92 1049.26 21.92ZM1142.51 109.98C1134.86 109.98 1128.04 108.347 1122.07 105.08C1116.1 101.72 1111.38 97.1467 1107.93 91.36C1104.48 85.5733 1102.75 78.9933 1102.75 71.62C1102.75 64.1533 1104.48 57.5733 1107.93 51.88C1111.38 46.0933 1116.1 41.5667 1122.07 38.3C1128.04 35.0333 1134.86 33.4 1142.51 33.4C1150.26 33.4 1157.12 35.0333 1163.09 38.3C1169.16 41.5667 1173.87 46.0467 1177.23 51.74C1180.68 57.4333 1182.41 64.06 1182.41 71.62C1182.41 78.9933 1180.68 85.5733 1177.23 91.36C1173.87 97.1467 1169.16 101.72 1163.09 105.08C1157.12 108.347 1150.26 109.98 1142.51 109.98ZM1142.51 95C1146.8 95 1150.63 94.0667 1153.99 92.2C1157.35 90.3333 1159.96 87.6267 1161.83 84.08C1163.79 80.5333 1164.77 76.38 1164.77 71.62C1164.77 66.7667 1163.79 62.6133 1161.83 59.16C1159.96 55.6133 1157.35 52.9067 1153.99 51.04C1150.63 49.1733 1146.85 48.24 1142.65 48.24C1138.36 48.24 1134.53 49.1733 1131.17 51.04C1127.9 52.9067 1125.29 55.6133 1123.33 59.16C1121.37 62.6133 1120.39 66.7667 1120.39 71.62C1120.39 76.38 1121.37 80.5333 1123.33 84.08C1125.29 87.6267 1127.9 90.3333 1131.17 92.2C1134.53 94.0667 1138.31 95 1142.51 95ZM1269.56 33.4C1275.54 33.4 1280.86 34.5667 1285.52 36.9C1290.28 39.2333 1294.02 42.8267 1296.72 47.68C1299.43 52.44 1300.78 58.6 1300.78 66.16V109H1283.28V68.4C1283.28 61.7733 1281.7 56.8267 1278.52 53.56C1275.44 50.2933 1271.1 48.66 1265.5 48.66C1261.4 48.66 1257.76 49.5 1254.58 51.18C1251.41 52.86 1248.94 55.38 1247.16 58.74C1245.48 62.0067 1244.64 66.16 1244.64 71.2V109H1227.14V34.24H1243.8V54.4L1240.86 48.24C1243.48 43.48 1247.26 39.84 1252.2 37.32C1257.24 34.7067 1263.03 33.4 1269.56 33.4Z" fill="#F7F7F7"/>
</svg>
